<svg width="64" height="64" viewBox="0 0 64 64" fill="none" xmlns="http://www.w3.org/2000/svg">
<rect width="64" height="64" rx="32" fill="#A663CC" fill-opacity="0.07"/>
<g clip-path="url(#clip0_11_261)">
<path d="M31.1331 22.7825L28.4417 25.4739C28.1488 25.7668 28.1488 26.2416 28.4417 26.5345L31.1311 29.224C31.424 29.5169 31.8989 29.5169 32.1918 29.224L34.8832 26.5326C35.1761 26.2397 35.1761 25.7648 34.8832 25.4719L32.1938 22.7825C31.9009 22.4896 31.426 22.4896 31.1331 22.7825Z" fill="#A663CC" stroke="#A663CC" stroke-width="2" stroke-linecap="round" stroke-linejoin="round"/>
<path d="M37.134 28.7825L34.4426 31.4739C34.1497 31.7668 34.1497 32.2416 34.4426 32.5345L37.132 35.224C37.4249 35.5169 37.8998 35.5169 38.1927 35.224L40.8841 32.5326C41.177 32.2397 41.177 31.7648 40.8841 31.4719L38.1946 28.7825C37.9018 28.4896 37.4269 28.4896 37.134 28.7825Z" fill="#A663CC" stroke="#A663CC" stroke-width="2" stroke-linecap="round" stroke-linejoin="round"/>
<path d="M25.1331 28.774L22.4417 31.4655C22.1488 31.7584 22.1488 32.2332 22.4417 32.5261L25.1311 35.2156C25.424 35.5084 25.8989 35.5084 26.1918 35.2156L28.8832 32.5241C29.1761 32.2312 29.1761 31.7564 28.8832 31.4635L26.1938 28.774C25.9009 28.4811 25.426 28.4811 25.1331 28.774Z" fill="#A663CC" stroke="#A663CC" stroke-width="2" stroke-linecap="round" stroke-linejoin="round"/>
<path d="M31.134 34.774L28.4426 37.4655C28.1497 37.7584 28.1497 38.2332 28.4426 38.5261L31.132 41.2156C31.4249 41.5084 31.8998 41.5084 32.1927 41.2156L34.8841 38.5241C35.177 38.2312 35.177 37.7564 34.8841 37.4635L32.1946 34.774C31.9018 34.4811 31.4269 34.4811 31.134 34.774Z" fill="#A663CC" stroke="#A663CC" stroke-width="2" stroke-linecap="round" stroke-linejoin="round"/>
</g>
<defs>
<clipPath id="clip0_11_261">
<rect width="24" height="24" fill="white" transform="translate(19.6667 20)"/>
</clipPath>
</defs>
</svg>
