<svg width="124" height="42" viewBox="0 0 124 42" fill="none" xmlns="http://www.w3.org/2000/svg">
<path fill-rule="evenodd" clip-rule="evenodd" d="M15.8781 15.0347L30.46 15.0347C30.46 15.0334 30.7217 16.0754 30.7217 17.8787C30.7217 26.4257 24.5453 32.2052 16.1085 32.2052C6.51578 32.2052 -3.69404e-08 24.4058 -2.4482e-08 16.4072C-1.1768e-08 8.24466 6.92654 0.688201 15.8818 0.689453C22.9123 0.689453 26.7682 4.98113 26.7682 4.98113L23.7639 8.09188C23.7639 8.09188 20.8986 4.99115 16.0346 4.99115C9.73047 4.99115 4.70243 9.99163 4.70243 16.4849C4.70243 23.1497 9.97718 27.906 16.0208 27.906C20.7446 27.906 25.7501 25.3412 26.256 19.3251L15.8781 19.3251L15.8781 15.0347ZM32.618 21.9725C32.618 16.5637 36.8696 11.9264 42.8019 11.9264C47.6784 11.9264 52.9669 15.3815 52.9656 22.0902C52.9656 27.9435 48.4197 32.1851 42.8707 32.1851C36.7419 32.1851 32.618 27.4613 32.618 21.9725ZM48.5425 22.0639C48.5425 18.2631 45.7773 15.905 42.8607 15.905C39.5834 15.905 37.0638 18.5261 37.0638 22.0338C37.0638 25.6192 39.6135 28.209 42.8469 28.209C45.7899 28.209 48.5425 25.7832 48.5425 22.0639ZM64.8224 11.9264C58.8902 11.9264 54.6386 16.5637 54.6386 21.9725C54.6386 27.4613 58.7625 32.1851 64.8913 32.1851C70.4403 32.1851 74.9862 27.9435 74.9862 22.0902C74.9875 15.3815 69.6989 11.9264 64.8224 11.9264ZM64.8813 15.905C67.7979 15.905 70.563 18.2631 70.563 22.0639C70.563 25.7832 67.8104 28.209 64.8675 28.209C61.634 28.209 59.0843 25.6192 59.0843 22.0338C59.0843 18.5261 61.604 15.905 64.8813 15.905ZM76.8221 22.0585C76.8221 16.7061 81.1025 11.9373 86.5476 11.9373C88.917 11.9385 90.7028 12.8552 92.0089 14.2628L92.0089 12.2967L96.2555 12.2967L96.2555 30.7495C96.2555 37.9003 92.1291 41.3103 86.7154 41.3103C81.7662 41.3103 78.9861 38.2647 77.6048 35.3443L81.4982 33.7163C82.038 35.0224 83.5896 37.3229 86.6841 37.3229C89.8875 37.3229 92.0089 35.2303 92.0089 31.7351L92.0089 29.7377C90.8756 31.0526 89.3402 32.1985 86.4537 32.1985C81.7838 32.1985 76.8221 28.156 76.8221 22.0585ZM92.352 22.081C92.352 18.1876 89.6107 15.9084 86.9408 15.9084C84.0843 15.9084 81.2791 18.2289 81.2778 22.1186C81.2778 25.8618 83.9791 28.2186 86.8819 28.2186C89.617 28.2186 92.352 26.0383 92.352 22.081ZM114.768 11.9143C109.633 11.9143 105.32 16.0006 105.32 22.0305C105.32 28.411 110.126 32.1955 115.262 32.1955C119.547 32.1955 122.178 29.8512 123.748 27.7498L120.246 25.4192C119.337 26.8293 117.818 28.2081 115.283 28.2081C112.435 28.2081 111.126 26.649 110.315 25.1387L123.898 19.5033L123.193 17.8515C121.88 14.6168 118.818 11.9155 114.768 11.9143ZM114.945 15.8102C116.796 15.8102 118.127 16.7946 118.693 17.9742L109.623 21.765C109.232 18.8296 112.012 15.8102 114.945 15.8102ZM99.0943 1.73563L103.255 1.73563L103.255 31.5933L99.0943 31.5933L99.0943 1.73563Z" fill="#6C6F93"/>
</svg>
