<svg width="445" height="300" viewBox="0 0 445 300" fill="none" xmlns="http://www.w3.org/2000/svg">
<rect width="445" height="300" rx="24" fill="white"/>
<rect x="40" y="65" width="365" height="2" fill="#F2F2F2"/>
<rect x="40" y="149" width="365" height="2" fill="#F2F2F2"/>
<rect x="40" y="258" width="365" height="2" fill="#F2F2F2"/>
<rect x="40" y="107" width="365" height="2" fill="#F2F2F2"/>
<rect x="162" y="66" width="194" height="1.99999" transform="rotate(90 162 66)" fill="#F2F2F2"/>
<rect x="284" y="66" width="194" height="1.99999" transform="rotate(90 284 66)" fill="#F2F2F2"/>
<rect x="300" y="79" width="61" height="16" rx="6" fill="#0E0B3D" fill-opacity="0.08"/>
<rect x="40" y="214" width="105" height="32" rx="10" fill="#0E0B3D"/>
<rect x="300" y="121" width="50" height="16" rx="6" fill="#0E0B3D" fill-opacity="0.08"/>
<rect x="178" y="79" width="40" height="16" rx="6" fill="#0E0B3D" fill-opacity="0.08"/>
<rect x="40" y="79" width="58" height="16" rx="6" fill="#0E0B3D" fill-opacity="0.08"/>
<rect x="40" y="121" width="41" height="16" rx="6" fill="#0E0B3D" fill-opacity="0.08"/>
<rect x="178" y="121" width="58" height="16" rx="6" fill="#0E0B3D" fill-opacity="0.08"/>
<path d="M41.128 51V42.48H46.096V43.536H42.244V46.116H45.376V47.172H42.244V49.944H46.096V51H41.128ZM49.9362 51.12C49.1042 51.12 48.4042 50.816 47.8362 50.208C47.2762 49.6 46.9962 48.864 46.9962 48C46.9962 47.136 47.2762 46.4 47.8362 45.792C48.4042 45.184 49.1042 44.88 49.9362 44.88C50.3762 44.88 50.7842 44.98 51.1602 45.18C51.5442 45.372 51.8402 45.62 52.0482 45.924V45H53.0802V51H52.0482V50.076C51.8402 50.38 51.5442 50.632 51.1602 50.832C50.7842 51.024 50.3762 51.12 49.9362 51.12ZM50.0922 50.172C50.6842 50.172 51.1722 49.964 51.5562 49.548C51.9402 49.132 52.1322 48.616 52.1322 48C52.1322 47.384 51.9402 46.868 51.5562 46.452C51.1722 46.036 50.6842 45.828 50.0922 45.828C49.4922 45.828 49.0002 46.036 48.6162 46.452C48.2322 46.868 48.0402 47.384 48.0402 48C48.0402 48.616 48.2322 49.132 48.6162 49.548C49.0002 49.964 49.4922 50.172 50.0922 50.172ZM55.0228 51V45H56.0548V46.164C56.1668 45.796 56.3828 45.5 56.7028 45.276C57.0308 45.052 57.3748 44.94 57.7348 44.94C57.9108 44.94 58.0668 44.956 58.2028 44.988V46.056C58.0588 45.992 57.8708 45.96 57.6388 45.96C57.2228 45.96 56.8548 46.14 56.5348 46.5C56.2148 46.86 56.0548 47.368 56.0548 48.024V51H55.0228ZM59.4173 51V45H60.4493V45.924C60.8573 45.228 61.4933 44.88 62.3573 44.88C63.0373 44.88 63.5853 45.1 64.0013 45.54C64.4173 45.98 64.6253 46.568 64.6253 47.304V51H63.6053V47.46C63.6053 46.956 63.4773 46.56 63.2213 46.272C62.9653 45.976 62.6213 45.828 62.1893 45.828C61.6933 45.828 61.2773 46.024 60.9413 46.416C60.6133 46.808 60.4493 47.344 60.4493 48.024V51H59.4173ZM67.5277 43.188C67.3917 43.324 67.2197 43.392 67.0117 43.392C66.8037 43.392 66.6277 43.324 66.4837 43.188C66.3397 43.044 66.2677 42.868 66.2677 42.66C66.2677 42.46 66.3397 42.288 66.4837 42.144C66.6277 42 66.8037 41.928 67.0117 41.928C67.2197 41.928 67.3917 42 67.5277 42.144C67.6637 42.288 67.7317 42.46 67.7317 42.66C67.7317 42.868 67.6637 43.044 67.5277 43.188ZM66.4837 51V45H67.5157V51H66.4837ZM69.472 51V45H70.504V45.924C70.912 45.228 71.548 44.88 72.412 44.88C73.092 44.88 73.64 45.1 74.056 45.54C74.472 45.98 74.68 46.568 74.68 47.304V51H73.66V47.46C73.66 46.956 73.532 46.56 73.276 46.272C73.02 45.976 72.676 45.828 72.244 45.828C71.748 45.828 71.332 46.024 70.996 46.416C70.668 46.808 70.504 47.344 70.504 48.024V51H69.472ZM79.1784 53.628C78.3864 53.628 77.7264 53.432 77.1984 53.04C76.6784 52.656 76.3704 52.16 76.2744 51.552H77.2824C77.5464 52.328 78.1864 52.716 79.2024 52.716C79.7704 52.716 80.2264 52.532 80.5704 52.164C80.9224 51.804 81.0984 51.296 81.0984 50.64V49.932C80.8824 50.252 80.5904 50.508 80.2224 50.7C79.8544 50.892 79.4504 50.988 79.0104 50.988C78.1704 50.988 77.4704 50.696 76.9104 50.112C76.3504 49.52 76.0704 48.792 76.0704 47.928C76.0704 47.072 76.3504 46.352 76.9104 45.768C77.4784 45.176 78.1784 44.88 79.0104 44.88C79.4504 44.88 79.8544 44.976 80.2224 45.168C80.5904 45.36 80.8824 45.612 81.0984 45.924V45H82.1304V50.628C82.1304 51.588 81.8504 52.328 81.2904 52.848C80.7384 53.368 80.0344 53.628 79.1784 53.628ZM77.6904 49.44C78.0664 49.832 78.5544 50.028 79.1544 50.028C79.7544 50.028 80.2424 49.832 80.6184 49.44C80.9944 49.04 81.1824 48.536 81.1824 47.928C81.1824 47.32 80.9904 46.82 80.6064 46.428C80.2304 46.028 79.7464 45.828 79.1544 45.828C78.5624 45.828 78.0744 46.028 77.6904 46.428C77.3144 46.82 77.1264 47.32 77.1264 47.928C77.1264 48.536 77.3144 49.04 77.6904 49.44ZM86.0056 51.12C85.3336 51.12 84.7696 50.956 84.3136 50.628C83.8656 50.3 83.6176 49.844 83.5696 49.26H84.6256C84.6896 49.596 84.8496 49.844 85.1056 50.004C85.3696 50.164 85.6736 50.244 86.0176 50.244C86.3616 50.244 86.6376 50.176 86.8456 50.04C87.0616 49.904 87.1696 49.708 87.1696 49.452C87.1696 49.212 87.0896 49.016 86.9296 48.864C86.7776 48.712 86.5256 48.588 86.1736 48.492L85.3096 48.264C84.2776 47.992 83.7616 47.404 83.7616 46.5C83.7616 46.012 83.9536 45.62 84.3376 45.324C84.7296 45.028 85.2296 44.88 85.8376 44.88C86.4536 44.88 86.9576 45.044 87.3496 45.372C87.7496 45.692 87.9736 46.1 88.0216 46.596H86.9896C86.9096 46.332 86.7656 46.124 86.5576 45.972C86.3576 45.82 86.1176 45.744 85.8376 45.744C85.5416 45.744 85.2936 45.812 85.0936 45.948C84.9016 46.084 84.8056 46.264 84.8056 46.488C84.8056 46.704 84.8776 46.88 85.0216 47.016C85.1656 47.152 85.3976 47.264 85.7176 47.352L86.6776 47.604C87.7016 47.86 88.2136 48.452 88.2136 49.38C88.2136 49.956 88.0096 50.392 87.6016 50.688C87.1936 50.976 86.6616 51.12 86.0056 51.12Z" fill="#0E0B3D"/>
<path d="M179.128 51V42.48H181.576C182.88 42.48 183.96 42.884 184.816 43.692C185.68 44.5 186.112 45.516 186.112 46.74C186.112 47.964 185.68 48.98 184.816 49.788C183.96 50.596 182.88 51 181.576 51H179.128ZM180.244 49.956H181.576C182.592 49.956 183.412 49.656 184.036 49.056C184.668 48.448 184.984 47.676 184.984 46.74C184.984 45.804 184.668 45.036 184.036 44.436C183.412 43.828 182.592 43.524 181.576 43.524H180.244V49.956ZM190.176 51.12C189.304 51.12 188.58 50.824 188.004 50.232C187.436 49.64 187.152 48.896 187.152 48C187.152 47.096 187.428 46.352 187.98 45.768C188.54 45.176 189.28 44.88 190.2 44.88C191.128 44.88 191.856 45.208 192.384 45.864C192.912 46.52 193.144 47.324 193.08 48.276H188.196C188.212 48.82 188.412 49.276 188.796 49.644C189.18 50.004 189.644 50.184 190.188 50.184C191.004 50.184 191.584 49.848 191.928 49.176H192.984C192.832 49.736 192.508 50.2 192.012 50.568C191.516 50.936 190.904 51.12 190.176 51.12ZM191.352 46.224C191.024 45.936 190.628 45.792 190.164 45.792C189.7 45.792 189.284 45.932 188.916 46.212C188.556 46.492 188.332 46.908 188.244 47.46H191.988C191.892 46.916 191.68 46.504 191.352 46.224ZM197.042 51.12C196.21 51.12 195.51 50.816 194.942 50.208C194.382 49.6 194.102 48.864 194.102 48C194.102 47.136 194.382 46.4 194.942 45.792C195.51 45.184 196.21 44.88 197.042 44.88C197.482 44.88 197.89 44.98 198.266 45.18C198.65 45.372 198.946 45.62 199.154 45.924V42H200.186V51H199.154V50.076C198.946 50.38 198.65 50.632 198.266 50.832C197.89 51.024 197.482 51.12 197.042 51.12ZM197.198 50.172C197.79 50.172 198.278 49.964 198.662 49.548C199.046 49.132 199.238 48.616 199.238 48C199.238 47.384 199.046 46.868 198.662 46.452C198.278 46.036 197.79 45.828 197.198 45.828C196.598 45.828 196.106 46.036 195.722 46.452C195.338 46.868 195.146 47.384 195.146 48C195.146 48.616 195.338 49.132 195.722 49.548C196.106 49.964 196.598 50.172 197.198 50.172ZM204.252 51.12C203.596 51.12 203.064 50.9 202.656 50.46C202.248 50.012 202.044 49.42 202.044 48.684V45H203.076V48.528C203.076 49.032 203.196 49.432 203.436 49.728C203.684 50.024 204.016 50.172 204.432 50.172C204.912 50.172 205.308 49.976 205.62 49.584C205.94 49.184 206.1 48.648 206.1 47.976V45H207.132V51H206.1V50.076C205.708 50.772 205.092 51.12 204.252 51.12ZM211.741 51.12C210.837 51.12 210.089 50.82 209.497 50.22C208.905 49.612 208.609 48.872 208.609 48C208.609 47.128 208.905 46.392 209.497 45.792C210.089 45.184 210.837 44.88 211.741 44.88C212.485 44.88 213.129 45.088 213.673 45.504C214.217 45.912 214.581 46.448 214.765 47.112H213.661C213.517 46.72 213.277 46.408 212.941 46.176C212.605 45.944 212.205 45.828 211.741 45.828C211.125 45.828 210.621 46.036 210.229 46.452C209.845 46.868 209.653 47.384 209.653 48C209.653 48.616 209.845 49.132 210.229 49.548C210.621 49.964 211.125 50.172 211.741 50.172C212.205 50.172 212.605 50.056 212.941 49.824C213.277 49.592 213.517 49.28 213.661 48.888H214.765C214.589 49.552 214.229 50.092 213.685 50.508C213.141 50.916 212.493 51.12 211.741 51.12ZM218.402 51.06C217.85 51.06 217.406 50.904 217.07 50.592C216.734 50.28 216.566 49.824 216.566 49.224V45.948H215.294V45H216.566V43.332H217.598V45H219.326V45.948H217.598V49.092C217.598 49.468 217.678 49.732 217.838 49.884C217.998 50.036 218.25 50.112 218.594 50.112C218.898 50.112 219.142 50.072 219.326 49.992V50.916C219.038 51.012 218.73 51.06 218.402 51.06ZM221.688 43.188C221.552 43.324 221.38 43.392 221.172 43.392C220.964 43.392 220.788 43.324 220.644 43.188C220.5 43.044 220.428 42.868 220.428 42.66C220.428 42.46 220.5 42.288 220.644 42.144C220.788 42 220.964 41.928 221.172 41.928C221.38 41.928 221.552 42 221.688 42.144C221.824 42.288 221.892 42.46 221.892 42.66C221.892 42.868 221.824 43.044 221.688 43.188ZM220.644 51V45H221.676V51H220.644ZM226.296 51.12C225.392 51.12 224.64 50.82 224.04 50.22C223.448 49.612 223.152 48.872 223.152 48C223.152 47.128 223.448 46.392 224.04 45.792C224.64 45.184 225.392 44.88 226.296 44.88C227.192 44.88 227.936 45.184 228.528 45.792C229.128 46.392 229.428 47.128 229.428 48C229.428 48.872 229.128 49.612 228.528 50.22C227.936 50.82 227.192 51.12 226.296 51.12ZM224.784 49.536C225.176 49.952 225.68 50.16 226.296 50.16C226.912 50.16 227.412 49.952 227.796 49.536C228.18 49.12 228.372 48.608 228.372 48C228.372 47.392 228.18 46.88 227.796 46.464C227.412 46.048 226.912 45.84 226.296 45.84C225.68 45.84 225.176 46.048 224.784 46.464C224.4 46.88 224.208 47.392 224.208 48C224.208 48.608 224.4 49.12 224.784 49.536ZM230.91 51V45H231.942V45.924C232.35 45.228 232.986 44.88 233.85 44.88C234.53 44.88 235.078 45.1 235.494 45.54C235.91 45.98 236.118 46.568 236.118 47.304V51H235.098V47.46C235.098 46.956 234.97 46.56 234.714 46.272C234.458 45.976 234.114 45.828 233.682 45.828C233.186 45.828 232.77 46.024 232.434 46.416C232.106 46.808 231.942 47.344 231.942 48.024V51H230.91ZM239.908 51.12C239.236 51.12 238.672 50.956 238.216 50.628C237.768 50.3 237.52 49.844 237.472 49.26H238.528C238.592 49.596 238.752 49.844 239.008 50.004C239.272 50.164 239.576 50.244 239.92 50.244C240.264 50.244 240.54 50.176 240.748 50.04C240.964 49.904 241.072 49.708 241.072 49.452C241.072 49.212 240.992 49.016 240.832 48.864C240.68 48.712 240.428 48.588 240.076 48.492L239.212 48.264C238.18 47.992 237.664 47.404 237.664 46.5C237.664 46.012 237.856 45.62 238.24 45.324C238.632 45.028 239.132 44.88 239.74 44.88C240.356 44.88 240.86 45.044 241.252 45.372C241.652 45.692 241.876 46.1 241.924 46.596H240.892C240.812 46.332 240.668 46.124 240.46 45.972C240.26 45.82 240.02 45.744 239.74 45.744C239.444 45.744 239.196 45.812 238.996 45.948C238.804 46.084 238.708 46.264 238.708 46.488C238.708 46.704 238.78 46.88 238.924 47.016C239.068 47.152 239.3 47.264 239.62 47.352L240.58 47.604C241.604 47.86 242.116 48.452 242.116 49.38C242.116 49.956 241.912 50.392 241.504 50.688C241.096 50.976 240.564 51.12 239.908 51.12Z" fill="#0E0B3D"/>
<path d="M300.072 51L303.84 42.48H304.764L308.544 51H307.38L306.276 48.516H302.304L301.224 51H300.072ZM304.284 43.992L302.748 47.508H305.832L304.284 43.992ZM317.313 51V47.472C317.313 46.976 317.209 46.58 317.001 46.284C316.801 45.98 316.509 45.828 316.125 45.828C315.645 45.828 315.253 46.016 314.949 46.392C314.653 46.768 314.497 47.28 314.481 47.928V51H313.449V47.472C313.449 46.968 313.345 46.568 313.137 46.272C312.937 45.976 312.649 45.828 312.273 45.828C311.777 45.828 311.377 46.028 311.073 46.428C310.769 46.82 310.617 47.352 310.617 48.024V51H309.585V45H310.617V45.924C311.001 45.228 311.605 44.88 312.429 44.88C313.341 44.88 313.957 45.308 314.277 46.164C314.437 45.772 314.693 45.46 315.045 45.228C315.397 44.996 315.797 44.88 316.245 44.88C316.893 44.88 317.405 45.1 317.781 45.54C318.157 45.98 318.345 46.572 318.345 47.316V51H317.313ZM322.866 51.12C321.962 51.12 321.21 50.82 320.61 50.22C320.018 49.612 319.722 48.872 319.722 48C319.722 47.128 320.018 46.392 320.61 45.792C321.21 45.184 321.962 44.88 322.866 44.88C323.762 44.88 324.506 45.184 325.098 45.792C325.698 46.392 325.998 47.128 325.998 48C325.998 48.872 325.698 49.612 325.098 50.22C324.506 50.82 323.762 51.12 322.866 51.12ZM321.354 49.536C321.746 49.952 322.25 50.16 322.866 50.16C323.482 50.16 323.982 49.952 324.366 49.536C324.75 49.12 324.942 48.608 324.942 48C324.942 47.392 324.75 46.88 324.366 46.464C323.982 46.048 323.482 45.84 322.866 45.84C322.25 45.84 321.746 46.048 321.354 46.464C320.97 46.88 320.778 47.392 320.778 48C320.778 48.608 320.97 49.12 321.354 49.536ZM329.604 51.12C328.948 51.12 328.416 50.9 328.008 50.46C327.6 50.012 327.396 49.42 327.396 48.684V45H328.428V48.528C328.428 49.032 328.548 49.432 328.788 49.728C329.036 50.024 329.368 50.172 329.784 50.172C330.264 50.172 330.66 49.976 330.972 49.584C331.292 49.184 331.452 48.648 331.452 47.976V45H332.484V51H331.452V50.076C331.06 50.772 330.444 51.12 329.604 51.12ZM334.429 51V45H335.461V45.924C335.869 45.228 336.505 44.88 337.369 44.88C338.049 44.88 338.597 45.1 339.013 45.54C339.429 45.98 339.637 46.568 339.637 47.304V51H338.617V47.46C338.617 46.956 338.489 46.56 338.233 46.272C337.977 45.976 337.633 45.828 337.201 45.828C336.705 45.828 336.289 46.024 335.953 46.416C335.625 46.808 335.461 47.344 335.461 48.024V51H334.429ZM343.753 51.06C343.201 51.06 342.757 50.904 342.421 50.592C342.085 50.28 341.917 49.824 341.917 49.224V45.948H340.645V45H341.917V43.332H342.949V45H344.677V45.948H342.949V49.092C342.949 49.468 343.029 49.732 343.189 49.884C343.349 50.036 343.601 50.112 343.945 50.112C344.249 50.112 344.493 50.072 344.677 49.992V50.916C344.389 51.012 344.081 51.06 343.753 51.06Z" fill="#0E0B3D"/>
</svg>
