<svg width="199" height="300" viewBox="0 0 199 300" fill="none" xmlns="http://www.w3.org/2000/svg">
<path d="M199 37.92C199 24.9314 199 18.4371 196.553 13.4415C194.209 8.65833 190.342 4.79057 185.559 2.44734C180.563 0 174.069 0 161.08 0H49.92C36.9314 0 30.4371 0 25.4415 2.44734C20.6583 4.79057 16.7906 8.65833 14.4473 13.4415C12 18.4371 12 24.9314 12 37.92V39.1483C12 42.5368 12 44.231 11.6633 45.8461C11.3388 47.4029 10.7841 48.9027 10.0173 50.2959C9.2218 51.7412 8.1192 53.0276 5.914 55.6003L5.28815 56.3305C3.45139 58.4734 2.533 59.5448 2.16624 60.7405C1.81454 61.8871 1.81454 63.1129 2.16624 64.2595C2.533 65.4552 3.45139 66.5266 5.28815 68.6695L5.914 69.3997C8.1192 71.9724 9.2218 73.2588 10.0173 74.7041C10.7841 76.0973 11.3388 77.5971 11.6633 79.1539C12 80.769 12 82.4632 12 85.8517V262.08C12 275.069 12 281.563 14.4473 286.559C16.7906 291.342 20.6583 295.209 25.4415 297.553C30.4371 300 36.9314 300 49.92 300H161.08C174.069 300 180.563 300 185.559 297.553C190.342 295.209 194.209 291.342 196.553 286.559C199 281.563 199 275.069 199 262.08V37.92Z" fill="#0E0B3D"/>
<rect x="31" y="19" width="147" height="81" rx="11" fill="white"/>
<path d="M67.6158 46.008V44.664H69.1998C68.8318 43.496 68.6478 42.504 68.6478 41.688C68.6478 40.344 69.1358 39.176 70.1118 38.184C71.0878 37.176 72.3358 36.672 73.8558 36.672C75.3758 36.672 76.6318 37.2 77.6238 38.256C78.6318 39.296 79.1518 40.544 79.1838 42H76.5438C76.5438 41.248 76.2878 40.608 75.7758 40.08C75.2798 39.536 74.6398 39.264 73.8558 39.264C73.1038 39.264 72.4878 39.504 72.0078 39.984C71.5278 40.448 71.2878 41.064 71.2878 41.832C71.2878 42.616 71.4958 43.56 71.9118 44.664H76.2798V46.008H72.3678C72.7038 47.048 72.8718 47.96 72.8718 48.744C72.8718 49.672 72.6158 50.56 72.1038 51.408H79.1838V54H67.6158V51.408H69.4398C69.9838 50.656 70.2558 49.808 70.2558 48.864C70.2558 48.16 70.0478 47.208 69.6318 46.008H67.6158ZM92.3885 51.408V54H81.1085V53.04C81.1085 52.432 81.1965 51.856 81.3725 51.312C81.5645 50.752 81.7645 50.288 81.9725 49.92C82.1805 49.552 82.5245 49.144 83.0045 48.696C83.4845 48.232 83.8525 47.904 84.1085 47.712C84.3645 47.504 84.8125 47.168 85.4525 46.704C86.1085 46.24 86.5245 45.944 86.7005 45.816C87.7085 45.08 88.4365 44.432 88.8845 43.872C89.3325 43.312 89.5565 42.64 89.5565 41.856C89.5565 41.072 89.3165 40.448 88.8365 39.984C88.3565 39.504 87.6925 39.264 86.8445 39.264C85.9645 39.264 85.2365 39.528 84.6605 40.056C84.0845 40.568 83.7885 41.272 83.7725 42.168H81.1085C81.1085 40.552 81.6525 39.232 82.7405 38.208C83.8445 37.184 85.2205 36.672 86.8685 36.672C88.3885 36.672 89.6605 37.12 90.6845 38.016C91.7085 38.912 92.2205 40.168 92.2205 41.784C92.2205 43.064 91.9245 44.144 91.3325 45.024C90.7565 45.888 89.7965 46.8 88.4525 47.76C88.2445 47.92 87.8605 48.192 87.3005 48.576C86.7405 48.96 86.3245 49.256 86.0525 49.464C85.7965 49.672 85.5165 49.96 85.2125 50.328C84.9085 50.68 84.7005 51.04 84.5885 51.408H92.3885ZM98.2068 53.4L95.6388 57.528H94.0068L95.6628 54C95.3268 53.856 95.0468 53.616 94.8228 53.28C94.5988 52.928 94.4868 52.536 94.4868 52.104C94.4868 51.528 94.6868 51.04 95.0868 50.64C95.4868 50.224 95.9748 50.016 96.5508 50.016C97.1268 50.016 97.6148 50.224 98.0148 50.64C98.4148 51.04 98.6148 51.528 98.6148 52.104C98.6148 52.568 98.4788 53 98.2068 53.4ZM108.733 54V49.728H99.9247V47.592L109.021 36.96H111.373V47.28H113.653V49.728H111.373V54H108.733ZM103.237 47.28H108.733V40.896L103.237 47.28ZM126.59 51.408V54H115.31V53.04C115.31 52.432 115.398 51.856 115.574 51.312C115.766 50.752 115.966 50.288 116.174 49.92C116.382 49.552 116.726 49.144 117.206 48.696C117.686 48.232 118.054 47.904 118.31 47.712C118.566 47.504 119.014 47.168 119.654 46.704C120.31 46.24 120.726 45.944 120.902 45.816C121.91 45.08 122.638 44.432 123.086 43.872C123.534 43.312 123.758 42.64 123.758 41.856C123.758 41.072 123.518 40.448 123.038 39.984C122.558 39.504 121.894 39.264 121.046 39.264C120.166 39.264 119.438 39.528 118.862 40.056C118.286 40.568 117.99 41.272 117.974 42.168H115.31C115.31 40.552 115.854 39.232 116.942 38.208C118.046 37.184 119.422 36.672 121.07 36.672C122.59 36.672 123.862 37.12 124.886 38.016C125.91 38.912 126.422 40.168 126.422 41.784C126.422 43.064 126.126 44.144 125.534 45.024C124.958 45.888 123.998 46.8 122.654 47.76C122.446 47.92 122.062 48.192 121.502 48.576C120.942 48.96 120.526 49.256 120.254 49.464C119.998 49.672 119.718 49.96 119.414 50.328C119.11 50.68 118.902 51.04 118.79 51.408H126.59ZM139.489 52.416C138.337 53.632 136.857 54.24 135.049 54.24C133.241 54.24 131.761 53.632 130.609 52.416C129.457 51.184 128.881 49.608 128.881 47.688V43.224C128.881 41.304 129.457 39.736 130.609 38.52C131.761 37.288 133.241 36.672 135.049 36.672C136.857 36.672 138.337 37.288 139.489 38.52C140.657 39.736 141.241 41.304 141.241 43.224V47.688C141.241 49.608 140.657 51.184 139.489 52.416ZM135.049 51.648C136.121 51.648 136.977 51.296 137.617 50.592C138.273 49.888 138.601 48.92 138.601 47.688V43.224C138.601 41.992 138.273 41.024 137.617 40.32C136.977 39.616 136.121 39.264 135.049 39.264C133.993 39.264 133.137 39.616 132.481 40.32C131.841 41.024 131.521 41.992 131.521 43.224V47.688C131.521 48.92 131.841 49.888 132.481 50.592C133.137 51.296 133.993 51.648 135.049 51.648Z" fill="#0E0B3D"/>
<path d="M85.7002 78.2996L92.2998 71.7M92.2998 71.7H85.7002M92.2998 71.7V78.2996" stroke="#52E282" stroke-width="1.5" stroke-linecap="round" stroke-linejoin="round"/>
<path d="M102.893 81V71.384H100.605L101.949 69.64H104.653V81H102.893ZM110.68 81.16C109.549 81.16 108.616 80.824 107.88 80.152C107.144 79.4693 106.776 78.6053 106.776 77.56C106.776 76.2373 107.315 75.2827 108.392 74.696C107.688 74.152 107.336 73.4 107.336 72.44C107.336 71.576 107.645 70.8613 108.264 70.296C108.893 69.7307 109.699 69.448 110.68 69.448C111.672 69.448 112.477 69.7307 113.096 70.296C113.725 70.8507 114.04 71.5653 114.04 72.44C114.04 73.4 113.688 74.152 112.984 74.696C114.061 75.2827 114.6 76.2373 114.6 77.56C114.6 78.616 114.232 79.48 113.496 80.152C112.771 80.824 111.832 81.16 110.68 81.16ZM110.68 79.512C111.331 79.512 111.848 79.32 112.232 78.936C112.616 78.552 112.808 78.0827 112.808 77.528C112.808 76.9627 112.616 76.4933 112.232 76.12C111.848 75.736 111.336 75.544 110.696 75.544C110.045 75.544 109.528 75.736 109.144 76.12C108.76 76.4933 108.568 76.9627 108.568 77.528C108.568 78.0827 108.76 78.552 109.144 78.936C109.539 79.32 110.051 79.512 110.68 79.512ZM110.68 74.056C111.171 74.056 111.565 73.912 111.864 73.624C112.173 73.3253 112.328 72.968 112.328 72.552C112.328 72.1147 112.179 71.7573 111.88 71.48C111.581 71.192 111.181 71.048 110.68 71.048C110.2 71.048 109.805 71.192 109.496 71.48C109.197 71.768 109.048 72.1253 109.048 72.552C109.048 72.968 109.203 73.3253 109.512 73.624C109.821 73.912 110.211 74.056 110.68 74.056ZM120.538 81H118.682L125.882 69.64H127.738L120.538 81ZM127.466 81.128C126.591 81.128 125.844 80.8187 125.226 80.2C124.618 79.5813 124.314 78.84 124.314 77.976C124.314 77.1013 124.618 76.36 125.226 75.752C125.844 75.1333 126.591 74.824 127.466 74.824C128.33 74.824 129.071 75.1333 129.69 75.752C130.308 76.36 130.618 77.1013 130.618 77.976C130.618 78.84 130.308 79.5813 129.69 80.2C129.071 80.8187 128.33 81.128 127.466 81.128ZM126.314 79.112C126.634 79.432 127.018 79.592 127.466 79.592C127.914 79.592 128.287 79.4373 128.586 79.128C128.895 78.808 129.05 78.424 129.05 77.976C129.05 77.528 128.895 77.1493 128.586 76.84C128.287 76.52 127.914 76.36 127.466 76.36C127.018 76.36 126.634 76.52 126.314 76.84C126.004 77.16 125.85 77.5387 125.85 77.976C125.85 78.4133 126.004 78.792 126.314 79.112ZM118.954 75.816C118.079 75.816 117.332 75.5067 116.714 74.888C116.106 74.2693 115.802 73.528 115.802 72.664C115.802 71.7893 116.106 71.048 116.714 70.44C117.332 69.8213 118.079 69.512 118.954 69.512C119.818 69.512 120.559 69.8213 121.178 70.44C121.796 71.048 122.106 71.7893 122.106 72.664C122.106 73.528 121.796 74.2693 121.178 74.888C120.559 75.5067 119.818 75.816 118.954 75.816ZM118.954 74.28C119.391 74.28 119.764 74.12 120.074 73.8C120.394 73.48 120.554 73.1013 120.554 72.664C120.554 72.2267 120.394 71.848 120.074 71.528C119.764 71.208 119.391 71.048 118.954 71.048C118.506 71.048 118.127 71.208 117.818 71.528C117.508 71.8373 117.354 72.216 117.354 72.664C117.354 73.112 117.508 73.496 117.818 73.816C118.127 74.1253 118.506 74.28 118.954 74.28Z" fill="#52E282"/>
<rect x="31" y="109.5" width="147" height="81" rx="11" fill="white"/>
<path d="M91.7763 141.908V144.5H80.4963V143.54C80.4963 142.932 80.5843 142.356 80.7603 141.812C80.9523 141.252 81.1523 140.788 81.3603 140.42C81.5683 140.052 81.9123 139.644 82.3923 139.196C82.8723 138.732 83.2403 138.404 83.4963 138.212C83.7523 138.004 84.2003 137.668 84.8403 137.204C85.4963 136.74 85.9123 136.444 86.0883 136.316C87.0963 135.58 87.8243 134.932 88.2723 134.372C88.7203 133.812 88.9443 133.14 88.9443 132.356C88.9443 131.572 88.7043 130.948 88.2243 130.484C87.7443 130.004 87.0803 129.764 86.2323 129.764C85.3523 129.764 84.6243 130.028 84.0483 130.556C83.4723 131.068 83.1763 131.772 83.1603 132.668H80.4963C80.4963 131.052 81.0403 129.732 82.1283 128.708C83.2323 127.684 84.6083 127.172 86.2563 127.172C87.7763 127.172 89.0483 127.62 90.0723 128.516C91.0963 129.412 91.6083 130.668 91.6083 132.284C91.6083 133.564 91.3123 134.644 90.7203 135.524C90.1443 136.388 89.1843 137.3 87.8403 138.26C87.6323 138.42 87.2483 138.692 86.6883 139.076C86.1283 139.46 85.7123 139.756 85.4403 139.964C85.1843 140.172 84.9043 140.46 84.6003 140.828C84.2963 141.18 84.0883 141.54 83.9763 141.908H91.7763ZM103.525 143.108C102.437 144.196 101.037 144.74 99.3249 144.74C97.6129 144.74 96.2129 144.196 95.1249 143.108C94.0369 142.004 93.4929 140.636 93.4929 139.004C93.4929 138.22 93.6449 137.5 93.9489 136.844C94.2689 136.188 94.7569 135.436 95.4129 134.588L101.101 127.46H104.413L99.6129 133.508H99.8769C101.269 133.508 102.501 134.036 103.573 135.092C104.645 136.132 105.181 137.428 105.181 138.98C105.181 140.628 104.629 142.004 103.525 143.108ZM97.0449 141.284C97.6529 141.892 98.4129 142.196 99.3249 142.196C100.237 142.196 100.997 141.892 101.605 141.284C102.213 140.66 102.517 139.9 102.517 139.004C102.517 138.124 102.205 137.372 101.581 136.748C100.973 136.124 100.221 135.812 99.3249 135.812C98.4289 135.812 97.6769 136.124 97.0689 136.748C96.4609 137.372 96.1569 138.124 96.1569 139.004C96.1569 139.9 96.4529 140.66 97.0449 141.284ZM113.76 144.5H110.976L121.776 127.46H124.56L113.76 144.5ZM124.152 144.692C122.84 144.692 121.72 144.228 120.792 143.3C119.88 142.372 119.424 141.26 119.424 139.964C119.424 138.652 119.88 137.54 120.792 136.628C121.72 135.7 122.84 135.236 124.152 135.236C125.448 135.236 126.56 135.7 127.488 136.628C128.416 137.54 128.88 138.652 128.88 139.964C128.88 141.26 128.416 142.372 127.488 143.3C126.56 144.228 125.448 144.692 124.152 144.692ZM122.424 141.668C122.904 142.148 123.48 142.388 124.152 142.388C124.824 142.388 125.384 142.156 125.832 141.692C126.296 141.212 126.528 140.636 126.528 139.964C126.528 139.292 126.296 138.724 125.832 138.26C125.384 137.78 124.824 137.54 124.152 137.54C123.48 137.54 122.904 137.78 122.424 138.26C121.96 138.74 121.728 139.308 121.728 139.964C121.728 140.62 121.96 141.188 122.424 141.668ZM111.384 136.724C110.072 136.724 108.952 136.26 108.024 135.332C107.112 134.404 106.656 133.292 106.656 131.996C106.656 130.684 107.112 129.572 108.024 128.66C108.952 127.732 110.072 127.268 111.384 127.268C112.68 127.268 113.792 127.732 114.72 128.66C115.648 129.572 116.112 130.684 116.112 131.996C116.112 133.292 115.648 134.404 114.72 135.332C113.792 136.26 112.68 136.724 111.384 136.724ZM111.384 134.42C112.04 134.42 112.6 134.18 113.064 133.7C113.544 133.22 113.784 132.652 113.784 131.996C113.784 131.34 113.544 130.772 113.064 130.292C112.6 129.812 112.04 129.572 111.384 129.572C110.712 129.572 110.144 129.812 109.68 130.292C109.216 130.756 108.984 131.324 108.984 131.996C108.984 132.668 109.216 133.244 109.68 133.724C110.144 134.188 110.712 134.42 111.384 134.42Z" fill="#0E0B3D"/>
<path d="M88.2002 168.8L94.7998 162.2M94.7998 162.2H88.2002M94.7998 162.2V168.8" stroke="#FB9DB6" stroke-width="1.5" stroke-linecap="round" stroke-linejoin="round"/>
<path d="M109.059 171.5V168.652H103.187V167.228L109.251 160.14H110.819V167.02H112.339V168.652H110.819V171.5H109.059ZM105.395 167.02H109.059V162.764L105.395 167.02ZM118.147 171.5H116.291L123.491 160.14H125.347L118.147 171.5ZM125.075 171.628C124.2 171.628 123.454 171.319 122.835 170.7C122.227 170.081 121.923 169.34 121.923 168.476C121.923 167.601 122.227 166.86 122.835 166.252C123.454 165.633 124.2 165.324 125.075 165.324C125.939 165.324 126.68 165.633 127.299 166.252C127.918 166.86 128.227 167.601 128.227 168.476C128.227 169.34 127.918 170.081 127.299 170.7C126.68 171.319 125.939 171.628 125.075 171.628ZM123.923 169.612C124.243 169.932 124.627 170.092 125.075 170.092C125.523 170.092 125.896 169.937 126.195 169.628C126.504 169.308 126.659 168.924 126.659 168.476C126.659 168.028 126.504 167.649 126.195 167.34C125.896 167.02 125.523 166.86 125.075 166.86C124.627 166.86 124.243 167.02 123.923 167.34C123.614 167.66 123.459 168.039 123.459 168.476C123.459 168.913 123.614 169.292 123.923 169.612ZM116.563 166.316C115.688 166.316 114.942 166.007 114.323 165.388C113.715 164.769 113.411 164.028 113.411 163.164C113.411 162.289 113.715 161.548 114.323 160.94C114.942 160.321 115.688 160.012 116.563 160.012C117.427 160.012 118.168 160.321 118.787 160.94C119.406 161.548 119.715 162.289 119.715 163.164C119.715 164.028 119.406 164.769 118.787 165.388C118.168 166.007 117.427 166.316 116.563 166.316ZM116.563 164.78C117 164.78 117.374 164.62 117.683 164.3C118.003 163.98 118.163 163.601 118.163 163.164C118.163 162.727 118.003 162.348 117.683 162.028C117.374 161.708 117 161.548 116.563 161.548C116.115 161.548 115.736 161.708 115.427 162.028C115.118 162.337 114.963 162.716 114.963 163.164C114.963 163.612 115.118 163.996 115.427 164.316C115.736 164.625 116.115 164.78 116.563 164.78Z" fill="#FB9DB6"/>
<rect x="31" y="200" width="147" height="81" rx="11" fill="white"/>
<path d="M79.786 227.008V225.664H81.37C81.002 224.496 80.818 223.504 80.818 222.688C80.818 221.344 81.306 220.176 82.282 219.184C83.258 218.176 84.506 217.672 86.026 217.672C87.546 217.672 88.802 218.2 89.794 219.256C90.802 220.296 91.322 221.544 91.354 223H88.714C88.714 222.248 88.458 221.608 87.946 221.08C87.45 220.536 86.81 220.264 86.026 220.264C85.274 220.264 84.658 220.504 84.178 220.984C83.698 221.448 83.458 222.064 83.458 222.832C83.458 223.616 83.666 224.56 84.082 225.664H88.45V227.008H84.538C84.874 228.048 85.042 228.96 85.042 229.744C85.042 230.672 84.786 231.56 84.274 232.408H91.354V235H79.786V232.408H81.61C82.154 231.656 82.426 230.808 82.426 229.864C82.426 229.16 82.218 228.208 81.802 227.008H79.786ZM96.4467 235H93.4707L101.295 220.528H92.9187V217.96H104.439V220.216L96.4467 235ZM114.081 233.608C112.993 234.696 111.593 235.24 109.881 235.24C108.169 235.24 106.769 234.696 105.681 233.608C104.593 232.504 104.049 231.136 104.049 229.504C104.049 228.72 104.201 228 104.505 227.344C104.825 226.688 105.313 225.936 105.969 225.088L111.657 217.96H114.969L110.169 224.008H110.433C111.825 224.008 113.057 224.536 114.129 225.592C115.201 226.632 115.737 227.928 115.737 229.48C115.737 231.128 115.185 232.504 114.081 233.608ZM107.601 231.784C108.209 232.392 108.969 232.696 109.881 232.696C110.793 232.696 111.553 232.392 112.161 231.784C112.769 231.16 113.073 230.4 113.073 229.504C113.073 228.624 112.761 227.872 112.137 227.248C111.529 226.624 110.777 226.312 109.881 226.312C108.985 226.312 108.233 226.624 107.625 227.248C107.017 227.872 106.713 228.624 106.713 229.504C106.713 230.4 107.009 231.16 107.601 231.784ZM123.428 235.24C121.732 235.24 120.332 234.736 119.228 233.728C118.124 232.704 117.572 231.408 117.572 229.84C117.572 227.856 118.38 226.424 119.996 225.544C118.94 224.728 118.412 223.6 118.412 222.16C118.412 220.864 118.876 219.792 119.804 218.944C120.748 218.096 121.956 217.672 123.428 217.672C124.916 217.672 126.124 218.096 127.052 218.944C127.996 219.776 128.468 220.848 128.468 222.16C128.468 223.6 127.94 224.728 126.884 225.544C128.5 226.424 129.308 227.856 129.308 229.84C129.308 231.424 128.756 232.72 127.652 233.728C126.564 234.736 125.156 235.24 123.428 235.24ZM123.428 232.768C124.404 232.768 125.18 232.48 125.756 231.904C126.332 231.328 126.62 230.624 126.62 229.792C126.62 228.944 126.332 228.24 125.756 227.68C125.18 227.104 124.412 226.816 123.452 226.816C122.476 226.816 121.7 227.104 121.124 227.68C120.548 228.24 120.26 228.944 120.26 229.792C120.26 230.624 120.548 231.328 121.124 231.904C121.716 232.48 122.484 232.768 123.428 232.768ZM123.428 224.584C124.164 224.584 124.756 224.368 125.204 223.936C125.668 223.488 125.9 222.952 125.9 222.328C125.9 221.672 125.676 221.136 125.228 220.72C124.78 220.288 124.18 220.072 123.428 220.072C122.708 220.072 122.116 220.288 121.652 220.72C121.204 221.152 120.98 221.688 120.98 222.328C120.98 222.952 121.212 223.488 121.676 223.936C122.14 224.368 122.724 224.584 123.428 224.584Z" fill="#0E0B3D"/>
<path d="M88.2002 252.7L94.7999 259.3M94.7999 259.3V252.7M94.7999 259.3H88.2002" stroke="#52E282" stroke-width="1.5" stroke-linecap="round" stroke-linejoin="round"/>
<path d="M107.914 262.16C106.784 262.16 105.85 261.824 105.114 261.152C104.378 260.469 104.01 259.605 104.01 258.56C104.01 257.237 104.549 256.283 105.626 255.696C104.922 255.152 104.57 254.4 104.57 253.44C104.57 252.576 104.88 251.861 105.498 251.296C106.128 250.731 106.933 250.448 107.914 250.448C108.906 250.448 109.712 250.731 110.33 251.296C110.96 251.851 111.274 252.565 111.274 253.44C111.274 254.4 110.922 255.152 110.218 255.696C111.296 256.283 111.834 257.237 111.834 258.56C111.834 259.616 111.466 260.48 110.73 261.152C110.005 261.824 109.066 262.16 107.914 262.16ZM107.914 260.512C108.565 260.512 109.082 260.32 109.466 259.936C109.85 259.552 110.042 259.083 110.042 258.528C110.042 257.963 109.85 257.493 109.466 257.12C109.082 256.736 108.57 256.544 107.93 256.544C107.28 256.544 106.762 256.736 106.378 257.12C105.994 257.493 105.802 257.963 105.802 258.528C105.802 259.083 105.994 259.552 106.378 259.936C106.773 260.32 107.285 260.512 107.914 260.512ZM107.914 255.056C108.405 255.056 108.8 254.912 109.098 254.624C109.408 254.325 109.562 253.968 109.562 253.552C109.562 253.115 109.413 252.757 109.114 252.48C108.816 252.192 108.416 252.048 107.914 252.048C107.434 252.048 107.04 252.192 106.73 252.48C106.432 252.768 106.282 253.125 106.282 253.552C106.282 253.968 106.437 254.325 106.746 254.624C107.056 254.912 107.445 255.056 107.914 255.056ZM117.772 262H115.916L123.116 250.64H124.972L117.772 262ZM124.7 262.128C123.825 262.128 123.079 261.819 122.46 261.2C121.852 260.581 121.548 259.84 121.548 258.976C121.548 258.101 121.852 257.36 122.46 256.752C123.079 256.133 123.825 255.824 124.7 255.824C125.564 255.824 126.305 256.133 126.924 256.752C127.543 257.36 127.852 258.101 127.852 258.976C127.852 259.84 127.543 260.581 126.924 261.2C126.305 261.819 125.564 262.128 124.7 262.128ZM123.548 260.112C123.868 260.432 124.252 260.592 124.7 260.592C125.148 260.592 125.521 260.437 125.82 260.128C126.129 259.808 126.284 259.424 126.284 258.976C126.284 258.528 126.129 258.149 125.82 257.84C125.521 257.52 125.148 257.36 124.7 257.36C124.252 257.36 123.868 257.52 123.548 257.84C123.239 258.16 123.084 258.539 123.084 258.976C123.084 259.413 123.239 259.792 123.548 260.112ZM116.188 256.816C115.313 256.816 114.567 256.507 113.948 255.888C113.34 255.269 113.036 254.528 113.036 253.664C113.036 252.789 113.34 252.048 113.948 251.44C114.567 250.821 115.313 250.512 116.188 250.512C117.052 250.512 117.793 250.821 118.412 251.44C119.031 252.048 119.34 252.789 119.34 253.664C119.34 254.528 119.031 255.269 118.412 255.888C117.793 256.507 117.052 256.816 116.188 256.816ZM116.188 255.28C116.625 255.28 116.999 255.12 117.308 254.8C117.628 254.48 117.788 254.101 117.788 253.664C117.788 253.227 117.628 252.848 117.308 252.528C116.999 252.208 116.625 252.048 116.188 252.048C115.74 252.048 115.361 252.208 115.052 252.528C114.743 252.837 114.588 253.216 114.588 253.664C114.588 254.112 114.743 254.496 115.052 254.816C115.361 255.125 115.74 255.28 116.188 255.28Z" fill="#52E282"/>
</svg>
