<svg width="245" height="525" viewBox="0 0 245 525" fill="none" xmlns="http://www.w3.org/2000/svg">
<path fill-rule="evenodd" clip-rule="evenodd" d="M-216.864 29.1384C-216.44 35.6674 -221.092 41.4202 -227.566 42.5191C-305.806 55.8024 -371.116 78.8529 -413.332 98.9541C-418.708 101.513 -421.402 107.533 -419.901 113.284L-385.599 244.634C-383.974 250.855 -387.288 257.274 -393.251 259.708C-400.963 262.856 -408.6 266.172 -416.154 269.656C-422.521 272.593 -425.097 280.194 -421.986 286.472L-331.852 468.337C-328.741 474.614 -321.126 477.183 -314.71 474.353C-205.815 426.334 -54.3452 431.198 82.1157 506.831C87.6177 509.881 94.5551 508.639 98.4936 503.765L226.544 345.368C230.483 340.495 230.264 333.472 225.889 328.962C199.996 302.271 162.485 269.978 115.147 237.902C109.295 233.936 107.678 226.017 111.616 220.178L183.445 113.656C186.83 108.636 186.19 101.92 181.776 97.7446C148.364 66.1388 96.1597 26.7451 32.845 -5.07233C-32.3449 -37.8329 -117.064 -66.4294 -210.123 -63.5457C-217.143 -63.3282 -222.465 -57.2983 -222.013 -50.3183L-216.864 29.1384Z" fill="url(#paint0_linear_14_1453)" stroke="url(#paint1_linear_14_1453)" stroke-width="2"/>
<g filter="url(#filter0_b_14_1453)">
<path fill-rule="evenodd" clip-rule="evenodd" d="M-291.332 109.646C-290.229 116.095 -294.254 122.303 -300.577 124.072C-377.001 145.461 -439.543 175.212 -479.427 199.616C-484.505 202.723 -486.556 208.992 -484.461 214.554L-436.618 341.599C-434.352 347.616 -436.977 354.346 -442.653 357.39C-449.993 361.327 -457.241 365.423 -464.39 369.678C-470.415 373.264 -472.183 381.093 -468.432 387.011L-359.782 558.458C-356.032 564.376 -348.191 566.135 -342.105 562.65C-238.826 503.511 -87.6775 492.515 55.9417 553.47C61.7323 555.928 68.5018 553.968 71.9094 548.709L182.701 377.795C186.109 372.536 185.157 365.575 180.334 361.547C151.793 337.708 111.113 309.514 60.6813 282.561C54.4463 279.229 52.0112 271.522 55.317 265.304L115.618 151.858C118.46 146.511 117.121 139.899 112.295 136.207C75.7623 108.267 19.7261 74.5461 -46.5676 49.5212C-114.825 23.7543 -202.069 4.17002 -294.317 16.7653C-301.275 17.7153 -305.939 24.2686 -304.759 31.1631L-291.332 109.646Z" fill="#48ACF0"/>
<path fill-rule="evenodd" clip-rule="evenodd" d="M-291.332 109.646C-290.229 116.095 -294.254 122.303 -300.577 124.072C-377.001 145.461 -439.543 175.212 -479.427 199.616C-484.505 202.723 -486.556 208.992 -484.461 214.554L-436.618 341.599C-434.352 347.616 -436.977 354.346 -442.653 357.39C-449.993 361.327 -457.241 365.423 -464.39 369.678C-470.415 373.264 -472.183 381.093 -468.432 387.011L-359.782 558.458C-356.032 564.376 -348.191 566.135 -342.105 562.65C-238.826 503.511 -87.6775 492.515 55.9417 553.47C61.7323 555.928 68.5018 553.968 71.9094 548.709L182.701 377.795C186.109 372.536 185.157 365.575 180.334 361.547C151.793 337.708 111.113 309.514 60.6813 282.561C54.4463 279.229 52.0112 271.522 55.317 265.304L115.618 151.858C118.46 146.511 117.121 139.899 112.295 136.207C75.7623 108.267 19.7261 74.5461 -46.5676 49.5212C-114.825 23.7543 -202.069 4.17002 -294.317 16.7653C-301.275 17.7153 -305.939 24.2686 -304.759 31.1631L-291.332 109.646Z" stroke="url(#paint2_linear_14_1453)" stroke-width="2"/>
</g>
<defs>
<filter id="filter0_b_14_1453" x="-592.274" y="-94.1546" width="884.003" height="765.583" filterUnits="userSpaceOnUse" color-interpolation-filters="sRGB">
<feFlood flood-opacity="0" result="BackgroundImageFix"/>
<feGaussianBlur in="BackgroundImageFix" stdDeviation="53"/>
<feComposite in2="SourceAlpha" operator="in" result="effect1_backgroundBlur_14_1453"/>
<feBlend mode="normal" in="SourceGraphic" in2="effect1_backgroundBlur_14_1453" result="shape"/>
</filter>
<linearGradient id="paint0_linear_14_1453" x1="-216.814" y1="406.282" x2="233.692" y2="303" gradientUnits="userSpaceOnUse">
<stop stop-color="#48ACF0"/>
<stop offset="1" stop-color="#48ACF0" stop-opacity="0"/>
</linearGradient>
<linearGradient id="paint1_linear_14_1453" x1="-26.461" y1="-33.8165" x2="177.179" y2="413.55" gradientUnits="userSpaceOnUse">
<stop stop-color="#48ACF0"/>
<stop offset="1" stop-color="#48ACF0" stop-opacity="0"/>
</linearGradient>
<linearGradient id="paint2_linear_14_1453" x1="91.8682" y1="113" x2="8.36814" y2="703.5" gradientUnits="userSpaceOnUse">
<stop stop-color="#48ACF0"/>
<stop offset="1" stop-color="#48ACF0" stop-opacity="0"/>
</linearGradient>
</defs>
</svg>
