<svg width="260" height="525" viewBox="0 0 260 525" fill="none" xmlns="http://www.w3.org/2000/svg">
<path fill-rule="evenodd" clip-rule="evenodd" d="M455.325 26.8255C454.908 33.2635 459.494 38.936 465.878 40.0196C543.027 53.1177 607.426 75.8467 649.053 95.6676C654.354 98.191 657.011 104.127 655.53 109.798L621.707 239.316C620.105 245.45 623.373 251.78 629.253 254.18C636.857 257.284 644.387 260.553 651.836 263.989C658.114 266.885 660.654 274.38 657.587 280.57L568.71 459.899C565.642 466.089 558.134 468.622 551.807 465.832C444.431 418.482 295.073 423.278 160.515 497.856C155.09 500.864 148.249 499.639 144.365 494.833L18.1011 338.645C14.2167 333.84 14.4327 326.915 18.7472 322.468C44.279 296.149 81.2661 264.307 127.944 232.677C133.715 228.767 135.309 220.958 131.426 215.201L60.5989 110.165C57.2608 105.215 57.8924 98.5921 62.2443 94.475C95.1903 63.31 146.667 24.4656 209.098 -6.90811C273.379 -39.2118 356.917 -67.4095 448.679 -64.566C455.6 -64.3515 460.849 -58.4057 460.403 -51.5231L455.325 26.8255Z" fill="url(#paint0_linear_14_1454)" stroke="url(#paint1_linear_14_1454)" stroke-width="2"/>
<g filter="url(#filter0_b_14_1454)">
<path fill-rule="evenodd" clip-rule="evenodd" d="M543.541 120.997C542.453 127.356 546.421 133.477 552.657 135.222C628.014 156.312 689.685 185.648 729.012 209.712C734.02 212.776 736.042 218.957 733.977 224.442L686.8 349.715C684.566 355.648 687.154 362.285 692.751 365.286C699.989 369.168 707.136 373.207 714.185 377.402C720.126 380.938 721.869 388.658 718.171 394.494L611.036 563.55C607.339 569.385 599.606 571.119 593.606 567.683C491.767 509.369 342.726 498.526 201.11 558.631C195.4 561.055 188.725 559.122 185.365 553.937L76.1184 385.406C72.7576 380.221 73.6963 373.357 78.452 369.385C106.595 345.879 146.708 318.077 196.436 291.5C202.585 288.214 204.986 280.615 201.726 274.484L142.266 162.619C139.464 157.348 140.784 150.827 145.542 147.188C181.566 119.637 236.821 86.3862 302.19 61.7103C369.495 36.3028 455.523 16.9916 546.484 29.4112C553.345 30.348 557.944 36.8098 556.781 43.6082L543.541 120.997Z" fill="#A663CC"/>
<path fill-rule="evenodd" clip-rule="evenodd" d="M543.541 120.997C542.453 127.356 546.421 133.477 552.657 135.222C628.014 156.312 689.685 185.648 729.012 209.712C734.02 212.776 736.042 218.957 733.977 224.442L686.8 349.715C684.566 355.648 687.154 362.285 692.751 365.286C699.989 369.168 707.136 373.207 714.185 377.402C720.126 380.938 721.869 388.658 718.171 394.494L611.036 563.55C607.339 569.385 599.606 571.119 593.606 567.683C491.767 509.369 342.726 498.526 201.11 558.631C195.4 561.055 188.725 559.122 185.365 553.937L76.1184 385.406C72.7576 380.221 73.6963 373.357 78.452 369.385C106.595 345.879 146.708 318.077 196.436 291.5C202.585 288.214 204.986 280.615 201.726 274.484L142.266 162.619C139.464 157.348 140.784 150.827 145.542 147.188C181.566 119.637 236.821 86.3862 302.19 61.7103C369.495 36.3028 455.523 16.9916 546.484 29.4112C553.345 30.348 557.944 36.8098 556.781 43.6082L543.541 120.997Z" stroke="url(#paint2_linear_14_1454)" stroke-width="2"/>
</g>
<defs>
<filter id="filter0_b_14_1454" x="-29.8815" y="-78.454" width="868.659" height="751.891" filterUnits="userSpaceOnUse" color-interpolation-filters="sRGB">
<feFlood flood-opacity="0" result="BackgroundImageFix"/>
<feGaussianBlur in="BackgroundImageFix" stdDeviation="51.5"/>
<feComposite in2="SourceAlpha" operator="in" result="effect1_backgroundBlur_14_1454"/>
<feBlend mode="normal" in="SourceGraphic" in2="effect1_backgroundBlur_14_1454" result="shape"/>
</filter>
<linearGradient id="paint0_linear_14_1454" x1="186.767" y1="331.035" x2="11.0524" y2="296.868" gradientUnits="userSpaceOnUse">
<stop stop-color="#A663CC" stop-opacity="0.6"/>
<stop offset="1" stop-color="#A663CC" stop-opacity="0"/>
</linearGradient>
<linearGradient id="paint1_linear_14_1454" x1="267.577" y1="-35.2514" x2="66.7769" y2="405.876" gradientUnits="userSpaceOnUse">
<stop stop-color="#A663CC"/>
<stop offset="1" stop-color="#A663CC" stop-opacity="0"/>
</linearGradient>
<linearGradient id="paint2_linear_14_1454" x1="229.575" y1="93.5" x2="94.0752" y2="710" gradientUnits="userSpaceOnUse">
<stop stop-color="#A663CC"/>
<stop offset="1" stop-color="#A663CC" stop-opacity="0"/>
</linearGradient>
</defs>
</svg>
