<svg width="119" height="26" viewBox="0 0 119 26" fill="none" xmlns="http://www.w3.org/2000/svg">
<g clip-path="url(#clip0_11_535)">
<path d="M21.6423 16.2333H13.2507L22.1916 7.277C22.2759 7.19252 22.3332 7.08489 22.3566 6.96774C22.3798 6.8506 22.3679 6.72916 22.3223 6.61881C22.2766 6.50846 22.1994 6.41415 22.1003 6.34777C22.0012 6.2814 21.8845 6.24596 21.7654 6.24592H7.56549V0.303672H23.1407C24.2842 0.289729 25.408 0.600829 26.3821 1.20093C27.356 1.80102 28.1403 2.66549 28.6435 3.69401C29.1633 4.79403 29.3303 6.02826 29.1217 7.22717C28.913 8.42609 28.339 9.53086 27.4785 10.3899L21.6423 16.2333Z" fill="#48ACF0"/>
<path d="M7.56593 9.10767H15.9578L7.03488 18.046C6.94916 18.132 6.89081 18.2415 6.86718 18.3607C6.84354 18.4799 6.85573 18.6033 6.90214 18.7155C6.94853 18.8279 7.02704 18.9238 7.12786 18.9913C7.22867 19.0589 7.34725 19.095 7.46854 19.0951H21.6284V25.0373H6.06815C4.92478 25.0512 3.801 24.74 2.82701 24.14C1.85303 23.5399 1.06879 22.6754 0.565374 21.647C0.0457125 20.547 -0.121238 19.3127 0.0874527 18.1138C0.296144 16.9149 0.870289 15.81 1.73095 14.9512L7.56593 9.10767Z" fill="#48ACF0"/>
<path d="M46.8658 24.3635V0.936753H61.4498V5.49013H51.6501V10.3075H59.4701V14.8608H51.6501V19.8102H61.4498V24.3635H46.8658ZM76.2106 24.3635L72.3831 19.5132L68.5557 24.3635H63.1114L69.5125 16.2796L63.2764 7.8658H68.6217L72.3501 12.9141L76.0786 7.8658H81.4569L75.2207 16.2796L81.6219 24.3635H76.2106ZM90.5335 24.7265C88.0038 24.7265 85.9251 23.9126 84.2973 22.2848C82.6916 20.657 81.8887 18.5893 81.8887 16.0817C81.8887 13.618 82.7026 11.5723 84.3303 9.94451C85.9801 8.31674 88.0588 7.50285 90.5665 7.50285C93.0961 7.50285 95.1968 8.37173 96.8686 10.1095C98.5404 11.8253 99.3103 14.1789 99.1783 17.1705H86.3101C86.398 18.2044 86.827 19.0733 87.5969 19.7772C88.3668 20.4591 89.4226 20.8 90.7644 20.8C91.5783 20.8 92.2932 20.646 92.9091 20.3381C93.5471 20.0081 93.998 19.5572 94.262 18.9853H98.9803C98.4964 20.679 97.4845 22.0648 95.9447 23.1427C94.4049 24.1985 92.6012 24.7265 90.5335 24.7265ZM90.4345 11.1653C89.4006 11.1653 88.5317 11.4403 87.8278 11.9902C87.1459 12.5182 86.695 13.2551 86.475 14.2009H94.229C93.987 13.1671 93.5031 12.4082 92.7772 11.9242C92.0733 11.4183 91.2924 11.1653 90.4345 11.1653ZM110.093 24.7265C107.607 24.7265 105.54 23.9016 103.89 22.2518C102.24 20.58 101.415 18.5343 101.415 16.1147C101.415 13.695 102.24 11.6603 103.89 10.0105C105.54 8.33873 107.607 7.50285 110.093 7.50285C112.293 7.50285 114.13 8.11876 115.603 9.35059C117.099 10.5824 118.078 12.1882 118.54 14.1679H113.855C113.129 12.4522 111.875 11.5943 110.093 11.5943C108.883 11.5943 107.893 12.0122 107.123 12.8481C106.354 13.662 105.969 14.7508 105.969 16.1147C105.969 17.4785 106.354 18.5783 107.123 19.4142C107.893 20.2281 108.883 20.635 110.093 20.635C111.875 20.635 113.129 19.7772 113.855 18.0614H118.54C118.078 20.0411 117.099 21.6469 115.603 22.8787C114.13 24.1106 112.293 24.7265 110.093 24.7265Z" fill="#DDDDDD"/>
</g>
<defs>
<clipPath id="clip0_11_535">
<rect width="119" height="25.9636" fill="white" transform="translate(0 0.0180664)"/>
</clipPath>
</defs>
</svg>
