<svg width="525" height="486" viewBox="0 0 525 486" fill="none" xmlns="http://www.w3.org/2000/svg">
<path d="M0 32C0 14.3269 14.3269 0 32 0H493C510.673 0 525 14.3269 525 32V454C525 471.673 510.673 486 493 486H32C14.3269 486 0 471.673 0 454V32Z" fill="#A663CC" fill-opacity="0.3"/>
<path d="M40 -0.5H39.5V0V30.9999C39.5 43.4263 49.5736 53.4999 62 53.4999H463C475.426 53.4999 485.5 43.4263 485.5 30.9999V0V-0.5H485H40Z" stroke="white" stroke-opacity="0.46"/>
<path d="M289 486.5H289.5V486V438C289.5 425.574 279.426 415.5 267 415.5H62C49.5736 415.5 39.5 425.574 39.5 438V486V486.5H40H289Z" stroke="white" stroke-opacity="0.46"/>
</svg>
