<svg width="525" height="486" viewBox="0 0 525 486" fill="none" xmlns="http://www.w3.org/2000/svg">
<g clip-path="url(#clip0_11_132)">
<path d="M0 32C0 14.3269 14.3269 0 32 0H493C510.673 0 525 14.3269 525 32V454C525 471.673 510.673 486 493 486H32C14.3269 486 0 471.673 0 454V32Z" fill="#A663CC" fill-opacity="0.3"/>
<rect x="40" y="87" width="445" height="300" rx="24" fill="white"/>
<rect x="80" y="152" width="365" height="2" fill="#F2F2F2"/>
<rect x="80" y="236" width="365" height="2" fill="#F2F2F2"/>
<rect x="80" y="345" width="365" height="2" fill="#F2F2F2"/>
<rect x="80" y="194" width="365" height="2" fill="#F2F2F2"/>
<rect x="202" y="153" width="194" height="1.99999" transform="rotate(90 202 153)" fill="#F2F2F2"/>
<rect x="324" y="153" width="194" height="1.99999" transform="rotate(90 324 153)" fill="#F2F2F2"/>
<rect x="340" y="166" width="61" height="16" rx="6" fill="#0E0B3D" fill-opacity="0.08"/>
<rect x="80" y="301" width="105" height="32" rx="10" fill="#0E0B3D"/>
<rect x="340" y="208" width="50" height="16" rx="6" fill="#0E0B3D" fill-opacity="0.08"/>
<rect x="218" y="166" width="40" height="16" rx="6" fill="#0E0B3D" fill-opacity="0.08"/>
<rect x="80" y="166" width="58" height="16" rx="6" fill="#0E0B3D" fill-opacity="0.08"/>
<rect x="80" y="208" width="41" height="16" rx="6" fill="#0E0B3D" fill-opacity="0.08"/>
<rect x="218" y="208" width="58" height="16" rx="6" fill="#0E0B3D" fill-opacity="0.08"/>
<path d="M81.128 138V129.48H86.096V130.536H82.244V133.116H85.376V134.172H82.244V136.944H86.096V138H81.128ZM89.9362 138.12C89.1042 138.12 88.4042 137.816 87.8362 137.208C87.2762 136.6 86.9962 135.864 86.9962 135C86.9962 134.136 87.2762 133.4 87.8362 132.792C88.4042 132.184 89.1042 131.88 89.9362 131.88C90.3762 131.88 90.7842 131.98 91.1602 132.18C91.5442 132.372 91.8402 132.62 92.0482 132.924V132H93.0802V138H92.0482V137.076C91.8402 137.38 91.5442 137.632 91.1602 137.832C90.7842 138.024 90.3762 138.12 89.9362 138.12ZM90.0922 137.172C90.6842 137.172 91.1722 136.964 91.5562 136.548C91.9402 136.132 92.1322 135.616 92.1322 135C92.1322 134.384 91.9402 133.868 91.5562 133.452C91.1722 133.036 90.6842 132.828 90.0922 132.828C89.4922 132.828 89.0002 133.036 88.6162 133.452C88.2322 133.868 88.0402 134.384 88.0402 135C88.0402 135.616 88.2322 136.132 88.6162 136.548C89.0002 136.964 89.4922 137.172 90.0922 137.172ZM95.0228 138V132H96.0548V133.164C96.1668 132.796 96.3828 132.5 96.7028 132.276C97.0308 132.052 97.3748 131.94 97.7348 131.94C97.9108 131.94 98.0668 131.956 98.2028 131.988V133.056C98.0588 132.992 97.8708 132.96 97.6388 132.96C97.2228 132.96 96.8548 133.14 96.5348 133.5C96.2148 133.86 96.0548 134.368 96.0548 135.024V138H95.0228ZM99.4173 138V132H100.449V132.924C100.857 132.228 101.493 131.88 102.357 131.88C103.037 131.88 103.585 132.1 104.001 132.54C104.417 132.98 104.625 133.568 104.625 134.304V138H103.605V134.46C103.605 133.956 103.477 133.56 103.221 133.272C102.965 132.976 102.621 132.828 102.189 132.828C101.693 132.828 101.277 133.024 100.941 133.416C100.613 133.808 100.449 134.344 100.449 135.024V138H99.4173ZM107.528 130.188C107.392 130.324 107.22 130.392 107.012 130.392C106.804 130.392 106.628 130.324 106.484 130.188C106.34 130.044 106.268 129.868 106.268 129.66C106.268 129.46 106.34 129.288 106.484 129.144C106.628 129 106.804 128.928 107.012 128.928C107.22 128.928 107.392 129 107.528 129.144C107.664 129.288 107.732 129.46 107.732 129.66C107.732 129.868 107.664 130.044 107.528 130.188ZM106.484 138V132H107.516V138H106.484ZM109.472 138V132H110.504V132.924C110.912 132.228 111.548 131.88 112.412 131.88C113.092 131.88 113.64 132.1 114.056 132.54C114.472 132.98 114.68 133.568 114.68 134.304V138H113.66V134.46C113.66 133.956 113.532 133.56 113.276 133.272C113.02 132.976 112.676 132.828 112.244 132.828C111.748 132.828 111.332 133.024 110.996 133.416C110.668 133.808 110.504 134.344 110.504 135.024V138H109.472ZM119.178 140.628C118.386 140.628 117.726 140.432 117.198 140.04C116.678 139.656 116.37 139.16 116.274 138.552H117.282C117.546 139.328 118.186 139.716 119.202 139.716C119.77 139.716 120.226 139.532 120.57 139.164C120.922 138.804 121.098 138.296 121.098 137.64V136.932C120.882 137.252 120.59 137.508 120.222 137.7C119.854 137.892 119.45 137.988 119.01 137.988C118.17 137.988 117.47 137.696 116.91 137.112C116.35 136.52 116.07 135.792 116.07 134.928C116.07 134.072 116.35 133.352 116.91 132.768C117.478 132.176 118.178 131.88 119.01 131.88C119.45 131.88 119.854 131.976 120.222 132.168C120.59 132.36 120.882 132.612 121.098 132.924V132H122.13V137.628C122.13 138.588 121.85 139.328 121.29 139.848C120.738 140.368 120.034 140.628 119.178 140.628ZM117.69 136.44C118.066 136.832 118.554 137.028 119.154 137.028C119.754 137.028 120.242 136.832 120.618 136.44C120.994 136.04 121.182 135.536 121.182 134.928C121.182 134.32 120.99 133.82 120.606 133.428C120.23 133.028 119.746 132.828 119.154 132.828C118.562 132.828 118.074 133.028 117.69 133.428C117.314 133.82 117.126 134.32 117.126 134.928C117.126 135.536 117.314 136.04 117.69 136.44ZM126.006 138.12C125.334 138.12 124.77 137.956 124.314 137.628C123.866 137.3 123.618 136.844 123.57 136.26H124.626C124.69 136.596 124.85 136.844 125.106 137.004C125.37 137.164 125.674 137.244 126.018 137.244C126.362 137.244 126.638 137.176 126.846 137.04C127.062 136.904 127.17 136.708 127.17 136.452C127.17 136.212 127.09 136.016 126.93 135.864C126.778 135.712 126.526 135.588 126.174 135.492L125.31 135.264C124.278 134.992 123.762 134.404 123.762 133.5C123.762 133.012 123.954 132.62 124.338 132.324C124.73 132.028 125.23 131.88 125.838 131.88C126.454 131.88 126.958 132.044 127.35 132.372C127.75 132.692 127.974 133.1 128.022 133.596H126.99C126.91 133.332 126.766 133.124 126.558 132.972C126.358 132.82 126.118 132.744 125.838 132.744C125.542 132.744 125.294 132.812 125.094 132.948C124.902 133.084 124.806 133.264 124.806 133.488C124.806 133.704 124.878 133.88 125.022 134.016C125.166 134.152 125.398 134.264 125.718 134.352L126.678 134.604C127.702 134.86 128.214 135.452 128.214 136.38C128.214 136.956 128.01 137.392 127.602 137.688C127.194 137.976 126.662 138.12 126.006 138.12Z" fill="#0E0B3D"/>
<path d="M219.128 138V129.48H221.576C222.88 129.48 223.96 129.884 224.816 130.692C225.68 131.5 226.112 132.516 226.112 133.74C226.112 134.964 225.68 135.98 224.816 136.788C223.96 137.596 222.88 138 221.576 138H219.128ZM220.244 136.956H221.576C222.592 136.956 223.412 136.656 224.036 136.056C224.668 135.448 224.984 134.676 224.984 133.74C224.984 132.804 224.668 132.036 224.036 131.436C223.412 130.828 222.592 130.524 221.576 130.524H220.244V136.956ZM230.176 138.12C229.304 138.12 228.58 137.824 228.004 137.232C227.436 136.64 227.152 135.896 227.152 135C227.152 134.096 227.428 133.352 227.98 132.768C228.54 132.176 229.28 131.88 230.2 131.88C231.128 131.88 231.856 132.208 232.384 132.864C232.912 133.52 233.144 134.324 233.08 135.276H228.196C228.212 135.82 228.412 136.276 228.796 136.644C229.18 137.004 229.644 137.184 230.188 137.184C231.004 137.184 231.584 136.848 231.928 136.176H232.984C232.832 136.736 232.508 137.2 232.012 137.568C231.516 137.936 230.904 138.12 230.176 138.12ZM231.352 133.224C231.024 132.936 230.628 132.792 230.164 132.792C229.7 132.792 229.284 132.932 228.916 133.212C228.556 133.492 228.332 133.908 228.244 134.46H231.988C231.892 133.916 231.68 133.504 231.352 133.224ZM237.042 138.12C236.21 138.12 235.51 137.816 234.942 137.208C234.382 136.6 234.102 135.864 234.102 135C234.102 134.136 234.382 133.4 234.942 132.792C235.51 132.184 236.21 131.88 237.042 131.88C237.482 131.88 237.89 131.98 238.266 132.18C238.65 132.372 238.946 132.62 239.154 132.924V129H240.186V138H239.154V137.076C238.946 137.38 238.65 137.632 238.266 137.832C237.89 138.024 237.482 138.12 237.042 138.12ZM237.198 137.172C237.79 137.172 238.278 136.964 238.662 136.548C239.046 136.132 239.238 135.616 239.238 135C239.238 134.384 239.046 133.868 238.662 133.452C238.278 133.036 237.79 132.828 237.198 132.828C236.598 132.828 236.106 133.036 235.722 133.452C235.338 133.868 235.146 134.384 235.146 135C235.146 135.616 235.338 136.132 235.722 136.548C236.106 136.964 236.598 137.172 237.198 137.172ZM244.252 138.12C243.596 138.12 243.064 137.9 242.656 137.46C242.248 137.012 242.044 136.42 242.044 135.684V132H243.076V135.528C243.076 136.032 243.196 136.432 243.436 136.728C243.684 137.024 244.016 137.172 244.432 137.172C244.912 137.172 245.308 136.976 245.62 136.584C245.94 136.184 246.1 135.648 246.1 134.976V132H247.132V138H246.1V137.076C245.708 137.772 245.092 138.12 244.252 138.12ZM251.741 138.12C250.837 138.12 250.089 137.82 249.497 137.22C248.905 136.612 248.609 135.872 248.609 135C248.609 134.128 248.905 133.392 249.497 132.792C250.089 132.184 250.837 131.88 251.741 131.88C252.485 131.88 253.129 132.088 253.673 132.504C254.217 132.912 254.581 133.448 254.765 134.112H253.661C253.517 133.72 253.277 133.408 252.941 133.176C252.605 132.944 252.205 132.828 251.741 132.828C251.125 132.828 250.621 133.036 250.229 133.452C249.845 133.868 249.653 134.384 249.653 135C249.653 135.616 249.845 136.132 250.229 136.548C250.621 136.964 251.125 137.172 251.741 137.172C252.205 137.172 252.605 137.056 252.941 136.824C253.277 136.592 253.517 136.28 253.661 135.888H254.765C254.589 136.552 254.229 137.092 253.685 137.508C253.141 137.916 252.493 138.12 251.741 138.12ZM258.402 138.06C257.85 138.06 257.406 137.904 257.07 137.592C256.734 137.28 256.566 136.824 256.566 136.224V132.948H255.294V132H256.566V130.332H257.598V132H259.326V132.948H257.598V136.092C257.598 136.468 257.678 136.732 257.838 136.884C257.998 137.036 258.25 137.112 258.594 137.112C258.898 137.112 259.142 137.072 259.326 136.992V137.916C259.038 138.012 258.73 138.06 258.402 138.06ZM261.688 130.188C261.552 130.324 261.38 130.392 261.172 130.392C260.964 130.392 260.788 130.324 260.644 130.188C260.5 130.044 260.428 129.868 260.428 129.66C260.428 129.46 260.5 129.288 260.644 129.144C260.788 129 260.964 128.928 261.172 128.928C261.38 128.928 261.552 129 261.688 129.144C261.824 129.288 261.892 129.46 261.892 129.66C261.892 129.868 261.824 130.044 261.688 130.188ZM260.644 138V132H261.676V138H260.644ZM266.296 138.12C265.392 138.12 264.64 137.82 264.04 137.22C263.448 136.612 263.152 135.872 263.152 135C263.152 134.128 263.448 133.392 264.04 132.792C264.64 132.184 265.392 131.88 266.296 131.88C267.192 131.88 267.936 132.184 268.528 132.792C269.128 133.392 269.428 134.128 269.428 135C269.428 135.872 269.128 136.612 268.528 137.22C267.936 137.82 267.192 138.12 266.296 138.12ZM264.784 136.536C265.176 136.952 265.68 137.16 266.296 137.16C266.912 137.16 267.412 136.952 267.796 136.536C268.18 136.12 268.372 135.608 268.372 135C268.372 134.392 268.18 133.88 267.796 133.464C267.412 133.048 266.912 132.84 266.296 132.84C265.68 132.84 265.176 133.048 264.784 133.464C264.4 133.88 264.208 134.392 264.208 135C264.208 135.608 264.4 136.12 264.784 136.536ZM270.91 138V132H271.942V132.924C272.35 132.228 272.986 131.88 273.85 131.88C274.53 131.88 275.078 132.1 275.494 132.54C275.91 132.98 276.118 133.568 276.118 134.304V138H275.098V134.46C275.098 133.956 274.97 133.56 274.714 133.272C274.458 132.976 274.114 132.828 273.682 132.828C273.186 132.828 272.77 133.024 272.434 133.416C272.106 133.808 271.942 134.344 271.942 135.024V138H270.91ZM279.908 138.12C279.236 138.12 278.672 137.956 278.216 137.628C277.768 137.3 277.52 136.844 277.472 136.26H278.528C278.592 136.596 278.752 136.844 279.008 137.004C279.272 137.164 279.576 137.244 279.92 137.244C280.264 137.244 280.54 137.176 280.748 137.04C280.964 136.904 281.072 136.708 281.072 136.452C281.072 136.212 280.992 136.016 280.832 135.864C280.68 135.712 280.428 135.588 280.076 135.492L279.212 135.264C278.18 134.992 277.664 134.404 277.664 133.5C277.664 133.012 277.856 132.62 278.24 132.324C278.632 132.028 279.132 131.88 279.74 131.88C280.356 131.88 280.86 132.044 281.252 132.372C281.652 132.692 281.876 133.1 281.924 133.596H280.892C280.812 133.332 280.668 133.124 280.46 132.972C280.26 132.82 280.02 132.744 279.74 132.744C279.444 132.744 279.196 132.812 278.996 132.948C278.804 133.084 278.708 133.264 278.708 133.488C278.708 133.704 278.78 133.88 278.924 134.016C279.068 134.152 279.3 134.264 279.62 134.352L280.58 134.604C281.604 134.86 282.116 135.452 282.116 136.38C282.116 136.956 281.912 137.392 281.504 137.688C281.096 137.976 280.564 138.12 279.908 138.12Z" fill="#0E0B3D"/>
<path d="M340.072 138L343.84 129.48H344.764L348.544 138H347.38L346.276 135.516H342.304L341.224 138H340.072ZM344.284 130.992L342.748 134.508H345.832L344.284 130.992ZM357.313 138V134.472C357.313 133.976 357.209 133.58 357.001 133.284C356.801 132.98 356.509 132.828 356.125 132.828C355.645 132.828 355.253 133.016 354.949 133.392C354.653 133.768 354.497 134.28 354.481 134.928V138H353.449V134.472C353.449 133.968 353.345 133.568 353.137 133.272C352.937 132.976 352.649 132.828 352.273 132.828C351.777 132.828 351.377 133.028 351.073 133.428C350.769 133.82 350.617 134.352 350.617 135.024V138H349.585V132H350.617V132.924C351.001 132.228 351.605 131.88 352.429 131.88C353.341 131.88 353.957 132.308 354.277 133.164C354.437 132.772 354.693 132.46 355.045 132.228C355.397 131.996 355.797 131.88 356.245 131.88C356.893 131.88 357.405 132.1 357.781 132.54C358.157 132.98 358.345 133.572 358.345 134.316V138H357.313ZM362.866 138.12C361.962 138.12 361.21 137.82 360.61 137.22C360.018 136.612 359.722 135.872 359.722 135C359.722 134.128 360.018 133.392 360.61 132.792C361.21 132.184 361.962 131.88 362.866 131.88C363.762 131.88 364.506 132.184 365.098 132.792C365.698 133.392 365.998 134.128 365.998 135C365.998 135.872 365.698 136.612 365.098 137.22C364.506 137.82 363.762 138.12 362.866 138.12ZM361.354 136.536C361.746 136.952 362.25 137.16 362.866 137.16C363.482 137.16 363.982 136.952 364.366 136.536C364.75 136.12 364.942 135.608 364.942 135C364.942 134.392 364.75 133.88 364.366 133.464C363.982 133.048 363.482 132.84 362.866 132.84C362.25 132.84 361.746 133.048 361.354 133.464C360.97 133.88 360.778 134.392 360.778 135C360.778 135.608 360.97 136.12 361.354 136.536ZM369.604 138.12C368.948 138.12 368.416 137.9 368.008 137.46C367.6 137.012 367.396 136.42 367.396 135.684V132H368.428V135.528C368.428 136.032 368.548 136.432 368.788 136.728C369.036 137.024 369.368 137.172 369.784 137.172C370.264 137.172 370.66 136.976 370.972 136.584C371.292 136.184 371.452 135.648 371.452 134.976V132H372.484V138H371.452V137.076C371.06 137.772 370.444 138.12 369.604 138.12ZM374.429 138V132H375.461V132.924C375.869 132.228 376.505 131.88 377.369 131.88C378.049 131.88 378.597 132.1 379.013 132.54C379.429 132.98 379.637 133.568 379.637 134.304V138H378.617V134.46C378.617 133.956 378.489 133.56 378.233 133.272C377.977 132.976 377.633 132.828 377.201 132.828C376.705 132.828 376.289 133.024 375.953 133.416C375.625 133.808 375.461 134.344 375.461 135.024V138H374.429ZM383.753 138.06C383.201 138.06 382.757 137.904 382.421 137.592C382.085 137.28 381.917 136.824 381.917 136.224V132.948H380.645V132H381.917V130.332H382.949V132H384.677V132.948H382.949V136.092C382.949 136.468 383.029 136.732 383.189 136.884C383.349 137.036 383.601 137.112 383.945 137.112C384.249 137.112 384.493 137.072 384.677 136.992V137.916C384.389 138.012 384.081 138.06 383.753 138.06Z" fill="#0E0B3D"/>
<g filter="url(#filter0_d_11_132)">
<path d="M501 190.92C501 177.931 501 171.437 498.553 166.441C496.209 161.658 492.342 157.791 487.559 155.447C482.563 153 476.069 153 463.08 153H351.92C338.931 153 332.437 153 327.441 155.447C322.658 157.791 318.791 161.658 316.447 166.441C314 171.437 314 177.931 314 190.92V192.148C314 195.537 314 197.231 313.663 198.846C313.339 200.403 312.784 201.903 312.017 203.296C311.222 204.741 310.119 206.028 307.914 208.6L307.288 209.33C305.451 211.473 304.533 212.545 304.166 213.741C303.815 214.887 303.815 216.113 304.166 217.259C304.533 218.455 305.451 219.527 307.288 221.67L307.914 222.4C310.119 224.972 311.222 226.259 312.017 227.704C312.784 229.097 313.339 230.597 313.663 232.154C314 233.769 314 235.463 314 238.852V415.08C314 428.069 314 434.563 316.447 439.559C318.791 444.342 322.658 448.209 327.441 450.553C332.437 453 338.931 453 351.92 453H463.08C476.069 453 482.563 453 487.559 450.553C492.342 448.209 496.209 444.342 498.553 439.559C501 434.563 501 428.069 501 415.08V190.92Z" fill="#0E0B3D"/>
</g>
<rect x="333" y="172" width="147" height="81" rx="11" fill="white"/>
<path d="M369.616 199.008V197.664H371.2C370.832 196.496 370.648 195.504 370.648 194.688C370.648 193.344 371.136 192.176 372.112 191.184C373.088 190.176 374.336 189.672 375.856 189.672C377.376 189.672 378.632 190.2 379.624 191.256C380.632 192.296 381.152 193.544 381.184 195H378.544C378.544 194.248 378.288 193.608 377.776 193.08C377.28 192.536 376.64 192.264 375.856 192.264C375.104 192.264 374.488 192.504 374.008 192.984C373.528 193.448 373.288 194.064 373.288 194.832C373.288 195.616 373.496 196.56 373.912 197.664H378.28V199.008H374.368C374.704 200.048 374.872 200.96 374.872 201.744C374.872 202.672 374.616 203.56 374.104 204.408H381.184V207H369.616V204.408H371.44C371.984 203.656 372.256 202.808 372.256 201.864C372.256 201.16 372.048 200.208 371.632 199.008H369.616ZM394.389 204.408V207H383.109V206.04C383.109 205.432 383.197 204.856 383.373 204.312C383.565 203.752 383.765 203.288 383.973 202.92C384.181 202.552 384.525 202.144 385.005 201.696C385.485 201.232 385.853 200.904 386.109 200.712C386.365 200.504 386.813 200.168 387.453 199.704C388.109 199.24 388.525 198.944 388.701 198.816C389.709 198.08 390.437 197.432 390.885 196.872C391.333 196.312 391.557 195.64 391.557 194.856C391.557 194.072 391.317 193.448 390.837 192.984C390.357 192.504 389.693 192.264 388.845 192.264C387.965 192.264 387.237 192.528 386.661 193.056C386.085 193.568 385.789 194.272 385.773 195.168H383.109C383.109 193.552 383.653 192.232 384.741 191.208C385.845 190.184 387.221 189.672 388.869 189.672C390.389 189.672 391.661 190.12 392.685 191.016C393.709 191.912 394.221 193.168 394.221 194.784C394.221 196.064 393.925 197.144 393.333 198.024C392.757 198.888 391.797 199.8 390.453 200.76C390.245 200.92 389.861 201.192 389.301 201.576C388.741 201.96 388.325 202.256 388.053 202.464C387.797 202.672 387.517 202.96 387.213 203.328C386.909 203.68 386.701 204.04 386.589 204.408H394.389ZM400.207 206.4L397.639 210.528H396.007L397.663 207C397.327 206.856 397.047 206.616 396.823 206.28C396.599 205.928 396.487 205.536 396.487 205.104C396.487 204.528 396.687 204.04 397.087 203.64C397.487 203.224 397.975 203.016 398.551 203.016C399.127 203.016 399.615 203.224 400.015 203.64C400.415 204.04 400.615 204.528 400.615 205.104C400.615 205.568 400.479 206 400.207 206.4ZM410.733 207V202.728H401.925V200.592L411.021 189.96H413.373V200.28H415.653V202.728H413.373V207H410.733ZM405.237 200.28H410.733V193.896L405.237 200.28ZM428.59 204.408V207H417.31V206.04C417.31 205.432 417.398 204.856 417.574 204.312C417.766 203.752 417.966 203.288 418.174 202.92C418.382 202.552 418.726 202.144 419.206 201.696C419.686 201.232 420.054 200.904 420.31 200.712C420.566 200.504 421.014 200.168 421.654 199.704C422.31 199.24 422.726 198.944 422.902 198.816C423.91 198.08 424.638 197.432 425.086 196.872C425.534 196.312 425.758 195.64 425.758 194.856C425.758 194.072 425.518 193.448 425.038 192.984C424.558 192.504 423.894 192.264 423.046 192.264C422.166 192.264 421.438 192.528 420.862 193.056C420.286 193.568 419.99 194.272 419.974 195.168H417.31C417.31 193.552 417.854 192.232 418.942 191.208C420.046 190.184 421.422 189.672 423.07 189.672C424.59 189.672 425.862 190.12 426.886 191.016C427.91 191.912 428.422 193.168 428.422 194.784C428.422 196.064 428.126 197.144 427.534 198.024C426.958 198.888 425.998 199.8 424.654 200.76C424.446 200.92 424.062 201.192 423.502 201.576C422.942 201.96 422.526 202.256 422.254 202.464C421.998 202.672 421.718 202.96 421.414 203.328C421.11 203.68 420.902 204.04 420.79 204.408H428.59ZM441.489 205.416C440.337 206.632 438.857 207.24 437.049 207.24C435.241 207.24 433.761 206.632 432.609 205.416C431.457 204.184 430.881 202.608 430.881 200.688V196.224C430.881 194.304 431.457 192.736 432.609 191.52C433.761 190.288 435.241 189.672 437.049 189.672C438.857 189.672 440.337 190.288 441.489 191.52C442.657 192.736 443.241 194.304 443.241 196.224V200.688C443.241 202.608 442.657 204.184 441.489 205.416ZM437.049 204.648C438.121 204.648 438.977 204.296 439.617 203.592C440.273 202.888 440.601 201.92 440.601 200.688V196.224C440.601 194.992 440.273 194.024 439.617 193.32C438.977 192.616 438.121 192.264 437.049 192.264C435.993 192.264 435.137 192.616 434.481 193.32C433.841 194.024 433.521 194.992 433.521 196.224V200.688C433.521 201.92 433.841 202.888 434.481 203.592C435.137 204.296 435.993 204.648 437.049 204.648Z" fill="#0E0B3D"/>
<path d="M387.7 231.3L394.3 224.7M394.3 224.7H387.7M394.3 224.7V231.3" stroke="#52E282" stroke-width="1.5" stroke-linecap="round" stroke-linejoin="round"/>
<path d="M404.893 234V224.384H402.605L403.949 222.64H406.653V234H404.893ZM412.68 234.16C411.549 234.16 410.616 233.824 409.88 233.152C409.144 232.469 408.776 231.605 408.776 230.56C408.776 229.237 409.315 228.283 410.392 227.696C409.688 227.152 409.336 226.4 409.336 225.44C409.336 224.576 409.645 223.861 410.264 223.296C410.893 222.731 411.699 222.448 412.68 222.448C413.672 222.448 414.477 222.731 415.096 223.296C415.725 223.851 416.04 224.565 416.04 225.44C416.04 226.4 415.688 227.152 414.984 227.696C416.061 228.283 416.6 229.237 416.6 230.56C416.6 231.616 416.232 232.48 415.496 233.152C414.771 233.824 413.832 234.16 412.68 234.16ZM412.68 232.512C413.331 232.512 413.848 232.32 414.232 231.936C414.616 231.552 414.808 231.083 414.808 230.528C414.808 229.963 414.616 229.493 414.232 229.12C413.848 228.736 413.336 228.544 412.696 228.544C412.045 228.544 411.528 228.736 411.144 229.12C410.76 229.493 410.568 229.963 410.568 230.528C410.568 231.083 410.76 231.552 411.144 231.936C411.539 232.32 412.051 232.512 412.68 232.512ZM412.68 227.056C413.171 227.056 413.565 226.912 413.864 226.624C414.173 226.325 414.328 225.968 414.328 225.552C414.328 225.115 414.179 224.757 413.88 224.48C413.581 224.192 413.181 224.048 412.68 224.048C412.2 224.048 411.805 224.192 411.496 224.48C411.197 224.768 411.048 225.125 411.048 225.552C411.048 225.968 411.203 226.325 411.512 226.624C411.821 226.912 412.211 227.056 412.68 227.056ZM422.538 234H420.682L427.882 222.64H429.738L422.538 234ZM429.466 234.128C428.591 234.128 427.844 233.819 427.226 233.2C426.618 232.581 426.314 231.84 426.314 230.976C426.314 230.101 426.618 229.36 427.226 228.752C427.844 228.133 428.591 227.824 429.466 227.824C430.33 227.824 431.071 228.133 431.69 228.752C432.308 229.36 432.618 230.101 432.618 230.976C432.618 231.84 432.308 232.581 431.69 233.2C431.071 233.819 430.33 234.128 429.466 234.128ZM428.314 232.112C428.634 232.432 429.018 232.592 429.466 232.592C429.914 232.592 430.287 232.437 430.586 232.128C430.895 231.808 431.05 231.424 431.05 230.976C431.05 230.528 430.895 230.149 430.586 229.84C430.287 229.52 429.914 229.36 429.466 229.36C429.018 229.36 428.634 229.52 428.314 229.84C428.004 230.16 427.85 230.539 427.85 230.976C427.85 231.413 428.004 231.792 428.314 232.112ZM420.954 228.816C420.079 228.816 419.332 228.507 418.714 227.888C418.106 227.269 417.802 226.528 417.802 225.664C417.802 224.789 418.106 224.048 418.714 223.44C419.332 222.821 420.079 222.512 420.954 222.512C421.818 222.512 422.559 222.821 423.178 223.44C423.796 224.048 424.106 224.789 424.106 225.664C424.106 226.528 423.796 227.269 423.178 227.888C422.559 228.507 421.818 228.816 420.954 228.816ZM420.954 227.28C421.391 227.28 421.764 227.12 422.074 226.8C422.394 226.48 422.554 226.101 422.554 225.664C422.554 225.227 422.394 224.848 422.074 224.528C421.764 224.208 421.391 224.048 420.954 224.048C420.506 224.048 420.127 224.208 419.818 224.528C419.508 224.837 419.354 225.216 419.354 225.664C419.354 226.112 419.508 226.496 419.818 226.816C420.127 227.125 420.506 227.28 420.954 227.28Z" fill="#52E282"/>
<rect x="333" y="262.5" width="147" height="81" rx="11" fill="white"/>
<path d="M393.776 294.908V297.5H382.496V296.54C382.496 295.932 382.584 295.356 382.76 294.812C382.952 294.252 383.152 293.788 383.36 293.42C383.568 293.052 383.912 292.644 384.392 292.196C384.872 291.732 385.24 291.404 385.496 291.212C385.752 291.004 386.2 290.668 386.84 290.204C387.496 289.74 387.912 289.444 388.088 289.316C389.096 288.58 389.824 287.932 390.272 287.372C390.72 286.812 390.944 286.14 390.944 285.356C390.944 284.572 390.704 283.948 390.224 283.484C389.744 283.004 389.08 282.764 388.232 282.764C387.352 282.764 386.624 283.028 386.048 283.556C385.472 284.068 385.176 284.772 385.16 285.668H382.496C382.496 284.052 383.04 282.732 384.128 281.708C385.232 280.684 386.608 280.172 388.256 280.172C389.776 280.172 391.048 280.62 392.072 281.516C393.096 282.412 393.608 283.668 393.608 285.284C393.608 286.564 393.312 287.644 392.72 288.524C392.144 289.388 391.184 290.3 389.84 291.26C389.632 291.42 389.248 291.692 388.688 292.076C388.128 292.46 387.712 292.756 387.44 292.964C387.184 293.172 386.904 293.46 386.6 293.828C386.296 294.18 386.088 294.54 385.976 294.908H393.776ZM405.525 296.108C404.437 297.196 403.037 297.74 401.325 297.74C399.613 297.74 398.213 297.196 397.125 296.108C396.037 295.004 395.493 293.636 395.493 292.004C395.493 291.22 395.645 290.5 395.949 289.844C396.269 289.188 396.757 288.436 397.413 287.588L403.101 280.46H406.413L401.613 286.508H401.877C403.269 286.508 404.501 287.036 405.573 288.092C406.645 289.132 407.181 290.428 407.181 291.98C407.181 293.628 406.629 295.004 405.525 296.108ZM399.045 294.284C399.653 294.892 400.413 295.196 401.325 295.196C402.237 295.196 402.997 294.892 403.605 294.284C404.213 293.66 404.517 292.9 404.517 292.004C404.517 291.124 404.205 290.372 403.581 289.748C402.973 289.124 402.221 288.812 401.325 288.812C400.429 288.812 399.677 289.124 399.069 289.748C398.461 290.372 398.157 291.124 398.157 292.004C398.157 292.9 398.453 293.66 399.045 294.284ZM415.76 297.5H412.976L423.776 280.46H426.56L415.76 297.5ZM426.152 297.692C424.84 297.692 423.72 297.228 422.792 296.3C421.88 295.372 421.424 294.26 421.424 292.964C421.424 291.652 421.88 290.54 422.792 289.628C423.72 288.7 424.84 288.236 426.152 288.236C427.448 288.236 428.56 288.7 429.488 289.628C430.416 290.54 430.88 291.652 430.88 292.964C430.88 294.26 430.416 295.372 429.488 296.3C428.56 297.228 427.448 297.692 426.152 297.692ZM424.424 294.668C424.904 295.148 425.48 295.388 426.152 295.388C426.824 295.388 427.384 295.156 427.832 294.692C428.296 294.212 428.528 293.636 428.528 292.964C428.528 292.292 428.296 291.724 427.832 291.26C427.384 290.78 426.824 290.54 426.152 290.54C425.48 290.54 424.904 290.78 424.424 291.26C423.96 291.74 423.728 292.308 423.728 292.964C423.728 293.62 423.96 294.188 424.424 294.668ZM413.384 289.724C412.072 289.724 410.952 289.26 410.024 288.332C409.112 287.404 408.656 286.292 408.656 284.996C408.656 283.684 409.112 282.572 410.024 281.66C410.952 280.732 412.072 280.268 413.384 280.268C414.68 280.268 415.792 280.732 416.72 281.66C417.648 282.572 418.112 283.684 418.112 284.996C418.112 286.292 417.648 287.404 416.72 288.332C415.792 289.26 414.68 289.724 413.384 289.724ZM413.384 287.42C414.04 287.42 414.6 287.18 415.064 286.7C415.544 286.22 415.784 285.652 415.784 284.996C415.784 284.34 415.544 283.772 415.064 283.292C414.6 282.812 414.04 282.572 413.384 282.572C412.712 282.572 412.144 282.812 411.68 283.292C411.216 283.756 410.984 284.324 410.984 284.996C410.984 285.668 411.216 286.244 411.68 286.724C412.144 287.188 412.712 287.42 413.384 287.42Z" fill="#0E0B3D"/>
<path d="M390.2 321.8L396.8 315.2M396.8 315.2H390.2M396.8 315.2V321.8" stroke="#FB9DB6" stroke-width="1.5" stroke-linecap="round" stroke-linejoin="round"/>
<path d="M411.059 324.5V321.652H405.187V320.228L411.251 313.14H412.819V320.02H414.339V321.652H412.819V324.5H411.059ZM407.395 320.02H411.059V315.764L407.395 320.02ZM420.147 324.5H418.291L425.491 313.14H427.347L420.147 324.5ZM427.075 324.628C426.2 324.628 425.454 324.319 424.835 323.7C424.227 323.081 423.923 322.34 423.923 321.476C423.923 320.601 424.227 319.86 424.835 319.252C425.454 318.633 426.2 318.324 427.075 318.324C427.939 318.324 428.68 318.633 429.299 319.252C429.918 319.86 430.227 320.601 430.227 321.476C430.227 322.34 429.918 323.081 429.299 323.7C428.68 324.319 427.939 324.628 427.075 324.628ZM425.923 322.612C426.243 322.932 426.627 323.092 427.075 323.092C427.523 323.092 427.896 322.937 428.195 322.628C428.504 322.308 428.659 321.924 428.659 321.476C428.659 321.028 428.504 320.649 428.195 320.34C427.896 320.02 427.523 319.86 427.075 319.86C426.627 319.86 426.243 320.02 425.923 320.34C425.614 320.66 425.459 321.039 425.459 321.476C425.459 321.913 425.614 322.292 425.923 322.612ZM418.563 319.316C417.688 319.316 416.942 319.007 416.323 318.388C415.715 317.769 415.411 317.028 415.411 316.164C415.411 315.289 415.715 314.548 416.323 313.94C416.942 313.321 417.688 313.012 418.563 313.012C419.427 313.012 420.168 313.321 420.787 313.94C421.406 314.548 421.715 315.289 421.715 316.164C421.715 317.028 421.406 317.769 420.787 318.388C420.168 319.007 419.427 319.316 418.563 319.316ZM418.563 317.78C419 317.78 419.374 317.62 419.683 317.3C420.003 316.98 420.163 316.601 420.163 316.164C420.163 315.727 420.003 315.348 419.683 315.028C419.374 314.708 419 314.548 418.563 314.548C418.115 314.548 417.736 314.708 417.427 315.028C417.118 315.337 416.963 315.716 416.963 316.164C416.963 316.612 417.118 316.996 417.427 317.316C417.736 317.625 418.115 317.78 418.563 317.78Z" fill="#FB9DB6"/>
<rect x="333" y="353" width="147" height="81" rx="11" fill="white"/>
<path d="M381.786 380.008V378.664H383.37C383.002 377.496 382.818 376.504 382.818 375.688C382.818 374.344 383.306 373.176 384.282 372.184C385.258 371.176 386.506 370.672 388.026 370.672C389.546 370.672 390.802 371.2 391.794 372.256C392.802 373.296 393.322 374.544 393.354 376H390.714C390.714 375.248 390.458 374.608 389.946 374.08C389.45 373.536 388.81 373.264 388.026 373.264C387.274 373.264 386.658 373.504 386.178 373.984C385.698 374.448 385.458 375.064 385.458 375.832C385.458 376.616 385.666 377.56 386.082 378.664H390.45V380.008H386.538C386.874 381.048 387.042 381.96 387.042 382.744C387.042 383.672 386.786 384.56 386.274 385.408H393.354V388H381.786V385.408H383.61C384.154 384.656 384.426 383.808 384.426 382.864C384.426 382.16 384.218 381.208 383.802 380.008H381.786ZM398.447 388H395.471L403.295 373.528H394.919V370.96H406.439V373.216L398.447 388ZM416.081 386.608C414.993 387.696 413.593 388.24 411.881 388.24C410.169 388.24 408.769 387.696 407.681 386.608C406.593 385.504 406.049 384.136 406.049 382.504C406.049 381.72 406.201 381 406.505 380.344C406.825 379.688 407.313 378.936 407.969 378.088L413.657 370.96H416.969L412.169 377.008H412.433C413.825 377.008 415.057 377.536 416.129 378.592C417.201 379.632 417.737 380.928 417.737 382.48C417.737 384.128 417.185 385.504 416.081 386.608ZM409.601 384.784C410.209 385.392 410.969 385.696 411.881 385.696C412.793 385.696 413.553 385.392 414.161 384.784C414.769 384.16 415.073 383.4 415.073 382.504C415.073 381.624 414.761 380.872 414.137 380.248C413.529 379.624 412.777 379.312 411.881 379.312C410.985 379.312 410.233 379.624 409.625 380.248C409.017 380.872 408.713 381.624 408.713 382.504C408.713 383.4 409.009 384.16 409.601 384.784ZM425.428 388.24C423.732 388.24 422.332 387.736 421.228 386.728C420.124 385.704 419.572 384.408 419.572 382.84C419.572 380.856 420.38 379.424 421.996 378.544C420.94 377.728 420.412 376.6 420.412 375.16C420.412 373.864 420.876 372.792 421.804 371.944C422.748 371.096 423.956 370.672 425.428 370.672C426.916 370.672 428.124 371.096 429.052 371.944C429.996 372.776 430.468 373.848 430.468 375.16C430.468 376.6 429.94 377.728 428.884 378.544C430.5 379.424 431.308 380.856 431.308 382.84C431.308 384.424 430.756 385.72 429.652 386.728C428.564 387.736 427.156 388.24 425.428 388.24ZM425.428 385.768C426.404 385.768 427.18 385.48 427.756 384.904C428.332 384.328 428.62 383.624 428.62 382.792C428.62 381.944 428.332 381.24 427.756 380.68C427.18 380.104 426.412 379.816 425.452 379.816C424.476 379.816 423.7 380.104 423.124 380.68C422.548 381.24 422.26 381.944 422.26 382.792C422.26 383.624 422.548 384.328 423.124 384.904C423.716 385.48 424.484 385.768 425.428 385.768ZM425.428 377.584C426.164 377.584 426.756 377.368 427.204 376.936C427.668 376.488 427.9 375.952 427.9 375.328C427.9 374.672 427.676 374.136 427.228 373.72C426.78 373.288 426.18 373.072 425.428 373.072C424.708 373.072 424.116 373.288 423.652 373.72C423.204 374.152 422.98 374.688 422.98 375.328C422.98 375.952 423.212 376.488 423.676 376.936C424.14 377.368 424.724 377.584 425.428 377.584Z" fill="#0E0B3D"/>
<path d="M390.2 405.7L396.8 412.3M396.8 412.3V405.7M396.8 412.3H390.2" stroke="#52E282" stroke-width="1.5" stroke-linecap="round" stroke-linejoin="round"/>
<path d="M409.914 415.16C408.784 415.16 407.85 414.824 407.114 414.152C406.378 413.469 406.01 412.605 406.01 411.56C406.01 410.237 406.549 409.283 407.626 408.696C406.922 408.152 406.57 407.4 406.57 406.44C406.57 405.576 406.88 404.861 407.498 404.296C408.128 403.731 408.933 403.448 409.914 403.448C410.906 403.448 411.712 403.731 412.33 404.296C412.96 404.851 413.274 405.565 413.274 406.44C413.274 407.4 412.922 408.152 412.218 408.696C413.296 409.283 413.834 410.237 413.834 411.56C413.834 412.616 413.466 413.48 412.73 414.152C412.005 414.824 411.066 415.16 409.914 415.16ZM409.914 413.512C410.565 413.512 411.082 413.32 411.466 412.936C411.85 412.552 412.042 412.083 412.042 411.528C412.042 410.963 411.85 410.493 411.466 410.12C411.082 409.736 410.57 409.544 409.93 409.544C409.28 409.544 408.762 409.736 408.378 410.12C407.994 410.493 407.802 410.963 407.802 411.528C407.802 412.083 407.994 412.552 408.378 412.936C408.773 413.32 409.285 413.512 409.914 413.512ZM409.914 408.056C410.405 408.056 410.8 407.912 411.098 407.624C411.408 407.325 411.562 406.968 411.562 406.552C411.562 406.115 411.413 405.757 411.114 405.48C410.816 405.192 410.416 405.048 409.914 405.048C409.434 405.048 409.04 405.192 408.73 405.48C408.432 405.768 408.282 406.125 408.282 406.552C408.282 406.968 408.437 407.325 408.746 407.624C409.056 407.912 409.445 408.056 409.914 408.056ZM419.772 415H417.916L425.116 403.64H426.972L419.772 415ZM426.7 415.128C425.825 415.128 425.079 414.819 424.46 414.2C423.852 413.581 423.548 412.84 423.548 411.976C423.548 411.101 423.852 410.36 424.46 409.752C425.079 409.133 425.825 408.824 426.7 408.824C427.564 408.824 428.305 409.133 428.924 409.752C429.543 410.36 429.852 411.101 429.852 411.976C429.852 412.84 429.543 413.581 428.924 414.2C428.305 414.819 427.564 415.128 426.7 415.128ZM425.548 413.112C425.868 413.432 426.252 413.592 426.7 413.592C427.148 413.592 427.521 413.437 427.82 413.128C428.129 412.808 428.284 412.424 428.284 411.976C428.284 411.528 428.129 411.149 427.82 410.84C427.521 410.52 427.148 410.36 426.7 410.36C426.252 410.36 425.868 410.52 425.548 410.84C425.239 411.16 425.084 411.539 425.084 411.976C425.084 412.413 425.239 412.792 425.548 413.112ZM418.188 409.816C417.313 409.816 416.567 409.507 415.948 408.888C415.34 408.269 415.036 407.528 415.036 406.664C415.036 405.789 415.34 405.048 415.948 404.44C416.567 403.821 417.313 403.512 418.188 403.512C419.052 403.512 419.793 403.821 420.412 404.44C421.031 405.048 421.34 405.789 421.34 406.664C421.34 407.528 421.031 408.269 420.412 408.888C419.793 409.507 419.052 409.816 418.188 409.816ZM418.188 408.28C418.625 408.28 418.999 408.12 419.308 407.8C419.628 407.48 419.788 407.101 419.788 406.664C419.788 406.227 419.628 405.848 419.308 405.528C418.999 405.208 418.625 405.048 418.188 405.048C417.74 405.048 417.361 405.208 417.052 405.528C416.743 405.837 416.588 406.216 416.588 406.664C416.588 407.112 416.743 407.496 417.052 407.816C417.361 408.125 417.74 408.28 418.188 408.28Z" fill="#52E282"/>
<path d="M40 -0.5H39.5V0V30.9999C39.5 43.4263 49.5736 53.4999 62 53.4999H463C475.426 53.4999 485.5 43.4263 485.5 30.9999V0V-0.5H485H40Z" stroke="white" stroke-opacity="0.46"/>
<path d="M289 486.5H289.5V486V438C289.5 425.574 279.426 415.5 267 415.5H62C49.5736 415.5 39.5 425.574 39.5 438V486V486.5H40H289Z" stroke="white" stroke-opacity="0.46"/>
</g>
<defs>
<filter id="filter0_d_11_132" x="225.902" y="75" width="353.098" height="456" filterUnits="userSpaceOnUse" color-interpolation-filters="sRGB">
<feFlood flood-opacity="0" result="BackgroundImageFix"/>
<feColorMatrix in="SourceAlpha" type="matrix" values="0 0 0 0 0 0 0 0 0 0 0 0 0 0 0 0 0 0 127 0" result="hardAlpha"/>
<feOffset/>
<feGaussianBlur stdDeviation="39"/>
<feColorMatrix type="matrix" values="0 0 0 0 0.054902 0 0 0 0 0.0431373 0 0 0 0 0.239216 0 0 0 0.21 0"/>
<feBlend mode="normal" in2="BackgroundImageFix" result="effect1_dropShadow_11_132"/>
<feBlend mode="normal" in="SourceGraphic" in2="effect1_dropShadow_11_132" result="shape"/>
</filter>
<clipPath id="clip0_11_132">
<rect width="525" height="486" rx="32" fill="white"/>
</clipPath>
</defs>
</svg>
