<svg width="110" height="24" viewBox="0 0 110 24" fill="none" xmlns="http://www.w3.org/2000/svg">
<g clip-path="url(#clip0_11_92)">
<path d="M20.0054 14.9887H12.2485L20.5133 6.70978C20.5912 6.63169 20.6441 6.53219 20.6657 6.42391C20.6872 6.31562 20.6762 6.20337 20.634 6.10137C20.5918 5.99936 20.5204 5.91218 20.4288 5.85083C20.3372 5.78947 20.2294 5.75672 20.1192 5.75667H6.99329V0.263843H21.3906C22.4475 0.250955 23.4864 0.538526 24.3868 1.09324C25.287 1.64795 26.012 2.44703 26.4772 3.39777C26.9576 4.41459 27.112 5.55548 26.9192 6.66372C26.7263 7.77196 26.1957 8.79318 25.4002 9.58721L20.0054 14.9887Z" fill="#48ACF0"/>
<path d="M6.99371 8.4021H14.7509L6.50283 16.6644C6.42359 16.7439 6.36966 16.8451 6.34781 16.9553C6.32596 17.0655 6.33723 17.1796 6.38013 17.2833C6.42301 17.3872 6.49558 17.4758 6.58878 17.5383C6.68196 17.6007 6.79158 17.6341 6.9037 17.6342H19.9926V23.127H5.60922C4.55232 23.1399 3.51353 22.8522 2.6132 22.2975C1.71288 21.7428 0.987956 20.9437 0.522614 19.9931C0.0422553 18.9763 -0.112069 17.8353 0.0808386 16.7271C0.273747 15.6188 0.804469 14.5976 1.60004 13.8036L6.99371 8.4021Z" fill="#48ACF0"/>
<path d="M43.5653 23V1.345H56.5888V4.761H47.1338V10.312H54.7588V13.728H47.1338V19.584H56.5888V23H43.5653ZM70.5128 23L66.3953 17.8455L62.2778 23H58.1908L64.2603 15.4055L58.5263 7.75H62.5218L66.3648 12.874L70.2078 7.75H74.2338L68.4998 15.4055L74.5693 23H70.5128ZM82.9708 23.305C80.6935 23.305 78.8228 22.5628 77.3588 21.0785C75.8948 19.5738 75.1628 17.6727 75.1628 15.375C75.1628 13.0773 75.8847 11.1863 77.3283 9.702C78.772 8.19733 80.663 7.445 83.0013 7.445C85.36 7.445 87.2612 8.2685 88.7048 9.9155C90.1485 11.5422 90.789 13.6365 90.6263 16.1985H78.4873C78.528 17.3778 78.9753 18.364 79.8293 19.157C80.6833 19.95 81.7712 20.3465 83.0928 20.3465C84.9635 20.3465 86.2445 19.6348 86.9358 18.2115H90.4433C89.9757 19.6958 89.081 20.9158 87.7593 21.8715C86.4377 22.8272 84.8415 23.305 82.9708 23.305ZM82.9098 10.251C81.8118 10.251 80.8663 10.5662 80.0733 11.1965C79.3007 11.8065 78.8025 12.6808 78.5788 13.8195H87.0273C86.7833 12.6402 86.2852 11.7557 85.5328 11.166C84.7805 10.556 83.9062 10.251 82.9098 10.251ZM100.965 23.305C98.667 23.305 96.7556 22.5425 95.2306 21.0175C93.726 19.4722 92.9736 17.5913 92.9736 15.375C92.9736 13.1587 93.726 11.288 95.2306 9.763C96.7556 8.21767 98.667 7.445 100.965 7.445C102.937 7.445 104.614 7.994 105.997 9.092C107.4 10.19 108.305 11.6032 108.712 13.3315H105.174C104.869 12.4775 104.34 11.7963 103.588 11.288C102.856 10.7593 101.981 10.495 100.965 10.495C99.6226 10.495 98.5246 10.9525 97.6706 11.8675C96.8166 12.7825 96.3896 13.9517 96.3896 15.375C96.3896 16.7983 96.8166 17.9675 97.6706 18.8825C98.5246 19.7975 99.6226 20.255 100.965 20.255C101.981 20.255 102.856 20.0008 103.588 19.4925C104.34 18.9638 104.869 18.2725 105.174 17.4185H108.712C108.305 19.1468 107.4 20.56 105.997 21.658C104.614 22.756 102.937 23.305 100.965 23.305Z" fill="#0E0B3D"/>
</g>
<defs>
<clipPath id="clip0_11_92">
<rect width="110" height="24" fill="white"/>
</clipPath>
</defs>
</svg>
