<svg width="575" height="397" viewBox="0 0 575 397" fill="none" xmlns="http://www.w3.org/2000/svg">
<g clip-path="url(#clip0_11_645)">
<rect width="575" height="397" rx="23" fill="#FAFEFF"/>
<path d="M0 24C0 10.7452 10.7452 0 24 0H490C503.255 0 514 10.7452 514 24V373C514 386.255 503.255 397 490 397H24C10.7452 397 0 386.255 0 373V24Z" fill="#A663CC" fill-opacity="0.3"/>
<path d="M-388 33.1652C-388 44.1197 -379.12 53 -368.165 53H14.1652C25.1197 53 34 44.1197 34 33.1652H32C32 43.0151 24.0151 51 14.1652 51H-368.165C-378.015 51 -386 43.0151 -386 33.1652H-388ZM33 0H-387H33ZM-388 0V33.1652C-388 44.1197 -379.12 53 -368.165 53V51C-378.015 51 -386 43.0151 -386 33.1652V0H-388ZM14.1652 53C25.1197 53 34 44.1197 34 33.1652V0H32V33.1652C32 43.0151 24.0151 51 14.1652 51V53Z" fill="white" fill-opacity="0.46" mask="url(#path-3-inside-1_11_645)"/>
<rect x="-386.5" y="77.5" width="419.643" height="112.009" rx="24.613" stroke="white" stroke-opacity="0.46"/>
<rect x="-386.5" y="214.5" width="419.643" height="112.009" rx="24.613" stroke="white" stroke-opacity="0.46"/>
<path d="M34 369.835C34 358.88 25.1197 350 14.1652 350L-368.165 350C-379.12 350 -388 358.88 -388 369.835L-386 369.835C-386 359.985 -378.015 352 -368.165 352L14.1652 352C24.0151 352 32 359.985 32 369.835L34 369.835ZM-387 397L33 397L-387 397ZM34 397L34 369.835C34 358.88 25.1197 350 14.1652 350L14.1652 352C24.0151 352 32 359.985 32 369.835L32 397L34 397ZM-368.165 350C-379.12 350 -388 358.88 -388 369.835L-388 397L-386 397L-386 369.835C-386 359.985 -378.015 352 -368.165 352L-368.165 350Z" fill="white" fill-opacity="0.46" mask="url(#path-9-inside-2_11_645)"/>
<path d="M56 34.0769C56 45.0801 64.9199 54 75.9231 54H447.077C458.08 54 467 45.0801 467 34.0769H465C465 43.9756 456.976 52 447.077 52H75.9231C66.0244 52 58 43.9756 58 34.0769H56ZM466 1H57H466ZM56 1V34.0769C56 45.0801 64.9199 54 75.9231 54V52C66.0244 52 58 43.9756 58 34.0769V1H56ZM447.077 54C458.08 54 467 45.0801 467 34.0769V1H465V34.0769C465 43.9756 456.976 52 447.077 52V54Z" fill="white" fill-opacity="0.46" mask="url(#path-11-inside-3_11_645)"/>
<path d="M56 369.923C56 358.92 64.9199 350 75.9231 350H447.077C458.08 350 467 358.92 467 369.923H465C465 360.024 456.976 352 447.077 352H75.9231C66.0244 352 58 360.024 58 369.923H56ZM466 396H57H466ZM56 396V369.923C56 358.92 64.9199 350 75.9231 350V352C66.0244 352 58 360.024 58 369.923V396H56ZM447.077 350C458.08 350 467 358.92 467 369.923V396H465V369.923C465 360.024 456.976 352 447.077 352V350Z" fill="white" fill-opacity="0.46" mask="url(#path-13-inside-4_11_645)"/>
</g>
<defs>
<clipPath id="clip0_11_645">
<rect width="575" height="397" rx="23" fill="white"/>
</clipPath>
</defs>
</svg>
