<svg width="487" height="113" viewBox="0 0 487 113" fill="none" xmlns="http://www.w3.org/2000/svg">
<rect x="0.643372" width="486" height="113" rx="22" fill="white"/>
<path opacity="0.31" d="M25.6054 41.5L30.0014 31.56H31.0794L35.4894 41.5H34.1314L32.8434 38.602H28.2094L26.9494 41.5H25.6054ZM30.5194 33.324L28.7274 37.426H32.3254L30.5194 33.324ZM38.0063 41.5V31.56H40.8623C42.3836 31.56 43.6436 32.0313 44.6423 32.974C45.6503 33.9167 46.1543 35.102 46.1543 36.53C46.1543 37.958 45.6503 39.1433 44.6423 40.086C43.6436 41.0287 42.3836 41.5 40.8623 41.5H38.0063ZM39.3083 40.282H40.8623C42.0476 40.282 43.0043 39.932 43.7323 39.232C44.4696 38.5227 44.8383 37.622 44.8383 36.53C44.8383 35.438 44.4696 34.542 43.7323 33.842C43.0043 33.1327 42.0476 32.778 40.8623 32.778H39.3083V40.282ZM51.9396 41.5L47.6976 31.56H49.1396L52.4856 39.47L55.8456 31.56H57.2596L53.0316 41.5H51.9396ZM57.7447 41.5L62.1407 31.56H63.2187L67.6287 41.5H66.2707L64.9827 38.602H60.3487L59.0887 41.5H57.7447ZM62.6587 33.324L60.8667 37.426H64.4647L62.6587 33.324ZM78.6155 41.5H77.4955L71.4475 33.758V41.5H70.1455V31.56H71.2795L77.3275 39.302V31.56H78.6155V41.5ZM86.8608 41.668C85.3954 41.668 84.1681 41.178 83.1788 40.198C82.1988 39.2087 81.7088 37.986 81.7088 36.53C81.7088 35.074 82.1988 33.856 83.1788 32.876C84.1681 31.8867 85.3954 31.392 86.8608 31.392C88.0554 31.392 89.0868 31.728 89.9548 32.4C90.8321 33.072 91.3874 33.884 91.6208 34.836H90.2488C90.0154 34.192 89.5908 33.6647 88.9748 33.254C88.3681 32.834 87.6634 32.624 86.8608 32.624C85.7594 32.624 84.8401 33.002 84.1028 33.758C83.3748 34.5047 83.0108 35.4287 83.0108 36.53C83.0108 37.6313 83.3748 38.56 84.1028 39.316C84.8401 40.0627 85.7594 40.436 86.8608 40.436C87.6634 40.436 88.3681 40.2307 88.9748 39.82C89.5908 39.4 90.0154 38.868 90.2488 38.224H91.6208C91.3874 39.176 90.8321 39.988 89.9548 40.66C89.0868 41.332 88.0554 41.668 86.8608 41.668ZM94.534 41.5V31.56H100.33V32.792H95.836V35.802H99.49V37.034H95.836V40.268H100.33V41.5H94.534ZM103.447 41.5V31.56H106.303C107.824 31.56 109.084 32.0313 110.083 32.974C111.091 33.9167 111.595 35.102 111.595 36.53C111.595 37.958 111.091 39.1433 110.083 40.086C109.084 41.0287 107.824 41.5 106.303 41.5H103.447ZM104.749 40.282H106.303C107.488 40.282 108.445 39.932 109.173 39.232C109.91 38.5227 110.279 37.622 110.279 36.53C110.279 35.438 109.91 34.542 109.173 33.842C108.445 33.1327 107.488 32.778 106.303 32.778H104.749V40.282Z" fill="#0E0B3D"/>
<path d="M25.6134 81.5L32.7434 65.17H35.0894L42.2194 81.5H39.4134L37.5504 77.222H30.2364L28.3964 81.5H25.6134ZM33.8934 68.804L31.2714 74.83H36.5154L33.8934 68.804ZM47.9824 81.73C46.6177 81.73 45.4677 81.3927 44.5324 80.718C43.6124 80.0433 43.1217 79.1387 43.0604 78.004H45.6824C45.8664 79.1387 46.656 79.706 48.0514 79.706C48.6187 79.706 49.071 79.6063 49.4084 79.407C49.7457 79.1923 49.9144 78.8857 49.9144 78.487C49.9144 78.0883 49.784 77.774 49.5234 77.544C49.2627 77.314 48.8257 77.1223 48.2124 76.969L46.3264 76.463C44.3637 75.9417 43.3824 74.784 43.3824 72.99C43.3824 72.024 43.7734 71.2497 44.5554 70.667C45.3374 70.069 46.3724 69.77 47.6604 69.77C48.9024 69.77 49.922 70.0843 50.7194 70.713C51.5167 71.3417 51.9614 72.1773 52.0534 73.22H49.5234C49.278 72.2693 48.6494 71.794 47.6374 71.794C47.1314 71.794 46.725 71.9013 46.4184 72.116C46.1117 72.3153 45.9584 72.599 45.9584 72.967C45.9584 73.6263 46.472 74.0863 47.4994 74.347L49.4314 74.853C51.4707 75.3743 52.4904 76.532 52.4904 78.326C52.4904 79.4147 52.0687 80.258 51.2254 80.856C50.3974 81.4387 49.3164 81.73 47.9824 81.73ZM59.1005 81.73C57.7359 81.73 56.5859 81.3927 55.6505 80.718C54.7305 80.0433 54.2399 79.1387 54.1785 78.004H56.8005C56.9845 79.1387 57.7742 79.706 59.1695 79.706C59.7369 79.706 60.1892 79.6063 60.5265 79.407C60.8639 79.1923 61.0325 78.8857 61.0325 78.487C61.0325 78.0883 60.9022 77.774 60.6415 77.544C60.3809 77.314 59.9439 77.1223 59.3305 76.969L57.4445 76.463C55.4819 75.9417 54.5005 74.784 54.5005 72.99C54.5005 72.024 54.8915 71.2497 55.6735 70.667C56.4555 70.069 57.4905 69.77 58.7785 69.77C60.0205 69.77 61.0402 70.0843 61.8375 70.713C62.6349 71.3417 63.0795 72.1773 63.1715 73.22H60.6415C60.3962 72.2693 59.7675 71.794 58.7555 71.794C58.2495 71.794 57.8432 71.9013 57.5365 72.116C57.2299 72.3153 57.0765 72.599 57.0765 72.967C57.0765 73.6263 57.5902 74.0863 58.6175 74.347L60.5495 74.853C62.5889 75.3743 63.6085 76.532 63.6085 78.326C63.6085 79.4147 63.1869 80.258 62.3435 80.856C61.5155 81.4387 60.4345 81.73 59.1005 81.73ZM71.2537 81.73C69.5364 81.73 68.1257 81.1703 67.0217 80.051C65.9177 78.9163 65.3657 77.4827 65.3657 75.75C65.3657 74.0173 65.91 72.5913 66.9987 71.472C68.0874 70.3373 69.5134 69.77 71.2767 69.77C73.0554 69.77 74.489 70.391 75.5777 71.633C76.6664 72.8597 77.1494 74.439 77.0267 76.371H67.8727C67.9034 77.2603 68.2407 78.004 68.8847 78.602C69.5287 79.2 70.349 79.499 71.3457 79.499C72.7564 79.499 73.7224 78.9623 74.2437 77.889H76.8887C76.536 79.0083 75.8614 79.9283 74.8647 80.649C73.868 81.3697 72.6644 81.73 71.2537 81.73ZM71.2077 71.886C70.3797 71.886 69.6667 72.1237 69.0687 72.599C68.486 73.059 68.1104 73.7183 67.9417 74.577H74.3127C74.1287 73.6877 73.753 73.0207 73.1857 72.576C72.6184 72.116 71.959 71.886 71.2077 71.886ZM84.4136 81.615C83.2483 81.615 82.2976 81.293 81.5616 80.649C80.841 79.9897 80.4806 79.039 80.4806 77.797V72.254H78.0886V70H80.4806V66.803H83.0106V70H86.2996V72.254H83.0106V77.383C83.0106 78.0883 83.164 78.5943 83.4706 78.901C83.7773 79.1923 84.268 79.338 84.9426 79.338C85.4946 79.338 85.947 79.2613 86.2996 79.108V81.362C85.7476 81.5307 85.119 81.615 84.4136 81.615ZM98.8271 81.73C97.2631 81.73 95.9444 81.1473 94.8711 79.982C93.8131 78.8167 93.2841 77.406 93.2841 75.75C93.2841 74.094 93.8131 72.6833 94.8711 71.518C95.9444 70.3527 97.2631 69.77 98.8271 69.77C99.6091 69.77 100.33 69.9463 100.989 70.299C101.648 70.6363 102.154 71.0503 102.507 71.541V70H105.037V81.5H102.507V79.959C102.154 80.4497 101.648 80.8713 100.989 81.224C100.33 81.5613 99.6091 81.73 98.8271 81.73ZM96.8261 78.372C97.4701 79.0773 98.2904 79.43 99.2871 79.43C100.284 79.43 101.104 79.0773 101.748 78.372C102.392 77.6667 102.714 76.7927 102.714 75.75C102.714 74.7073 102.392 73.8333 101.748 73.128C101.104 72.4227 100.284 72.07 99.2871 72.07C98.2904 72.07 97.4701 72.4227 96.8261 73.128C96.1821 73.8333 95.8601 74.7073 95.8601 75.75C95.8601 76.7927 96.1821 77.6667 96.8261 78.372ZM108.465 81.5V64.25H110.995V81.5H108.465ZM114.394 81.5V64.25H116.924V81.5H114.394ZM129.8 80.005C128.65 81.155 127.224 81.73 125.522 81.73C123.82 81.73 122.386 81.155 121.221 80.005C120.071 78.8397 119.496 77.4213 119.496 75.75C119.496 74.0787 120.071 72.668 121.221 71.518C122.386 70.3527 123.82 69.77 125.522 69.77C127.224 69.77 128.65 70.3527 129.8 71.518C130.965 72.668 131.548 74.0787 131.548 75.75C131.548 77.4213 130.965 78.8397 129.8 80.005ZM125.522 79.384C126.519 79.384 127.339 79.039 127.983 78.349C128.642 77.6437 128.972 76.7773 128.972 75.75C128.972 74.7227 128.642 73.864 127.983 73.174C127.339 72.4687 126.519 72.116 125.522 72.116C124.51 72.116 123.674 72.4687 123.015 73.174C122.371 73.864 122.049 74.7227 122.049 75.75C122.049 76.7773 122.371 77.6437 123.015 78.349C123.674 79.039 124.51 79.384 125.522 79.384ZM139.291 81.73C137.558 81.73 136.117 81.155 134.967 80.005C133.832 78.8397 133.265 77.4213 133.265 75.75C133.265 74.0787 133.832 72.668 134.967 71.518C136.117 70.3527 137.558 69.77 139.291 69.77C140.778 69.77 142.043 70.184 143.086 71.012C144.144 71.84 144.826 72.9057 145.133 74.209H142.465C142.235 73.565 141.836 73.0513 141.269 72.668C140.717 72.2693 140.057 72.07 139.291 72.07C138.279 72.07 137.451 72.415 136.807 73.105C136.163 73.795 135.841 74.6767 135.841 75.75C135.841 76.8233 136.163 77.705 136.807 78.395C137.451 79.085 138.279 79.43 139.291 79.43C140.057 79.43 140.717 79.2383 141.269 78.855C141.836 78.4563 142.235 77.935 142.465 77.291H145.133C144.826 78.5943 144.144 79.66 143.086 80.488C142.043 81.316 140.778 81.73 139.291 81.73ZM152.239 81.73C150.675 81.73 149.357 81.1473 148.283 79.982C147.225 78.8167 146.696 77.406 146.696 75.75C146.696 74.094 147.225 72.6833 148.283 71.518C149.357 70.3527 150.675 69.77 152.239 69.77C153.021 69.77 153.742 69.9463 154.401 70.299C155.061 70.6363 155.567 71.0503 155.919 71.541V70H158.449V81.5H155.919V79.959C155.567 80.4497 155.061 80.8713 154.401 81.224C153.742 81.5613 153.021 81.73 152.239 81.73ZM150.238 78.372C150.882 79.0773 151.703 79.43 152.699 79.43C153.696 79.43 154.516 79.0773 155.16 78.372C155.804 77.6667 156.126 76.7927 156.126 75.75C156.126 74.7073 155.804 73.8333 155.16 73.128C154.516 72.4227 153.696 72.07 152.699 72.07C151.703 72.07 150.882 72.4227 150.238 73.128C149.594 73.8333 149.272 74.7073 149.272 75.75C149.272 76.7927 149.594 77.6667 150.238 78.372ZM166.868 81.615C165.702 81.615 164.752 81.293 164.016 80.649C163.295 79.9897 162.935 79.039 162.935 77.797V72.254H160.543V70H162.935V66.803H165.465V70H168.754V72.254H165.465V77.383C165.465 78.0883 165.618 78.5943 165.925 78.901C166.231 79.1923 166.722 79.338 167.397 79.338C167.949 79.338 168.401 79.2613 168.754 79.108V81.362C168.202 81.5307 167.573 81.615 166.868 81.615ZM172.418 67.493C171.958 67.493 171.559 67.332 171.222 67.01C170.885 66.6727 170.716 66.2663 170.716 65.791C170.716 65.331 170.885 64.94 171.222 64.618C171.559 64.2807 171.958 64.112 172.418 64.112C172.893 64.112 173.292 64.2807 173.614 64.618C173.936 64.94 174.097 65.331 174.097 65.791C174.097 66.2663 173.936 66.6727 173.614 67.01C173.292 67.332 172.893 67.493 172.418 67.493ZM171.153 81.5V70H173.683V81.5H171.153ZM186.559 80.005C185.409 81.155 183.983 81.73 182.281 81.73C180.579 81.73 179.145 81.155 177.98 80.005C176.83 78.8397 176.255 77.4213 176.255 75.75C176.255 74.0787 176.83 72.668 177.98 71.518C179.145 70.3527 180.579 69.77 182.281 69.77C183.983 69.77 185.409 70.3527 186.559 71.518C187.724 72.668 188.307 74.0787 188.307 75.75C188.307 77.4213 187.724 78.8397 186.559 80.005ZM182.281 79.384C183.277 79.384 184.098 79.039 184.742 78.349C185.401 77.6437 185.731 76.7773 185.731 75.75C185.731 74.7227 185.401 73.864 184.742 73.174C184.098 72.4687 183.277 72.116 182.281 72.116C181.269 72.116 180.433 72.4687 179.774 73.174C179.13 73.864 178.808 74.7227 178.808 75.75C178.808 76.7773 179.13 77.6437 179.774 78.349C180.433 79.039 181.269 79.384 182.281 79.384ZM190.851 81.5V70H193.381V71.564C194.102 70.368 195.267 69.77 196.877 69.77C198.211 69.77 199.277 70.207 200.074 71.081C200.872 71.955 201.27 73.1203 201.27 74.577V81.5H198.74V74.991C198.74 74.071 198.526 73.358 198.096 72.852C197.667 72.3307 197.084 72.07 196.348 72.07C195.474 72.07 194.761 72.3997 194.209 73.059C193.657 73.7183 193.381 74.646 193.381 75.842V81.5H190.851Z" fill="#0E0B3D"/>
<path d="M430.668 25.4023C434.752 25.4023 438.795 26.2067 442.568 27.7695C446.341 29.3323 449.769 31.6229 452.657 34.5106C455.545 37.3983 457.835 40.8265 459.398 44.5994C460.961 48.3723 461.765 52.4161 461.765 56.4999C461.765 60.5837 460.961 64.6275 459.398 68.4004C457.835 72.1734 455.545 75.6015 452.657 78.4892C449.769 81.3769 446.341 83.6675 442.568 85.2303C438.795 86.7931 434.752 87.5975 430.668 87.5975C426.584 87.5975 422.54 86.7931 418.767 85.2303C414.994 83.6675 411.566 81.3769 408.679 78.4892C405.791 75.6015 403.5 72.1733 401.937 68.4004C400.375 64.6275 399.57 60.5837 399.57 56.4999C399.57 52.4161 400.375 48.3723 401.937 44.5994C403.5 40.8264 405.791 37.3983 408.679 34.5106C411.566 31.6229 414.994 29.3323 418.767 27.7695C422.54 26.2067 426.584 25.4023 430.668 25.4023L430.668 25.4023Z" stroke="#43AA8B" stroke-opacity="0.1" stroke-width="11" stroke-linecap="round" stroke-linejoin="round"/>
<path d="M430.668 25.4023C437.862 25.4023 444.834 27.897 450.396 32.4612C455.957 37.0254 459.764 43.3767 461.168 50.4331C462.571 57.4894 461.485 64.8141 458.093 71.1592C454.702 77.5043 449.215 82.4771 442.568 85.2303C435.921 87.9836 428.526 88.3469 421.641 86.2584C414.756 84.1699 408.808 79.7589 404.811 73.7768C400.814 67.7947 399.015 60.6117 399.72 53.4518C400.425 46.2919 403.591 39.5979 408.679 34.5106" stroke="#43AA8B" stroke-width="7" stroke-linecap="round" stroke-linejoin="round"/>
<path d="M420.436 61.7557C419.447 61.7557 418.63 61.4618 417.987 60.874C417.343 60.277 417.021 59.5213 417.021 58.607C417.021 57.4502 417.492 56.6152 418.434 56.1021C417.819 55.6263 417.511 54.9686 417.511 54.129C417.511 53.3733 417.781 52.7483 418.322 52.2538C418.873 51.7594 419.577 51.5121 420.436 51.5121C421.303 51.5121 422.008 51.7594 422.549 52.2538C423.099 52.7389 423.374 53.364 423.374 54.129C423.374 54.9686 423.066 55.6263 422.451 56.1021C423.393 56.6152 423.864 57.4502 423.864 58.607C423.864 59.5306 423.542 60.2863 422.898 60.874C422.264 61.4618 421.443 61.7557 420.436 61.7557ZM420.436 60.3143C421.005 60.3143 421.457 60.1464 421.793 59.8105C422.129 59.4747 422.297 59.0642 422.297 58.579C422.297 58.0846 422.129 57.6741 421.793 57.3476C421.457 57.0117 421.009 56.8438 420.45 56.8438C419.88 56.8438 419.428 57.0117 419.092 57.3476C418.756 57.6741 418.588 58.0846 418.588 58.579C418.588 59.0642 418.756 59.4747 419.092 59.8105C419.437 60.1464 419.885 60.3143 420.436 60.3143ZM420.436 55.5424C420.865 55.5424 421.21 55.4164 421.471 55.1645C421.742 54.9033 421.877 54.5908 421.877 54.2269C421.877 53.8444 421.746 53.5319 421.485 53.2894C421.224 53.0375 420.874 52.9115 420.436 52.9115C420.016 52.9115 419.671 53.0375 419.4 53.2894C419.139 53.5412 419.008 53.8538 419.008 54.2269C419.008 54.5908 419.143 54.9033 419.414 55.1645C419.685 55.4164 420.025 55.5424 420.436 55.5424ZM428.539 61.7557C427.551 61.7557 426.734 61.4618 426.09 60.874C425.447 60.277 425.125 59.5213 425.125 58.607C425.125 57.4502 425.596 56.6152 426.538 56.1021C425.923 55.6263 425.615 54.9686 425.615 54.129C425.615 53.3733 425.885 52.7483 426.426 52.2538C426.977 51.7594 427.681 51.5121 428.539 51.5121C429.407 51.5121 430.111 51.7594 430.653 52.2538C431.203 52.7389 431.478 53.364 431.478 54.129C431.478 54.9686 431.17 55.6263 430.555 56.1021C431.497 56.6152 431.968 57.4502 431.968 58.607C431.968 59.5306 431.646 60.2863 431.002 60.874C430.368 61.4618 429.547 61.7557 428.539 61.7557ZM428.539 60.3143C429.109 60.3143 429.561 60.1464 429.897 59.8105C430.233 59.4747 430.401 59.0642 430.401 58.579C430.401 58.0846 430.233 57.6741 429.897 57.3476C429.561 57.0117 429.113 56.8438 428.553 56.8438C427.984 56.8438 427.532 57.0117 427.196 57.3476C426.86 57.6741 426.692 58.0846 426.692 58.579C426.692 59.0642 426.86 59.4747 427.196 59.8105C427.541 60.1464 427.989 60.3143 428.539 60.3143ZM428.539 55.5424C428.969 55.5424 429.314 55.4164 429.575 55.1645C429.846 54.9033 429.981 54.5908 429.981 54.2269C429.981 53.8444 429.85 53.5319 429.589 53.2894C429.328 53.0375 428.978 52.9115 428.539 52.9115C428.12 52.9115 427.774 53.0375 427.504 53.2894C427.243 53.5412 427.112 53.8538 427.112 54.2269C427.112 54.5908 427.247 54.9033 427.518 55.1645C427.788 55.4164 428.129 55.5424 428.539 55.5424ZM437.161 61.6157H435.538L441.835 51.6801H443.458L437.161 61.6157ZM443.22 61.7277C442.455 61.7277 441.802 61.4571 441.261 60.916C440.73 60.3749 440.464 59.7265 440.464 58.9709C440.464 58.2059 440.73 57.5575 441.261 57.0257C441.802 56.4846 442.455 56.2141 443.22 56.2141C443.976 56.2141 444.625 56.4846 445.166 57.0257C445.707 57.5575 445.977 58.2059 445.977 58.9709C445.977 59.7265 445.707 60.3749 445.166 60.916C444.625 61.4571 443.976 61.7277 443.22 61.7277ZM442.213 59.9644C442.493 60.2443 442.829 60.3843 443.22 60.3843C443.612 60.3843 443.939 60.249 444.2 59.9784C444.471 59.6986 444.606 59.3627 444.606 58.9709C444.606 58.579 444.471 58.2479 444.2 57.9773C443.939 57.6974 443.612 57.5575 443.22 57.5575C442.829 57.5575 442.493 57.6974 442.213 57.9773C441.942 58.2572 441.807 58.5884 441.807 58.9709C441.807 59.3534 441.942 59.6846 442.213 59.9644ZM435.776 57.0817C435.011 57.0817 434.358 56.8111 433.817 56.2701C433.285 55.729 433.019 55.0806 433.019 54.3249C433.019 53.5599 433.285 52.9115 433.817 52.3797C434.358 51.8386 435.011 51.5681 435.776 51.5681C436.531 51.5681 437.18 51.8386 437.721 52.3797C438.262 52.9115 438.532 53.5599 438.532 54.3249C438.532 55.0806 438.262 55.729 437.721 56.2701C437.18 56.8111 436.531 57.0817 435.776 57.0817ZM435.776 55.7383C436.158 55.7383 436.485 55.5983 436.755 55.3185C437.035 55.0386 437.175 54.7074 437.175 54.3249C437.175 53.9424 437.035 53.6112 436.755 53.3313C436.485 53.0515 436.158 52.9115 435.776 52.9115C435.384 52.9115 435.053 53.0515 434.782 53.3313C434.512 53.6019 434.376 53.9331 434.376 54.3249C434.376 54.7167 434.512 55.0526 434.782 55.3325C435.053 55.603 435.384 55.7383 435.776 55.7383Z" fill="#0E0B3D"/>
</svg>
