<svg width="418" height="113" viewBox="0 0 418 113" fill="none" xmlns="http://www.w3.org/2000/svg">
<rect x="0.643372" width="417" height="113" rx="22" fill="white"/>
<path opacity="0.31" d="M28.8534 41.5V32.792H25.7594V31.56H33.2214V32.792H30.1274V41.5H28.8534ZM35.9008 41.5V31.56H37.2028V35.802H42.6488V31.56H43.9508V41.5H42.6488V37.02H37.2028V41.5H35.9008ZM47.6985 41.5V31.56H53.4945V32.792H49.0005V35.802H52.6545V37.034H49.0005V40.268H53.4945V41.5H47.6985ZM61.1084 41.5V31.56H64.3704C65.2664 31.56 65.9851 31.8167 66.5264 32.33C67.0678 32.8433 67.3384 33.464 67.3384 34.192C67.3384 35.1067 66.9838 35.7833 66.2744 36.222C67.4224 36.642 67.9964 37.4353 67.9964 38.602C67.9964 39.442 67.6884 40.1373 67.0724 40.688C66.4658 41.2293 65.6631 41.5 64.6644 41.5H61.1084ZM62.4104 40.324H64.7204C65.3738 40.324 65.8684 40.1747 66.2044 39.876C66.5498 39.568 66.7224 39.1573 66.7224 38.644C66.7224 38.14 66.5498 37.734 66.2044 37.426C65.8684 37.1087 65.3784 36.95 64.7344 36.95H62.4104V40.324ZM62.4104 35.83H64.3704C64.8931 35.83 65.3038 35.69 65.6024 35.41C65.9104 35.1207 66.0644 34.7473 66.0644 34.29C66.0644 33.8513 65.9104 33.4827 65.6024 33.184C65.2944 32.8853 64.8838 32.736 64.3704 32.736H62.4104V35.83ZM69.6371 41.5L74.0331 31.56H75.1111L79.5211 41.5H78.1631L76.8751 38.602H72.2411L70.9811 41.5H69.6371ZM74.5511 33.324L72.7591 37.426H76.3571L74.5511 33.324ZM84.5631 41.668C83.5551 41.668 82.7291 41.3927 82.0851 40.842C81.4505 40.2913 81.1238 39.624 81.1051 38.84H82.4071C82.4631 39.3533 82.7011 39.75 83.1211 40.03C83.5505 40.31 84.0265 40.45 84.5491 40.45C85.0905 40.45 85.5385 40.3147 85.8931 40.044C86.2478 39.7733 86.4251 39.414 86.4251 38.966C86.4251 38.21 85.9538 37.6547 85.0111 37.3L83.6391 36.796C82.8551 36.5253 82.2765 36.166 81.9031 35.718C81.5391 35.27 81.3525 34.696 81.3431 33.996C81.3431 33.2027 81.6231 32.5727 82.1831 32.106C82.7525 31.63 83.4805 31.392 84.3671 31.392C85.3005 31.392 86.0378 31.6627 86.5791 32.204C87.1298 32.736 87.4378 33.3613 87.5031 34.08H86.2151C86.0938 33.5853 85.8605 33.2167 85.5151 32.974C85.1791 32.7313 84.7871 32.61 84.3391 32.61C83.8538 32.61 83.4478 32.7313 83.1211 32.974C82.8038 33.2167 82.6451 33.5433 82.6451 33.954C82.6451 34.3647 82.7571 34.6913 82.9811 34.934C83.2051 35.1767 83.5691 35.3867 84.0731 35.564L85.3471 36.026C86.1311 36.306 86.7238 36.6793 87.1251 37.146C87.5265 37.6033 87.7271 38.196 87.7271 38.924C87.7271 39.7547 87.4331 40.422 86.8451 40.926C86.2571 41.4207 85.4965 41.668 84.5631 41.668ZM90.8005 41.5V31.56H92.1025V41.5H90.8005ZM100.338 41.668C98.8726 41.668 97.6453 41.178 96.656 40.198C95.676 39.2087 95.186 37.986 95.186 36.53C95.186 35.074 95.676 33.856 96.656 32.876C97.6453 31.8867 98.8726 31.392 100.338 31.392C101.533 31.392 102.564 31.728 103.432 32.4C104.309 33.072 104.865 33.884 105.098 34.836H103.726C103.493 34.192 103.068 33.6647 102.452 33.254C101.845 32.834 101.141 32.624 100.338 32.624C99.2366 32.624 98.3173 33.002 97.58 33.758C96.852 34.5047 96.488 35.4287 96.488 36.53C96.488 37.6313 96.852 38.56 97.58 39.316C98.3173 40.0627 99.2366 40.436 100.338 40.436C101.141 40.436 101.845 40.2307 102.452 39.82C103.068 39.4 103.493 38.868 103.726 38.224H105.098C104.865 39.176 104.309 39.988 103.432 40.66C102.564 41.332 101.533 41.668 100.338 41.668ZM110.755 41.668C109.747 41.668 108.921 41.3927 108.277 40.842C107.643 40.2913 107.316 39.624 107.297 38.84H108.599C108.655 39.3533 108.893 39.75 109.313 40.03C109.743 40.31 110.219 40.45 110.741 40.45C111.283 40.45 111.731 40.3147 112.085 40.044C112.44 39.7733 112.617 39.414 112.617 38.966C112.617 38.21 112.146 37.6547 111.203 37.3L109.831 36.796C109.047 36.5253 108.469 36.166 108.095 35.718C107.731 35.27 107.545 34.696 107.535 33.996C107.535 33.2027 107.815 32.5727 108.375 32.106C108.945 31.63 109.673 31.392 110.559 31.392C111.493 31.392 112.23 31.6627 112.771 32.204C113.322 32.736 113.63 33.3613 113.695 34.08H112.407C112.286 33.5853 112.053 33.2167 111.707 32.974C111.371 32.7313 110.979 32.61 110.531 32.61C110.046 32.61 109.64 32.7313 109.313 32.974C108.996 33.2167 108.837 33.5433 108.837 33.954C108.837 34.3647 108.949 34.6913 109.173 34.934C109.397 35.1767 109.761 35.3867 110.265 35.564L111.539 36.026C112.323 36.306 112.916 36.6793 113.317 37.146C113.719 37.6033 113.919 38.196 113.919 38.924C113.919 39.7547 113.625 40.422 113.037 40.926C112.449 41.4207 111.689 41.668 110.755 41.668Z" fill="#0E0B3D"/>
<path d="M40.2874 81.5L36.4924 71.518L32.6974 81.5H30.2134L26.0044 65.17H28.8334L31.8004 77.038L36.4924 64.894L41.1614 77.038L44.1514 65.17H47.0034L42.7714 81.5H40.2874ZM51.6753 81.5H49.1453V64.25H51.6753V71.564C52.396 70.368 53.5613 69.77 55.1713 69.77C56.5053 69.77 57.571 70.207 58.3683 71.081C59.1656 71.955 59.5643 73.1203 59.5643 74.577V81.5H57.0343V74.991C57.0343 74.071 56.8196 73.358 56.3903 72.852C55.961 72.3307 55.3783 72.07 54.6423 72.07C53.7683 72.07 53.0553 72.3997 52.5033 73.059C51.9513 73.7183 51.6753 74.646 51.6753 75.842V81.5ZM67.5165 81.73C65.9525 81.73 64.6339 81.1473 63.5605 79.982C62.5025 78.8167 61.9735 77.406 61.9735 75.75C61.9735 74.094 62.5025 72.6833 63.5605 71.518C64.6339 70.3527 65.9525 69.77 67.5165 69.77C68.2985 69.77 69.0192 69.9463 69.6785 70.299C70.3379 70.6363 70.8439 71.0503 71.1965 71.541V70H73.7265V81.5H71.1965V79.959C70.8439 80.4497 70.3379 80.8713 69.6785 81.224C69.0192 81.5613 68.2985 81.73 67.5165 81.73ZM65.5155 78.372C66.1595 79.0773 66.9799 79.43 67.9765 79.43C68.9732 79.43 69.7935 79.0773 70.4375 78.372C71.0815 77.6667 71.4035 76.7927 71.4035 75.75C71.4035 74.7073 71.0815 73.8333 70.4375 73.128C69.7935 72.4227 68.9732 72.07 67.9765 72.07C66.9799 72.07 66.1595 72.4227 65.5155 73.128C64.8715 73.8333 64.5495 74.7073 64.5495 75.75C64.5495 76.7927 64.8715 77.6667 65.5155 78.372ZM82.1451 81.615C80.9798 81.615 80.0291 81.293 79.2931 80.649C78.5724 79.9897 78.2121 79.039 78.2121 77.797V72.254H75.8201V70H78.2121V66.803H80.7421V70H84.0311V72.254H80.7421V77.383C80.7421 78.0883 80.8954 78.5943 81.2021 78.901C81.5088 79.1923 81.9994 79.338 82.6741 79.338C83.2261 79.338 83.6784 79.2613 84.0311 79.108V81.362C83.4791 81.5307 82.8504 81.615 82.1451 81.615ZM93.1085 67.493C92.6485 67.493 92.2499 67.332 91.9125 67.01C91.5752 66.6727 91.4065 66.2663 91.4065 65.791C91.4065 65.331 91.5752 64.94 91.9125 64.618C92.2499 64.2807 92.6485 64.112 93.1085 64.112C93.5839 64.112 93.9825 64.2807 94.3045 64.618C94.6265 64.94 94.7875 65.331 94.7875 65.791C94.7875 66.2663 94.6265 66.6727 94.3045 67.01C93.9825 67.332 93.5839 67.493 93.1085 67.493ZM91.8435 81.5V70H94.3735V81.5H91.8435ZM101.821 81.73C100.457 81.73 99.3066 81.3927 98.3712 80.718C97.4512 80.0433 96.9606 79.1387 96.8992 78.004H99.5212C99.7052 79.1387 100.495 79.706 101.89 79.706C102.458 79.706 102.91 79.6063 103.247 79.407C103.585 79.1923 103.753 78.8857 103.753 78.487C103.753 78.0883 103.623 77.774 103.362 77.544C103.102 77.314 102.665 77.1223 102.051 76.969L100.165 76.463C98.2026 75.9417 97.2212 74.784 97.2212 72.99C97.2212 72.024 97.6122 71.2497 98.3942 70.667C99.1762 70.069 100.211 69.77 101.499 69.77C102.741 69.77 103.761 70.0843 104.558 70.713C105.356 71.3417 105.8 72.1773 105.892 73.22H103.362C103.117 72.2693 102.488 71.794 101.476 71.794C100.97 71.794 100.564 71.9013 100.257 72.116C99.9506 72.3153 99.7972 72.599 99.7972 72.967C99.7972 73.6263 100.311 74.0863 101.338 74.347L103.27 74.853C105.31 75.3743 106.329 76.532 106.329 78.326C106.329 79.4147 105.908 80.258 105.064 80.856C104.236 81.4387 103.155 81.73 101.821 81.73ZM119.019 81.73C117.455 81.73 116.137 81.1473 115.063 79.982C114.005 78.8167 113.476 77.406 113.476 75.75C113.476 74.094 114.005 72.6833 115.063 71.518C116.137 70.3527 117.455 69.77 119.019 69.77C119.801 69.77 120.522 69.9463 121.181 70.299C121.841 70.6363 122.347 71.0503 122.699 71.541V70H125.229V81.5H122.699V79.959C122.347 80.4497 121.841 80.8713 121.181 81.224C120.522 81.5613 119.801 81.73 119.019 81.73ZM117.018 78.372C117.662 79.0773 118.483 79.43 119.479 79.43C120.476 79.43 121.296 79.0773 121.94 78.372C122.584 77.6667 122.906 76.7927 122.906 75.75C122.906 74.7073 122.584 73.8333 121.94 73.128C121.296 72.4227 120.476 72.07 119.479 72.07C118.483 72.07 117.662 72.4227 117.018 73.128C116.374 73.8333 116.052 74.7073 116.052 75.75C116.052 76.7927 116.374 77.6667 117.018 78.372ZM136.6 86.307H134.07V70H136.6V71.541C136.953 71.0503 137.459 70.6363 138.118 70.299C138.793 69.9463 139.521 69.77 140.303 69.77C141.867 69.77 143.178 70.3527 144.236 71.518C145.309 72.6833 145.846 74.094 145.846 75.75C145.846 77.406 145.309 78.8167 144.236 79.982C143.178 81.1473 141.867 81.73 140.303 81.73C139.521 81.73 138.793 81.5613 138.118 81.224C137.459 80.8713 136.953 80.4497 136.6 79.959V86.307ZM139.843 79.43C140.84 79.43 141.66 79.0773 142.304 78.372C142.948 77.6667 143.27 76.7927 143.27 75.75C143.27 74.7073 142.948 73.8333 142.304 73.128C141.66 72.4227 140.84 72.07 139.843 72.07C138.831 72.07 138.003 72.4227 137.359 73.128C136.715 73.8333 136.393 74.7073 136.393 75.75C136.393 76.7927 136.715 77.6667 137.359 78.372C138.003 79.0773 138.831 79.43 139.843 79.43ZM153.506 81.73C151.788 81.73 150.378 81.1703 149.274 80.051C148.17 78.9163 147.618 77.4827 147.618 75.75C147.618 74.0173 148.162 72.5913 149.251 71.472C150.339 70.3373 151.765 69.77 153.529 69.77C155.307 69.77 156.741 70.391 157.83 71.633C158.918 72.8597 159.401 74.439 159.279 76.371H150.125C150.155 77.2603 150.493 78.004 151.137 78.602C151.781 79.2 152.601 79.499 153.598 79.499C155.008 79.499 155.974 78.9623 156.496 77.889H159.141C158.788 79.0083 158.113 79.9283 157.117 80.649C156.12 81.3697 154.916 81.73 153.506 81.73ZM153.46 71.886C152.632 71.886 151.919 72.1237 151.321 72.599C150.738 73.059 150.362 73.7183 150.194 74.577H156.565C156.381 73.6877 156.005 73.0207 155.438 72.576C154.87 72.116 154.211 71.886 153.46 71.886ZM161.877 81.5V70H164.407V71.564C165.127 70.368 166.293 69.77 167.903 69.77C169.237 69.77 170.302 70.207 171.1 71.081C171.897 71.955 172.296 73.1203 172.296 74.577V81.5H169.766V74.991C169.766 74.071 169.551 73.358 169.122 72.852C168.692 72.3307 168.11 72.07 167.374 72.07C166.5 72.07 165.787 72.3997 165.235 73.059C164.683 73.7183 164.407 74.646 164.407 75.842V81.5H161.877ZM179.581 81.73C178.216 81.73 177.066 81.3927 176.131 80.718C175.211 80.0433 174.72 79.1387 174.659 78.004H177.281C177.465 79.1387 178.255 79.706 179.65 79.706C180.217 79.706 180.67 79.6063 181.007 79.407C181.344 79.1923 181.513 78.8857 181.513 78.487C181.513 78.0883 181.383 77.774 181.122 77.544C180.861 77.314 180.424 77.1223 179.811 76.969L177.925 76.463C175.962 75.9417 174.981 74.784 174.981 72.99C174.981 72.024 175.372 71.2497 176.154 70.667C176.936 70.069 177.971 69.77 179.259 69.77C180.501 69.77 181.521 70.0843 182.318 70.713C183.115 71.3417 183.56 72.1773 183.652 73.22H181.122C180.877 72.2693 180.248 71.794 179.236 71.794C178.73 71.794 178.324 71.9013 178.017 72.116C177.71 72.3153 177.557 72.599 177.557 72.967C177.557 73.6263 178.071 74.0863 179.098 74.347L181.03 74.853C183.069 75.3743 184.089 76.532 184.089 78.326C184.089 79.4147 183.667 80.258 182.824 80.856C181.996 81.4387 180.915 81.73 179.581 81.73ZM187.916 67.493C187.456 67.493 187.057 67.332 186.72 67.01C186.383 66.6727 186.214 66.2663 186.214 65.791C186.214 65.331 186.383 64.94 186.72 64.618C187.057 64.2807 187.456 64.112 187.916 64.112C188.391 64.112 188.79 64.2807 189.112 64.618C189.434 64.94 189.595 65.331 189.595 65.791C189.595 66.2663 189.434 66.6727 189.112 67.01C188.79 67.332 188.391 67.493 187.916 67.493ZM186.651 81.5V70H189.181V81.5H186.651ZM202.057 80.005C200.907 81.155 199.481 81.73 197.779 81.73C196.077 81.73 194.643 81.155 193.478 80.005C192.328 78.8397 191.753 77.4213 191.753 75.75C191.753 74.0787 192.328 72.668 193.478 71.518C194.643 70.3527 196.077 69.77 197.779 69.77C199.481 69.77 200.907 70.3527 202.057 71.518C203.222 72.668 203.805 74.0787 203.805 75.75C203.805 77.4213 203.222 78.8397 202.057 80.005ZM197.779 79.384C198.776 79.384 199.596 79.039 200.24 78.349C200.899 77.6437 201.229 76.7773 201.229 75.75C201.229 74.7227 200.899 73.864 200.24 73.174C199.596 72.4687 198.776 72.116 197.779 72.116C196.767 72.116 195.931 72.4687 195.272 73.174C194.628 73.864 194.306 74.7227 194.306 75.75C194.306 76.7773 194.628 77.6437 195.272 78.349C195.931 79.039 196.767 79.384 197.779 79.384ZM206.349 81.5V70H208.879V71.564C209.6 70.368 210.765 69.77 212.375 69.77C213.709 69.77 214.775 70.207 215.572 71.081C216.37 71.955 216.768 73.1203 216.768 74.577V81.5H214.238V74.991C214.238 74.071 214.024 73.358 213.594 72.852C213.165 72.3307 212.582 72.07 211.846 72.07C210.972 72.07 210.259 72.3997 209.707 73.059C209.155 73.7183 208.879 74.646 208.879 75.842V81.5H206.349ZM221.994 75.842V75.405C221.994 74.347 222.676 73.335 224.041 72.369C224.087 72.3383 224.217 72.2387 224.432 72.07C224.662 71.9013 224.8 71.8017 224.846 71.771C224.907 71.725 225.022 71.633 225.191 71.495C225.375 71.357 225.49 71.2573 225.536 71.196C225.582 71.1193 225.659 71.012 225.766 70.874C225.873 70.736 225.942 70.6133 225.973 70.506C226.004 70.3987 226.034 70.276 226.065 70.138C226.111 69.9847 226.134 69.8313 226.134 69.678C226.134 69.0033 225.912 68.4513 225.467 68.022C225.022 67.5927 224.455 67.378 223.765 67.378C223.014 67.378 222.385 67.6157 221.879 68.091C221.373 68.5663 221.12 69.1873 221.12 69.954H218.59C218.59 68.5587 219.088 67.3703 220.085 66.389C221.082 65.3923 222.308 64.894 223.765 64.894C225.191 64.894 226.364 65.354 227.284 66.274C228.204 67.194 228.664 68.298 228.664 69.586C228.664 71.15 227.913 72.507 226.41 73.657C225.505 74.3317 224.961 74.7993 224.777 75.06C224.608 75.29 224.524 75.5123 224.524 75.727V75.842H221.994ZM223.236 81.684C222.699 81.684 222.232 81.4923 221.833 81.109C221.45 80.7103 221.258 80.235 221.258 79.683C221.258 79.1463 221.45 78.6787 221.833 78.28C222.232 77.8813 222.699 77.682 223.236 77.682C223.788 77.682 224.256 77.8813 224.639 78.28C225.038 78.6787 225.237 79.1463 225.237 79.683C225.237 80.235 225.038 80.7103 224.639 81.109C224.256 81.4923 223.788 81.684 223.236 81.684Z" fill="#0E0B3D"/>
<path d="M361.668 25.4023C365.752 25.4023 369.795 26.2067 373.568 27.7695C377.341 29.3323 380.769 31.6229 383.657 34.5106C386.545 37.3983 388.835 40.8265 390.398 44.5994C391.961 48.3723 392.765 52.4161 392.765 56.4999C392.765 60.5837 391.961 64.6275 390.398 68.4004C388.835 72.1734 386.545 75.6015 383.657 78.4892C380.769 81.3769 377.341 83.6675 373.568 85.2303C369.795 86.7931 365.752 87.5975 361.668 87.5975C357.584 87.5975 353.54 86.7931 349.767 85.2303C345.994 83.6675 342.566 81.3769 339.678 78.4892C336.791 75.6015 334.5 72.1733 332.937 68.4004C331.375 64.6275 330.57 60.5837 330.57 56.4999C330.57 52.4161 331.375 48.3723 332.937 44.5994C334.5 40.8264 336.791 37.3983 339.678 34.5106C342.566 31.6229 345.994 29.3323 349.767 27.7695C353.54 26.2067 357.584 25.4023 361.668 25.4023L361.668 25.4023Z" stroke="#FFC857" stroke-opacity="0.1" stroke-width="11" stroke-linecap="round" stroke-linejoin="round"/>
<path d="M362.098 25C367.416 25 372.645 26.3638 377.285 28.961C381.926 31.5583 385.823 35.3022 388.604 39.8351C391.385 44.3679 392.957 49.5382 393.17 54.852C393.383 60.1657 392.23 65.4452 389.821 70.1862C387.411 74.9271 383.827 78.9709 379.409 81.9313C374.991 84.8917 369.888 86.6697 364.587 87.0953C359.286 87.521 353.964 86.5802 349.131 84.3627C344.297 82.1453 340.113 78.7253 336.978 74.4296" stroke="#FFC857" stroke-width="7" stroke-linecap="round" stroke-linejoin="round"/>
<path d="M353.456 60.8041C352.822 61.4385 352.006 61.7557 351.007 61.7557C350.009 61.7557 349.193 61.4385 348.558 60.8041C347.924 60.1604 347.607 59.3627 347.607 58.4111C347.607 57.954 347.695 57.5342 347.873 57.1517C348.059 56.7692 348.344 56.3307 348.726 55.8362L352.043 51.6801H353.974L351.175 55.2065H351.329C352.141 55.2065 352.859 55.5144 353.484 56.1301C354.109 56.7365 354.422 57.4922 354.422 58.3971C354.422 59.358 354.1 60.1604 353.456 60.8041ZM349.678 59.7405C350.032 60.0951 350.476 60.2723 351.007 60.2723C351.539 60.2723 351.982 60.0951 352.337 59.7405C352.691 59.3767 352.868 58.9336 352.868 58.4111C352.868 57.898 352.687 57.4595 352.323 57.0957C351.968 56.7319 351.53 56.5499 351.007 56.5499C350.485 56.5499 350.046 56.7319 349.692 57.0957C349.337 57.4595 349.16 57.898 349.16 58.4111C349.16 58.9336 349.333 59.3767 349.678 59.7405ZM358.906 61.7557C358.001 61.7557 357.208 61.4711 356.527 60.902C355.846 60.3329 355.496 59.6426 355.478 58.8309H357.059C357.162 59.2508 357.381 59.5913 357.717 59.8525C358.062 60.1137 358.458 60.2443 358.906 60.2443C359.457 60.2443 359.904 60.0671 360.25 59.7126C360.595 59.3487 360.767 58.9102 360.767 58.3971C360.767 57.8654 360.595 57.4269 360.25 57.0817C359.914 56.7272 359.48 56.5499 358.948 56.5499C358.146 56.5499 357.567 56.8904 357.213 57.5715L355.828 57.1377L356.891 51.6801H361.621V53.1774H358.095L357.633 55.5564C358.043 55.2672 358.561 55.1226 359.186 55.1226C360.119 55.1226 360.875 55.4444 361.453 56.0881C362.032 56.7319 362.321 57.5528 362.321 58.5511C362.321 59.484 361.999 60.2536 361.355 60.8601C360.721 61.4571 359.904 61.7557 358.906 61.7557ZM367.449 61.6157H365.826L372.123 51.6801H373.746L367.449 61.6157ZM373.509 61.7277C372.744 61.7277 372.09 61.4571 371.549 60.916C371.018 60.3749 370.752 59.7265 370.752 58.9709C370.752 58.2059 371.018 57.5575 371.549 57.0257C372.09 56.4846 372.744 56.2141 373.509 56.2141C374.264 56.2141 374.913 56.4846 375.454 57.0257C375.995 57.5575 376.265 58.2059 376.265 58.9709C376.265 59.7265 375.995 60.3749 375.454 60.916C374.913 61.4571 374.264 61.7277 373.509 61.7277ZM372.501 59.9644C372.781 60.2443 373.117 60.3843 373.509 60.3843C373.9 60.3843 374.227 60.249 374.488 59.9784C374.759 59.6986 374.894 59.3627 374.894 58.9709C374.894 58.579 374.759 58.2479 374.488 57.9773C374.227 57.6974 373.9 57.5575 373.509 57.5575C373.117 57.5575 372.781 57.6974 372.501 57.9773C372.23 58.2572 372.095 58.5884 372.095 58.9709C372.095 59.3534 372.23 59.6846 372.501 59.9644ZM366.064 57.0817C365.299 57.0817 364.646 56.8111 364.105 56.2701C363.573 55.729 363.307 55.0806 363.307 54.3249C363.307 53.5599 363.573 52.9115 364.105 52.3797C364.646 51.8386 365.299 51.5681 366.064 51.5681C366.819 51.5681 367.468 51.8386 368.009 52.3797C368.55 52.9115 368.821 53.5599 368.821 54.3249C368.821 55.0806 368.55 55.729 368.009 56.2701C367.468 56.8111 366.819 57.0817 366.064 57.0817ZM366.064 55.7383C366.446 55.7383 366.773 55.5983 367.043 55.3185C367.323 55.0386 367.463 54.7074 367.463 54.3249C367.463 53.9424 367.323 53.6112 367.043 53.3313C366.773 53.0515 366.446 52.9115 366.064 52.9115C365.672 52.9115 365.341 53.0515 365.07 53.3313C364.8 53.6019 364.664 53.9331 364.664 54.3249C364.664 54.7167 364.8 55.0526 365.07 55.3325C365.341 55.603 365.672 55.7383 366.064 55.7383Z" fill="#0E0B3D"/>
</svg>
