<svg width="81" height="19" viewBox="0 0 81 19" fill="none" xmlns="http://www.w3.org/2000/svg">
<g clip-path="url(#clip0_14_1321)">
<path d="M25.4833 3.15983C25.1893 2.06146 24.3261 1.1983 23.2278 0.904284C21.239 0.37085 13.2605 0.37085 13.2605 0.37085C13.2605 0.37085 5.28219 0.37085 3.29336 0.904284C2.195 1.1983 1.33185 2.06146 1.03783 3.15983C0.504395 5.14865 0.504395 9.30062 0.504395 9.30062C0.504395 9.30062 0.504395 13.4526 1.03783 15.4414C1.33185 16.5398 2.195 17.403 3.29336 17.6969C5.28219 18.2304 13.2605 18.2304 13.2605 18.2304C13.2605 18.2304 21.239 18.2304 23.2278 17.6969C24.3261 17.403 25.1893 16.5398 25.4833 15.4414C26.0168 13.4526 26.0168 9.30062 26.0168 9.30062C26.0168 9.30062 26.0146 5.14865 25.4833 3.15983Z" fill="#FF0000"/>
<path d="M10.7072 13.1272L17.3352 9.30083L10.7072 5.47437V13.1272Z" fill="white"/>
<path d="M31.4036 11.9826L28.5391 1.63733L31.0382 1.63733L32.0421 6.32693C32.2983 7.482 32.4852 8.46697 32.607 9.28182H32.6805C32.7645 8.69798 32.9536 7.71932 33.2455 6.34373L34.285 1.63733H36.7842L33.8839 11.9826V16.9452H31.4016V11.9826H31.4036Z" fill="#282828"/>
<path d="M37.5359 16.6172C37.0319 16.277 36.6728 15.7477 36.4586 15.0295C36.2465 14.3113 36.1394 13.3578 36.1394 12.1649V10.5415C36.1394 9.33811 36.2612 8.36999 36.5048 7.64124C36.7484 6.9125 37.1286 6.37907 37.6451 6.04515C38.1618 5.71123 38.8401 5.54321 39.6802 5.54321C40.5077 5.54321 41.1692 5.71332 41.669 6.05355C42.1667 6.39376 42.5321 6.9272 42.7631 7.64965C42.9941 8.37419 43.1097 9.33811 43.1097 10.5415V12.1649C43.1097 13.3578 42.9963 14.3155 42.7716 15.0379C42.5469 15.7624 42.1814 16.2917 41.6774 16.6256C41.1734 16.9596 40.4887 17.1275 39.6256 17.1275C38.7351 17.1296 38.04 16.9574 37.5359 16.6172ZM40.3627 14.8657C40.5013 14.5003 40.5728 13.906 40.5728 13.0785V9.5944C40.5728 8.79212 40.5035 8.20408 40.3627 7.83446C40.222 7.46274 39.9763 7.27793 39.6234 7.27793C39.2833 7.27793 39.0418 7.46274 38.9032 7.83446C38.7624 8.20618 38.6931 8.79212 38.6931 9.5944V13.0785C38.6931 13.906 38.7603 14.5024 38.8948 14.8657C39.0292 15.2311 39.2706 15.4138 39.6234 15.4138C39.9763 15.4138 40.222 15.2311 40.3627 14.8657Z" fill="#282828"/>
<path d="M51.2392 16.9474H49.2693L49.0509 15.5782H48.9963C48.4607 16.6114 47.6585 17.128 46.5874 17.128C45.8461 17.128 45.298 16.8844 44.9452 16.3993C44.5923 15.912 44.4159 15.1518 44.4159 14.1186V5.76211H46.934V13.9715C46.934 14.4714 46.9886 14.8263 47.0978 15.0384C47.207 15.2505 47.3897 15.3576 47.6459 15.3576C47.8643 15.3576 48.0743 15.2904 48.276 15.156C48.4776 15.0216 48.6246 14.8514 48.7232 14.6457V5.76001H51.2392V16.9474Z" fill="#282828"/>
<path d="M58.0795 3.66357H55.5803V16.9469H53.1168V3.66357H50.6177V1.63904L58.0795 1.63904V3.66357Z" fill="#282828"/>
<path d="M64.1529 16.9474H62.183L61.9646 15.5782H61.91C61.3745 16.6114 60.5722 17.128 59.5011 17.128C58.7598 17.128 58.2117 16.8844 57.8589 16.3993C57.506 15.912 57.3296 15.1518 57.3296 14.1186V5.76211H59.8477V13.9715C59.8477 14.4714 59.9022 14.8263 60.0115 15.0384C60.1207 15.2505 60.3034 15.3576 60.5597 15.3576C60.778 15.3576 60.988 15.2904 61.1896 15.156C61.3913 15.0216 61.5383 14.8514 61.6369 14.6457V5.76001H64.1529V16.9474Z" fill="#282828"/>
<path d="M72.4864 7.54908C72.3331 6.84344 72.0874 6.3331 71.7472 6.01598C71.407 5.69887 70.9386 5.54135 70.3422 5.54135C69.8802 5.54135 69.4475 5.67156 69.0464 5.93408C68.6453 6.19659 68.3344 6.53892 68.116 6.96524H68.0972V1.07227L65.6715 1.07227V16.9451H67.7506L68.0068 15.8866H68.0615C68.2568 16.2646 68.5487 16.5607 68.9372 16.7813C69.3257 16.9997 69.7584 17.1089 70.233 17.1089C71.0836 17.1089 71.7115 16.7162 72.1126 15.9328C72.5137 15.1473 72.7153 13.923 72.7153 12.2555V10.4851C72.7153 9.23548 72.6376 8.25473 72.4864 7.54908ZM70.1784 12.1126C70.1784 12.9275 70.1448 13.566 70.0775 14.028C70.0104 14.49 69.899 14.8198 69.7395 15.0129C69.5819 15.2082 69.3677 15.3049 69.101 15.3049C68.8931 15.3049 68.702 15.2565 68.5255 15.1579C68.3492 15.0613 68.2064 14.9143 68.0972 14.721V8.37233C68.1811 8.06781 68.3282 7.82 68.5361 7.62469C68.7419 7.42937 68.9687 7.33276 69.2102 7.33276C69.4665 7.33276 69.6638 7.43357 69.8025 7.63309C69.9431 7.8347 70.0398 8.17072 70.0944 8.64535C70.149 9.11998 70.1763 9.79411 70.1763 10.6699V12.1126H70.1784Z" fill="#282828"/>
<path d="M76.2875 12.7574C76.2875 13.4756 76.3085 14.0132 76.3505 14.3724C76.3925 14.7315 76.4807 14.9919 76.6151 15.1579C76.7495 15.3216 76.9553 15.4035 77.2347 15.4035C77.6106 15.4035 77.871 15.2565 78.0096 14.9646C78.1503 14.6727 78.2259 14.1855 78.2385 13.505L80.4101 13.6331C80.4227 13.7297 80.4289 13.8641 80.4289 14.0342C80.4289 15.0675 80.1454 15.8404 79.5805 16.3507C79.0156 16.861 78.2154 17.1172 77.1821 17.1172C75.941 17.1172 75.0715 16.7287 74.5738 15.9496C74.074 15.1704 73.8262 13.9671 73.8262 12.3373V10.3842C73.8262 8.70621 74.0845 7.47973 74.6011 6.70689C75.1178 5.93403 76.0019 5.54761 77.2556 5.54761C78.1188 5.54761 78.7824 5.70512 79.2445 6.02224C79.7065 6.33936 80.032 6.83079 80.221 7.50073C80.4101 8.17067 80.5046 9.09473 80.5046 10.275V12.1903H76.2875V12.7574ZM76.6067 7.48603C76.4786 7.64354 76.3946 7.90186 76.3505 8.26098C76.3085 8.62011 76.2875 9.16403 76.2875 9.89492V10.6972H78.1293V9.89492C78.1293 9.17663 78.1041 8.63271 78.0558 8.26098C78.0075 7.88926 77.9193 7.62884 77.7912 7.47553C77.6631 7.32433 77.4657 7.24662 77.1989 7.24662C76.9302 7.24872 76.7327 7.32852 76.6067 7.48603Z" fill="#282828"/>
</g>
<defs>
<clipPath id="clip0_14_1321">
<rect width="80" height="17.8596" fill="white" transform="translate(0.504639 0.370605)"/>
</clipPath>
</defs>
</svg>
