<svg width="57" height="17" viewBox="0 0 57 17" fill="none" xmlns="http://www.w3.org/2000/svg">
<g clip-path="url(#clip0_14_1414)">
<path fill-rule="evenodd" clip-rule="evenodd" d="M10.4824 2.63953H1.94058C1.20575 2.63953 0.609777 3.2347 0.608775 3.96953L0.608775 12.4988C0.607354 12.8529 0.747036 13.193 0.996951 13.444C1.24687 13.6949 1.58643 13.8359 1.94058 13.8359H10.4824C10.8362 13.8355 11.1753 13.6942 11.4248 13.4433C11.6744 13.1925 11.8138 12.8526 11.8124 12.4988V3.96953C11.8114 3.2354 11.2165 2.64052 10.4824 2.63953ZM5.44058 10.7039C5.44011 10.8223 5.39251 10.9356 5.30831 11.0188C5.2241 11.1019 5.11023 11.1482 4.99186 11.1472H3.1252C2.88105 11.1462 2.68366 10.948 2.68366 10.7039V5.14876C2.68366 4.90461 2.88105 4.70641 3.1252 4.70542H4.99186C5.2363 4.70641 5.43421 4.90432 5.4352 5.14876L5.44058 10.7039ZM9.74828 8.15337C9.74828 8.27189 9.70084 8.38548 9.61653 8.46878C9.53222 8.55207 9.41807 8.59815 9.29956 8.59674H7.43289C7.18845 8.59572 6.99054 8.39781 6.98956 8.15337V5.14876C6.99054 4.90432 7.18845 4.70641 7.43289 4.70542H9.29956C9.5437 4.70641 9.7411 4.90461 9.7411 5.14876L9.74828 8.15337Z" fill="url(#paint0_linear_14_1414)"/>
<path d="M23.8237 3.45984V5.62445H21.2588V13.836H18.7855V5.62445H16.2206V3.45984H23.8237Z" fill="#293856"/>
<path d="M26.9718 13.8359H24.6852V5.759H26.9718V7.30618C27.4062 6.21669 28.1008 5.56874 29.3375 5.64772V8.04028C27.7221 7.91464 26.9718 8.30951 26.9718 9.60361V13.8359Z" fill="#293856"/>
<path d="M41.8298 13.8988C40.3311 13.8988 39.3888 13.1808 39.3888 11.4829V2.63953H41.6916V11.167C41.6916 11.657 42.0147 11.8311 42.4096 11.8311C42.5235 11.8334 42.6374 11.828 42.7506 11.8149V13.8054C42.4494 13.8788 42.1396 13.9102 41.8298 13.8988Z" fill="#293856"/>
<path d="M46.6329 13.8988C45.1342 13.8988 44.1901 13.1808 44.1901 11.4829V2.63953H46.4929V11.167C46.4929 11.657 46.8178 11.8311 47.2198 11.8311C47.3331 11.8334 47.4465 11.828 47.559 11.8149V13.8054C47.2562 13.8795 46.9444 13.9109 46.6329 13.8988Z" fill="#293856"/>
<path d="M48.6628 9.79384C48.6628 7.29896 50.0987 5.59204 52.5721 5.59204C55.0454 5.59204 56.4508 7.29358 56.4508 9.79384C56.4508 12.2941 55.0293 14.0261 52.5721 14.0261C50.1149 14.0261 48.6628 12.2726 48.6628 9.79384ZM50.9046 9.79384C50.9046 11.009 51.4144 11.9728 52.5721 11.9728C53.7298 11.9728 54.2108 11.009 54.2108 9.79384C54.2108 8.57871 53.7172 7.63999 52.5721 7.63999C51.4269 7.63999 50.9046 8.57691 50.9046 9.79384Z" fill="#293856"/>
<path d="M32.4246 10.5244C33.0649 10.5947 33.7083 10.6325 34.3523 10.6375C36.1041 10.6375 37.5831 10.1672 37.5831 8.47106C37.5831 6.82517 36.0628 5.5885 34.2339 5.5885C31.7713 5.5885 30.1936 7.3744 30.1936 9.86927C30.1936 12.4593 31.5541 13.9975 34.6287 13.9975C35.5409 14.0049 36.4464 13.843 37.2995 13.52V11.5852C36.5098 11.8382 35.6213 12.0895 34.7095 12.0895C33.4854 12.0895 32.6328 11.6875 32.4246 10.5244ZM34.1872 7.35106C34.8351 7.35106 35.3557 7.79081 35.3557 8.39209C35.3557 9.16568 34.539 9.40799 33.5985 9.40799C33.1982 9.40615 32.7986 9.37435 32.4031 9.31286C32.433 8.9357 32.5412 8.56892 32.7208 8.23594C33.0142 7.69857 33.575 7.36157 34.1872 7.35465V7.35106Z" fill="#293856"/>
</g>
<defs>
<linearGradient id="paint0_linear_14_1414" x1="6.21597" y1="13.8359" x2="6.21597" y2="2.63953" gradientUnits="userSpaceOnUse">
<stop stop-color="#0052CC"/>
<stop offset="1" stop-color="#2684FF"/>
</linearGradient>
<clipPath id="clip0_14_1414">
<rect width="56" height="16" fill="white" transform="translate(0.504639 0.370605)"/>
</clipPath>
</defs>
</svg>
