<svg width="55" height="15" viewBox="0 0 55 15" fill="none" xmlns="http://www.w3.org/2000/svg">
<g clip-path="url(#clip0_14_1431)">
<path d="M17.7998 11.1598L18.4721 9.59835C19.1986 10.1405 20.1637 10.4225 21.1179 10.4225C21.8227 10.4225 22.2673 10.1514 22.2673 9.73932C22.2564 8.58992 18.0492 9.48992 18.0167 6.60558C18.0058 5.14173 19.307 4.01401 21.1504 4.01401C22.2456 4.01401 23.3408 4.2851 24.1215 4.90317L23.4926 6.49715C22.7769 6.04173 21.8878 5.71642 21.042 5.71642C20.4673 5.71642 20.0878 5.98751 20.0878 6.3345C20.0986 7.46221 24.3384 6.84414 24.3817 9.59835C24.3817 11.0947 23.1131 12.1465 21.2914 12.1465C19.9576 12.1465 18.7323 11.8321 17.7998 11.1598ZM43.5962 9.0345C43.26 9.62004 42.6311 10.0212 41.9046 10.0212C40.8311 10.0212 39.9637 9.15378 39.9637 8.08028C39.9637 7.00679 40.8311 6.13932 41.9046 6.13932C42.6311 6.13932 43.26 6.54052 43.5962 7.12606L45.4504 6.09594C44.7564 4.8598 43.4227 4.01401 41.9046 4.01401C39.66 4.01401 37.8384 5.8357 37.8384 8.08028C37.8384 10.3249 39.66 12.1465 41.9046 12.1465C43.4335 12.1465 44.7564 11.3116 45.4504 10.0646L43.5962 9.0345ZM25.3143 0.641724L27.6347 0.641724V11.9947H25.3143V0.641724ZM46.3613 0.641724V11.9947H48.6817V8.58992L51.436 11.9947H54.407L50.9046 7.95016L54.1468 4.17666H51.3058L48.6817 7.3104V0.641724H46.3613ZM34.5311 9.05618C34.195 9.6092 33.501 10.0212 32.7203 10.0212C31.6468 10.0212 30.7793 9.15378 30.7793 8.08028C30.7793 7.00679 31.6468 6.13932 32.7203 6.13932C33.501 6.13932 34.195 6.57305 34.5311 7.13691V9.05618ZM34.5311 4.17666V5.09835C34.1516 4.45859 33.2082 4.01401 32.2215 4.01401C30.1829 4.01401 28.5781 5.81402 28.5781 8.06944C28.5781 10.3249 30.1829 12.1465 32.2215 12.1465C33.2082 12.1465 34.1516 11.702 34.5311 11.0622V11.9839H36.8516V4.17666H34.5311Z" fill="black"/>
<path d="M3.45408 9.04534C3.45408 9.83691 2.81432 10.4767 2.02276 10.4767C1.23119 10.4767 0.591431 9.83691 0.591431 9.04534C0.591431 8.25377 1.23119 7.61401 2.02276 7.61401H3.45408V9.04534ZM4.16975 9.04534C4.16975 8.25377 4.80951 7.61401 5.60107 7.61401C6.39264 7.61401 7.0324 8.25377 7.0324 9.04534V12.6237C7.0324 13.4152 6.39264 14.055 5.60107 14.055C4.80951 14.055 4.16975 13.4152 4.16975 12.6237V9.04534Z" fill="#E01E5A"/>
<path d="M5.60105 3.29832C4.80948 3.29832 4.16972 2.65856 4.16972 1.86699C4.16972 1.07543 4.80948 0.435669 5.60105 0.435669C6.39261 0.435669 7.03237 1.07543 7.03237 1.86699V3.29832H5.60105ZM5.60105 4.02483C6.39261 4.02483 7.03237 4.66459 7.03237 5.45615C7.03237 6.24772 6.39261 6.88748 5.60105 6.88748H2.01189C1.22033 6.88748 0.580566 6.24772 0.580566 5.45615C0.580566 4.66459 1.22033 4.02483 2.01189 4.02483H5.60105Z" fill="#36C5F0"/>
<path d="M11.3372 5.45615C11.3372 4.66459 11.977 4.02483 12.7686 4.02483C13.5601 4.02483 14.1999 4.66459 14.1999 5.45615C14.1999 6.24772 13.5601 6.88748 12.7686 6.88748H11.3372V5.45615ZM10.6216 5.45615C10.6216 6.24772 9.9818 6.88748 9.19024 6.88748C8.39867 6.88748 7.75891 6.24772 7.75891 5.45615V1.86699C7.75891 1.07543 8.39867 0.435669 9.19024 0.435669C9.9818 0.435669 10.6216 1.07543 10.6216 1.86699V5.45615Z" fill="#2EB67D"/>
<path d="M9.19024 11.1923C9.9818 11.1923 10.6216 11.8321 10.6216 12.6237C10.6216 13.4152 9.9818 14.055 9.19024 14.055C8.39867 14.055 7.75891 13.4152 7.75891 12.6237V11.1923H9.19024ZM9.19024 10.4767C8.39867 10.4767 7.75891 9.83691 7.75891 9.04534C7.75891 8.25377 8.39867 7.61401 9.19024 7.61401H12.7794C13.571 7.61401 14.2107 8.25377 14.2107 9.04534C14.2107 9.83691 13.571 10.4767 12.7794 10.4767H9.19024Z" fill="#ECB22E"/>
</g>
<defs>
<clipPath id="clip0_14_1431">
<rect width="54" height="13.7711" fill="white" transform="translate(0.504639 0.370605)"/>
</clipPath>
</defs>
</svg>
