<svg width="78" height="24" viewBox="0 0 78 24" fill="none" xmlns="http://www.w3.org/2000/svg">
<g clip-path="url(#clip0_14_1339)">
<path d="M40.162 8.58715C43.6994 8.58715 46.2173 11.2787 46.2173 14.6969C46.2173 18.1701 43.6726 20.8005 40.162 20.8005C36.65 20.8005 34.1068 18.1956 34.1068 14.6969C34.1068 11.254 36.6418 8.58715 40.162 8.58715ZM52.8763 8.58715C56.4137 8.58715 58.9316 11.2787 58.9316 14.6969C58.9316 18.1701 56.3855 20.8005 52.8763 20.8005C49.3643 20.8005 46.8211 18.1956 46.8211 14.6969C46.8211 11.254 49.3561 8.58715 52.8763 8.58715ZM73.3324 8.59893C75.4652 8.59893 77.5046 9.889 77.5046 12.9844V20.4662H74.4808V13.6182C74.4808 12.3749 73.8708 11.4371 72.4408 11.4371C71.1044 11.4371 70.3072 12.4691 70.3072 13.7124V20.4669H67.2139V13.6182C67.2139 12.3749 66.5811 11.4371 65.1739 11.4371C63.8141 11.4371 63.0168 12.4457 63.0168 13.7124V20.4669H59.9001V8.92713H62.8772V10.3348C63.5098 9.20922 64.9873 8.59893 66.2527 8.59893C67.8239 8.59893 69.0893 9.27939 69.6752 10.522C70.5888 9.11427 71.8088 8.59893 73.3324 8.59893ZM33.1168 3.48608V20.4662H29.9994V3.48608H33.1168ZM52.8763 11.3723C51.0443 11.3723 49.5537 12.864 49.5537 14.6962C49.5537 16.5285 51.0443 18.0202 52.8763 18.0202C54.7083 18.0202 56.199 16.5285 56.199 14.6962C56.1982 12.864 54.7077 11.3723 52.8763 11.3723ZM40.162 11.4115C38.3506 11.4115 36.8772 12.8853 36.8772 14.6976C36.8772 16.5099 38.3506 17.9837 40.162 17.9837C41.9734 17.9837 43.4461 16.5099 43.4461 14.6976C43.4461 12.8853 41.9734 11.4115 40.162 11.4115Z" fill="#222222"/>
<path d="M23.7161 10.6857H16.9288L22.8069 7.29192L21.5161 5.05539L15.6379 8.44916L19.0309 2.57142L16.7943 1.27977L13.4013 7.15749V0.370605L10.8194 0.370605V7.15814L7.42511 1.27977L5.18928 2.57077L8.58295 8.44851L2.70474 5.05539L1.41377 7.29127L7.29198 10.685H0.504639V13.2671H7.29133L1.41377 16.6608L2.70474 18.8974L8.5823 15.5042L5.18863 21.3819L7.42511 22.6729L10.8188 16.7946V23.5821H13.4007V16.7952L16.7937 22.6729L19.0302 21.3819L15.6365 15.5036L21.5147 18.8974L22.8057 16.6608L16.9281 13.2677H23.7148V10.6857H23.7161ZM12.1104 15.4879C10.1635 15.4879 8.58554 13.91 8.58554 11.9631C8.58554 10.0162 10.1635 8.43811 12.1104 8.43811C14.0572 8.43811 15.6352 10.0162 15.6352 11.9631C15.6352 13.91 14.0572 15.4879 12.1104 15.4879Z" fill="#625DF5"/>
</g>
<defs>
<clipPath id="clip0_14_1339">
<rect width="77" height="23.3106" fill="white" transform="translate(0.504639 0.370605)"/>
</clipPath>
</defs>
</svg>
