<svg width="84" height="26" viewBox="0 0 84 26" fill="none" xmlns="http://www.w3.org/2000/svg">
<path d="M54.251 6.56585C50.6034 6.58337 47.632 9.58144 47.6487 13.3144C47.6655 17.0473 50.6666 20.0172 54.3143 20.0005C57.9619 19.9837 60.9341 16.9849 60.9166 13.2535C60.8991 9.52204 57.8987 6.54986 54.2495 6.56737L54.251 6.56585ZM54.3013 17.2628C53.2672 17.2689 52.2734 16.863 51.5385 16.1358C50.8037 15.4085 50.3963 14.4178 50.3848 13.3837C50.3734 12.3495 50.7846 11.3558 51.5119 10.6209C52.2391 9.88605 53.2299 9.47864 54.264 9.46722C55.2981 9.45579 56.2919 9.86701 57.0268 10.5943C57.7616 11.3215 58.169 12.3122 58.1805 13.3464C58.1911 15.4215 56.3757 17.2529 54.3013 17.2636V17.2628ZM69.029 9.72994C67.1214 9.73908 65.6357 11.3215 65.6448 13.2291L65.6753 19.6144L62.7724 19.6281L62.7137 6.93899L65.6166 6.92529L65.6265 8.91512C65.6265 8.91512 66.8602 6.91996 69.3488 6.90853L70.1789 6.90396L70.1926 9.72308L69.029 9.72994ZM40.0717 7.04713L42.2694 15.7451L44.5509 7.0258L47.4538 7.01286L43.8625 19.7263L41.0434 19.7393L38.7634 10.8768L36.5657 19.7598L33.7458 19.7728L29.955 7.10119L32.7741 7.08825L35.3023 15.7847L37.3355 7.06693L40.0717 7.04713ZM78.6614 12.6717C80.6451 11.502 82.0463 9.33852 82.0349 6.85066L79.132 6.86436C79.1426 9.02097 77.4079 10.7709 75.3351 10.7785L74.92 10.7801L74.8744 0.745605L71.9715 0.759312L72.0606 19.5839L74.9619 19.571L74.9345 13.6007L75.2658 13.5992C75.5978 13.5977 75.9306 13.7621 76.0151 14.0104L80.1044 19.5466L83.5046 19.5314L78.6614 12.6717Z" fill="#4B4B4B"/>
<path d="M23.2358 6.71295C20.0854 6.72818 17.6897 8.81244 16.7934 12.1334C15.2894 9.8184 14.1159 7.17062 13.4428 4.93481L10.1264 4.95005L10.1675 13.7402C10.1711 14.5759 9.84278 15.3789 9.2546 15.9727C8.66642 16.5664 7.86655 16.9023 7.03081 16.9066C6.19506 16.9102 5.39207 16.5819 4.79832 15.9937C4.20457 15.4055 3.86867 14.6056 3.86444 13.7699L3.82255 4.97974L0.504639 4.99497L0.545761 13.7851C0.563275 17.4328 3.47759 20.3235 7.04452 20.306C10.6114 20.2885 13.5006 17.3726 13.4839 13.7242L13.4763 12.2316C14.1449 13.5544 14.981 14.9601 15.9002 16.2006L13.8722 25.9122L17.2716 25.897L18.7337 18.8408C20.0641 19.6648 21.5513 20.1544 23.2998 20.146C26.949 20.1285 29.9211 17.1305 29.9021 13.3153C29.8882 11.5575 29.1795 9.87658 27.9307 8.63947C26.6819 7.40236 24.9944 6.70952 23.2366 6.71219L23.2358 6.71295ZM23.283 16.7474C21.9565 16.7535 20.6276 16.1793 19.5455 15.2716L19.8707 13.9443V13.8681C20.1144 12.4563 20.8469 10.0484 23.3356 10.0377C24.2131 10.0363 25.0556 10.3814 25.6798 10.9981C26.3041 11.6148 26.6595 12.4531 26.6687 13.3305C26.5941 15.2381 25.0261 16.7383 23.2838 16.7467L23.283 16.7474Z" fill="#6FDA44"/>
</svg>
