<svg width="55" height="23" viewBox="0 0 55 23" fill="none" xmlns="http://www.w3.org/2000/svg">
<g clip-path="url(#clip0_14_1385)">
<path d="M7.50055 5.48108C3.69431 5.48108 0.522583 7.09587 0.522583 11.9676C0.522583 15.8271 2.65534 18.2576 7.59883 18.2576C13.4175 18.2576 13.7905 14.4247 13.7905 14.4247H10.9711C10.9711 14.4247 10.3666 16.4886 7.42684 16.4886C5.03249 16.4886 3.31038 14.8711 3.31038 12.604H14.0854V11.1814C14.0854 8.93852 12.6616 5.48108 7.50055 5.48108ZM7.40227 7.29928C9.68144 7.29928 11.2352 8.69555 11.2352 10.7883H3.37274C3.37274 8.56659 5.40083 7.29928 7.40227 7.29928Z" fill="#E53238"/>
<path d="M14.0834 0.763672V15.8111C14.0834 16.6653 14.0225 17.8646 14.0225 17.8646H16.7116C16.7116 17.8646 16.8081 17.0032 16.8081 16.216C16.8081 16.216 18.1368 18.2946 21.7494 18.2946C25.5536 18.2946 28.1376 15.6534 28.1376 11.8694C28.1376 8.34926 25.7641 5.51803 21.7555 5.51803C18.0017 5.51803 16.8353 7.54508 16.8353 7.54508V0.763672H14.0834ZM21.0614 7.37923C23.6447 7.37923 25.2875 9.29653 25.2875 11.8694C25.2875 14.6284 23.3902 16.4334 21.0798 16.4334C18.3226 16.4334 16.8353 14.2806 16.8353 11.894C16.8353 9.67023 18.1699 7.37923 21.0614 7.37923Z" fill="#0064D2"/>
<path d="M34.8207 5.48108C29.0945 5.48108 28.7273 8.61646 28.7273 9.11748H31.5775C31.5775 9.11748 31.7269 7.287 34.6242 7.287C36.5069 7.287 37.9657 8.14873 37.9657 9.80545V10.3951H34.6242C30.188 10.3951 27.8428 11.6929 27.8428 14.3264C27.8428 16.9181 30.0097 18.3283 32.938 18.3283C36.9289 18.3283 38.2145 16.1231 38.2145 16.1231C38.2145 17.0002 38.2821 17.8645 38.2821 17.8645H40.8159C40.8159 17.8645 40.7176 16.7932 40.7176 16.1077V10.1832C40.7176 6.2986 37.5843 5.48108 34.8207 5.48108ZM37.9657 12.1642V12.9505C37.9657 13.9759 37.3329 16.5254 33.6076 16.5254C31.5676 16.5254 30.6929 15.5073 30.6929 14.3264C30.6929 12.178 33.6384 12.1642 37.9657 12.1642Z" fill="#F5AF02"/>
<path d="M39.1829 5.97302H42.3893L46.9909 15.1922L51.5821 5.97302H54.4866L46.124 22.386H43.0773L45.4904 17.8106L39.1829 5.97302Z" fill="#86B817"/>
</g>
<defs>
<clipPath id="clip0_14_1385">
<rect width="54" height="21.6583" fill="white" transform="translate(0.504639 0.745605)"/>
</clipPath>
</defs>
</svg>
