<svg width="57" height="20" viewBox="0 0 57 20" fill="none" xmlns="http://www.w3.org/2000/svg">
<g clip-path="url(#clip0_14_1397)">
<path d="M24.3355 10.3757C24.3355 13.0048 22.2787 14.9421 19.7546 14.9421C17.2305 14.9421 15.1737 13.0048 15.1737 10.3757C15.1737 7.72803 17.2305 5.8092 19.7546 5.8092C22.2787 5.8092 24.3355 7.72803 24.3355 10.3757ZM22.3302 10.3757C22.3302 8.73273 21.1381 7.60862 19.7546 7.60862C18.3711 7.60862 17.179 8.73273 17.179 10.3757C17.179 12.0021 18.3711 13.1427 19.7546 13.1427C21.1381 13.1427 22.3302 12.0001 22.3302 10.3757Z" fill="#EA4335"/>
<path d="M34.2179 10.3757C34.2179 13.0048 32.1612 14.9421 29.637 14.9421C27.1129 14.9421 25.0562 13.0048 25.0562 10.3757C25.0562 7.73009 27.1129 5.8092 29.637 5.8092C32.1612 5.8092 34.2179 7.72803 34.2179 10.3757ZM32.2126 10.3757C32.2126 8.73273 31.0206 7.60862 29.637 7.60862C28.2535 7.60862 27.0614 8.73273 27.0614 10.3757C27.0614 12.0021 28.2535 13.1427 29.637 13.1427C31.0206 13.1427 32.2126 12.0001 32.2126 10.3757Z" fill="#FBBC05"/>
<path d="M43.6884 6.08509V14.2833C43.6884 17.6557 41.6996 19.033 39.3484 19.033C37.1352 19.033 35.8031 17.5527 35.3008 16.3421L37.0467 15.6154C37.3576 16.3586 38.1193 17.2357 39.3464 17.2357C40.8514 17.2357 41.784 16.3071 41.784 14.5592V13.9024H41.714C41.2652 14.4563 40.4005 14.9401 39.3093 14.9401C37.0261 14.9401 34.9343 12.9513 34.9343 10.3921C34.9343 7.8145 37.0261 5.8092 39.3093 5.8092C40.3984 5.8092 41.2632 6.29303 41.714 6.83038H41.784V6.08715H43.6884V6.08509ZM41.9261 10.3921C41.9261 8.7842 40.8534 7.60862 39.4884 7.60862C38.1049 7.60862 36.9458 8.7842 36.9458 10.3921C36.9458 11.9836 38.1049 13.1427 39.4884 13.1427C40.8534 13.1427 41.9261 11.9836 41.9261 10.3921Z" fill="#4285F4"/>
<path d="M46.8282 1.27979V14.6621H44.8723V1.27979H46.8282Z" fill="#34A853"/>
<path d="M54.4499 11.8786L56.0063 12.9162C55.504 13.6595 54.2934 14.9401 52.2016 14.9401C49.6075 14.9401 47.6702 12.9348 47.6702 10.3736C47.6702 7.65801 49.624 5.80713 51.9772 5.80713C54.3469 5.80713 55.506 7.69301 55.8849 8.71213L56.0928 9.23095L49.9884 11.7592C50.4558 12.6754 51.1825 13.1427 52.2016 13.1427C53.2228 13.1427 53.931 12.6404 54.4499 11.8786ZM49.659 10.2357L53.7396 8.54125C53.5152 7.97095 52.8399 7.5736 52.0452 7.5736C51.026 7.5736 49.6075 8.4733 49.659 10.2357Z" fill="#EA4335"/>
<path d="M7.77033 9.18773V7.25038H14.2989C14.3627 7.58803 14.3956 7.98744 14.3956 8.41979C14.3956 9.87332 13.9983 11.6707 12.7177 12.9513C11.4721 14.2483 9.88062 14.9401 7.77239 14.9401C3.86474 14.9401 0.578857 11.7571 0.578857 7.8495C0.578857 3.94185 3.86474 0.758911 7.77239 0.758911C9.93415 0.758911 11.4742 1.60715 12.6312 2.71273L11.2642 4.07979C10.4344 3.30156 9.31033 2.69626 7.77033 2.69626C4.9168 2.69626 2.68503 4.99597 2.68503 7.8495C2.68503 10.703 4.9168 13.0027 7.77033 13.0027C9.62121 13.0027 10.6753 12.2595 11.3506 11.5842C11.8983 11.0366 12.2586 10.2542 12.4006 9.18567L7.77033 9.18773Z" fill="#4285F4"/>
</g>
<defs>
<clipPath id="clip0_14_1397">
<rect width="56" height="18.9412" fill="white" transform="translate(0.504639 0.662109)"/>
</clipPath>
</defs>
</svg>
