<svg width="575" height="399" viewBox="0 0 575 399" fill="none" xmlns="http://www.w3.org/2000/svg">
<rect y="1" width="575" height="397" rx="23" fill="#FAFEFF"/>
<path d="M30.5654 25C30.5654 11.7452 41.3106 1 54.5654 1H520.565C533.82 1 544.565 11.7452 544.565 25V374C544.565 387.255 533.82 398 520.565 398H54.5654C41.3106 398 30.5654 387.255 30.5654 374V25Z" fill="#A663CC" fill-opacity="0.3"/>
<path d="M178.565 0.5H178.065V1V40.3502C178.065 53.6879 188.878 64.5002 202.215 64.5002H373.915C387.253 64.5002 398.065 53.6879 398.065 40.3502V1V0.5H397.565H178.565Z" stroke="white" stroke-opacity="0.46"/>
<path d="M397.565 398.5H398.065V398V358.15C398.065 344.812 387.253 334 373.915 334H202.215C188.878 334 178.065 344.812 178.065 358.15V398V398.5H178.565H397.565Z" stroke="white" stroke-opacity="0.46"/>
<path d="M155.065 1V0.5H154.565H93H54.5654C41.0345 0.5 30.0654 11.469 30.0654 25V98V98.5H30.5654H130.565C144.096 98.5 155.065 87.531 155.065 74V1Z" stroke="white" stroke-opacity="0.46"/>
<path d="M420.065 1V0.5H420.565H520.565C534.096 0.5 545.065 11.4691 545.065 25V91.1739V91.6739H544.565H444.565C431.034 91.6739 420.065 80.7049 420.065 67.1739V1Z" stroke="white" stroke-opacity="0.46"/>
<path d="M30.0654 301V300.5H30.5654H130.565C144.096 300.5 155.065 311.469 155.065 325V398V398.5H154.565H54.5654C41.0345 398.5 30.0654 387.531 30.0654 374V301Z" stroke="white" stroke-opacity="0.46"/>
<path d="M545.065 301V300.5H544.565H444.565C431.034 300.5 420.065 311.469 420.065 325V398V398.5H420.565H520.565C534.096 398.5 545.065 387.531 545.065 374V301Z" stroke="white" stroke-opacity="0.46"/>
</svg>
