<svg width="163" height="32" viewBox="0 0 163 32" fill="none" xmlns="http://www.w3.org/2000/svg">
<path d="M142.528 1.10327C141.947 1.10327 141.476 1.57409 141.476 2.15464L141.476 9.52846L160.955 9.52846L152.084 1.10395L142.528 1.10327Z" fill="#6C6F93"/>
<path d="M161.664 11.7592C161.664 11.1773 161.197 10.7085 160.612 10.7085L153.24 10.7085L153.24 30.1873L161.661 21.313L161.664 11.7592Z" fill="#6C6F93"/>
<path d="M151.008 30.8942C151.588 30.8942 152.059 30.4227 152.059 29.8408L152.059 22.4697L132.58 22.4697L141.452 30.8929L151.008 30.8942Z" fill="#6C6F93"/>
<path d="M131.868 20.2369C131.868 20.8181 132.339 21.2917 132.921 21.2917L140.292 21.2917L140.292 1.81152L131.869 10.6831L131.868 20.2369Z" fill="#6C6F93"/>
<path d="M42.5907 4.6564L42.5907 13.652L30.0583 13.652L30.0583 4.6564L25.4938 4.65234L25.4938 27.334L30.0583 27.334L30.0583 17.5899L42.5907 17.5899L42.5907 27.334L47.1627 27.334L47.1627 4.6564L42.5907 4.6564Z" fill="#6C6F93"/>
<path d="M103.309 4.65845L103.309 27.3306L123.335 27.3306L120.799 23.3392L107.887 23.3392L107.887 17.5919L120.39 17.5919L120.39 13.7475L107.887 13.7475L107.887 8.55637L120.777 8.55637L123.262 4.65845L103.309 4.65845Z" fill="#6C6F93"/>
<path d="M8.5239 4.65356C3.77581 4.65356 1.37769 7.54009 1.37769 11.7402L1.37769 20.2067C1.37769 25.0672 4.46811 27.3366 8.50018 27.3366L22.8211 27.3352L20.1662 23.1894L9.38491 23.1894C7.09451 23.1894 6.09667 22.3616 6.09667 19.7982L6.09667 12.1168C6.09667 9.63877 6.93668 8.67208 9.44587 8.67208L20.2786 8.67208L22.8278 4.65356L8.5239 4.65356Z" fill="#6C6F93"/>
<path d="M83.2807 4.64604C80.5385 4.64604 77.7278 6.29423 77.7278 10.5336L77.7278 11.6229C77.7278 16.0424 80.4321 17.7285 83.1378 17.7401L92.6346 17.7401C93.621 17.7401 94.4224 17.904 94.4224 19.5712L94.421 21.4971C94.3959 22.9949 93.6487 23.3377 92.6008 23.3377L80.1069 23.3377L77.5476 27.3291L92.8948 27.3291C96.5956 27.3291 99.1082 25.4878 99.1082 21.2349L99.1082 19.6721C99.1082 15.5601 96.7737 13.6172 93.1542 13.6172L84.0862 13.6172C83.0808 13.6172 82.3804 13.3429 82.3804 11.8539L82.3804 10.2856C82.3804 9.01749 82.8607 8.55481 84.032 8.55481L95.9303 8.55007L98.4172 4.64063L83.2807 4.64604Z" fill="#6C6F93"/>
<path d="M60.4239 4.65845L49.6697 27.3347L54.7524 27.3347L56.8471 22.6516L68.5334 22.6516L70.6212 27.3347L75.7263 27.3347L64.9471 4.65845L60.4239 4.65845ZM62.679 9.36658L66.8114 18.7916L58.5731 18.7916L62.679 9.36658Z" fill="#6C6F93"/>
</svg>
