<svg width="46" height="46" viewBox="0 0 46 46" fill="none" xmlns="http://www.w3.org/2000/svg">
<g clip-path="url(#clip0_11_213)">
<path d="M19.3697 13.4128C19.3697 13.4128 19.5125 12.77 19.0474 12.5942C19.0474 12.5942 15.9862 12.8836 15.5504 17.9558C15.5504 17.9558 19.4374 15.4691 19.3697 13.4128Z" fill="#6C6F93"/>
<path d="M12.1684 31.8312C12.1684 31.8312 12.1445 32.5179 12.3459 32.939C12.5473 33.3602 12.9721 33.5213 13.3658 33.785C13.3658 33.785 15.8118 34.924 17.9979 29.5917C17.9979 29.5917 18.8713 27.4035 18.7852 25.3911C18.7871 25.3911 12.2562 28.5956 12.1684 31.8312Z" fill="#6C6F93"/>
<path d="M30.4062 14.9885C30.8694 14.234 31.3949 13.2965 30.4629 12.6574C30.4629 12.6574 28.2475 12.3645 28.1304 17.4348C28.1322 17.433 29.6317 16.2409 30.4062 14.9885Z" fill="#6C6F93"/>
<path d="M22.7322 0.698731C10.4121 0.69873 0.428223 10.6839 0.428223 23.0018C0.428223 35.3143 10.4121 45.3013 22.7322 45.3013C35.0432 45.3013 45.0326 35.3143 45.0326 23.0018C45.0308 10.6839 35.0432 0.698731 22.7322 0.698731ZM22.7176 44.4882C10.868 44.4882 1.25945 34.8822 1.25945 23.0275C1.25945 11.1783 10.8662 1.56851 22.7176 1.56851C34.569 1.56851 44.1757 11.1783 44.1757 23.0275C44.1757 34.8803 34.569 44.4882 22.7176 44.4882Z" fill="#6C6F93"/>
<path d="M36.3323 7.66902C36.3323 7.66902 32.7712 4.39131 25.898 4.75936C25.898 4.75936 23.6552 5.07798 22.6555 6.06496C21.6265 7.08306 19.8689 7.23138 19.2262 5.891C19.2262 5.891 17.8292 3.26883 23.3366 2.66639L23.657 2.63892L24.3802 2.573L22.7214 2.50708C16.6099 2.50708 11.1208 5.18235 7.36199 9.41775C7.36199 9.41775 4.08285 12.9811 4.44903 19.8607C4.44903 19.8607 4.7676 22.0965 5.75812 23.0944C6.77427 24.1253 6.9244 25.8869 5.58235 26.5278C5.58235 26.5278 2.96234 27.9268 2.35997 22.4151L2.33251 22.0965L2.26843 21.3732L2.20068 23.0285C2.20068 29.1445 4.87196 34.6305 9.11599 38.3898C9.11599 38.3898 12.6789 41.6694 19.5539 41.3013C19.5539 41.3013 21.7931 40.9845 22.7946 39.9994C23.8236 38.9758 25.5831 38.8293 26.2221 40.1697C26.2221 40.1697 27.6209 42.7937 22.1154 43.3924L21.7931 43.4217L21.0699 43.484L22.7251 43.5554C28.8384 43.5554 34.3293 40.8801 38.0863 36.6393C38.0863 36.6393 41.3636 33.0795 40.9993 26.2018C40.9993 26.2018 40.6825 23.9605 39.692 22.9626C38.6759 21.9317 38.5239 20.1701 39.8678 19.5329C39.8678 19.5329 42.4896 18.1321 43.0883 23.6419L43.1158 23.9605L43.1799 24.6875L43.2513 23.0267C43.2476 16.918 40.5745 11.4302 36.3323 7.66902ZM32.3922 35.3868C31.5225 35.764 30.5284 36.0881 28.897 36.0881C28.897 36.0881 21.9048 35.0956 22.2838 28.2783C22.2838 28.2783 22.6042 23.4991 26.9764 20.9337C26.9764 20.9337 26.6871 20.6993 26.656 20.2324L20.625 23.9038C20.625 23.9038 21.0223 30.7137 17.5711 34.3064C17.0804 34.8209 16.4323 35.2036 15.8464 35.6211C15.4363 35.9141 14.9218 35.991 14.5629 36.0881C14.096 36.2071 13.7756 36.143 13.1074 36.143C13.1074 36.143 11.4156 36.2016 10.4818 34.1324C10.4818 34.1324 8.85051 30.8126 12.1699 27.4031C12.1699 27.4031 14.096 25.0134 18.9626 23.3837L19.0505 21.9829C19.0505 21.9829 17.3001 23.2684 16.165 23.0303C15.4747 22.8912 13.891 22.7978 13.4571 20.1738C13.4571 20.1738 10.7418 19.271 10.5679 16.4749C10.5679 16.4749 10.5386 14.8177 11.379 14.0706C12.7174 12.8896 12.0656 14.8141 12.0656 14.8141C12.0125 16.008 12.1406 18.0314 13.5431 18.4012C13.5431 18.4012 13.4571 15.6289 14.9401 13.3309C14.9401 13.3309 17.5619 9.48 20.5335 10.8826C20.5335 10.8826 23.3329 12.9775 19.3983 17.352C19.3983 17.352 17.7066 19.6519 15.3777 20.1481C15.3777 20.1481 16.0734 23.0322 19.3983 19.6244C19.3983 19.6244 20.2808 15.6033 22.7251 16.5646C22.7251 16.5646 24.6438 17.8757 20.5353 20.67L20.4493 22.1587L26.0427 18.7199C26.0427 18.7199 25.7497 15.7498 26.5681 13.2411C26.5681 13.2411 27.9669 10.0055 31.1142 10.5329C31.1142 10.5329 34.9024 12.3091 31.2882 16.6507C31.2882 16.6507 29.2449 18.8389 28.2031 19.0147C28.2031 19.0147 28.3734 19.8277 28.7853 20.1207C28.7853 20.1207 33.3022 19.1886 32.9488 20.9374C32.9488 20.9374 33.1246 23.2977 28.2324 22.4224C28.2324 22.4224 24.7336 25.3083 25.1693 28.4541C25.1693 28.4541 24.8178 32.7408 29.1021 33.3506C29.1021 33.3506 33.4743 33.6142 33.3022 29.767C33.3022 29.767 33.2106 26.5333 30.5906 26.7933C30.5906 26.7933 28.1409 27.5862 30.0651 29.767C30.0651 29.767 30.9971 30.3805 30.1512 31.3418C30.1512 31.3418 29.19 31.9516 28.2159 31.0195C27.7216 30.5416 27.1906 29.7561 27.0075 28.1923C27.0075 28.1923 26.7439 24.2608 31.4658 24.433C31.4658 24.433 35.719 24.9017 35.8343 29.8549C35.8325 29.8494 36.1712 33.7571 32.3922 35.3868Z" fill="#6C6F93"/>
</g>
<defs>
<clipPath id="clip0_11_213">
<rect width="44.6025" height="44.6025" fill="white" transform="translate(0.428345 0.69873)"/>
</clipPath>
</defs>
</svg>
