<svg width="162" height="34" viewBox="0 0 162 34" fill="none" xmlns="http://www.w3.org/2000/svg">
<path d="M83.7527 17.0406C83.7527 16.5549 83.7257 16.0692 83.6987 15.6106C83.6717 15.1519 83.5908 14.6662 83.5368 14.2075L76.9803 14.2075L70.4237 14.2075L68.4271 17.3374L66.4304 20.4673L76.5485 20.4673C75.9549 22.5179 74.7947 24.2717 73.2298 25.5128C71.6649 26.754 69.6952 27.5095 67.4017 27.5095C64.5417 27.5095 62.0054 26.3223 60.1437 24.4066C58.2819 22.4909 57.1487 19.8737 57.1487 16.9866C57.1487 14.1535 58.2819 11.5633 60.1707 9.67458C62.0324 7.78586 64.6226 6.59866 67.4827 6.59866C68.7238 6.59866 69.8841 6.78753 70.9633 7.16528C72.0426 7.51604 73.0139 8.05568 73.8774 8.70324L75.6312 5.89714L77.385 3.09104C76.0359 2.14668 74.5249 1.3912 72.852 0.905527C71.2062 0.392874 69.3984 0.150034 67.5097 0.150034C64.9734 0.150034 62.6799 0.608728 60.6563 1.44516C58.6327 2.28159 56.8249 3.49577 55.3139 5.00674C51.7254 8.59531 50.7001 12.2378 49.9985 15.5566C49.27 18.9023 48.8653 21.9513 46.41 24.3796C45.3847 25.4049 44.2784 26.1874 43.0373 26.7C41.7961 27.2127 40.474 27.4825 39.044 27.4825C36.103 27.4825 33.4588 26.2683 31.5161 24.3526C29.6004 22.4369 28.4132 19.8197 28.4132 16.9866C28.4132 14.2075 29.6004 11.6173 31.5161 9.70156C33.4318 7.78586 36.076 6.57168 39.044 6.5447C40.2851 6.57168 41.4184 6.76056 42.4707 7.08434C43.5229 7.40812 44.4943 7.92077 45.3577 8.56833L47.1385 5.76223L48.9193 2.95613C47.5702 2.01177 46.0592 1.28326 44.4133 0.797593C42.7674 0.311922 40.9597 0.0690919 39.071 0.0690919C36.1569 0.0690919 33.4318 0.770611 31.0574 2.01177C28.683 3.25293 26.6594 5.00675 25.1214 7.11132C24.5278 5.24958 23.2867 3.65765 21.5868 2.5514C19.887 1.41817 17.7284 0.770618 15.3001 0.770618L7.69123 0.770618L0.109375 0.770618L0.109375 17.0406L0.109375 33.2566L16.838 33.2566C18.9426 33.2566 20.8313 32.7439 22.3963 31.8805C23.9612 31.0171 25.2024 29.776 26.0658 28.3189C27.6307 30.0458 29.5194 31.4488 31.678 32.4202C33.8365 33.3915 36.2379 33.9311 38.8281 33.9311C41.8501 33.9311 44.6292 33.2296 47.0306 31.9615C49.4319 30.6933 51.4556 28.8856 53.0205 26.6461C54.5045 28.8586 56.5281 30.6664 58.9565 31.9345C61.3578 33.2026 64.1909 33.9311 67.2129 33.9311C71.8807 33.9311 76.0089 32.0424 78.9769 28.9665C81.9449 25.9446 83.7527 21.7084 83.7527 17.0406ZM7.1516 13.9377L7.1516 6.8415L15.1652 6.8415C16.1905 6.8415 17.0809 7.21924 17.7284 7.83982C18.376 8.4604 18.7807 9.3508 18.7807 10.3761C18.7807 11.4014 18.376 12.2918 17.7284 12.9124C17.0809 13.56 16.1635 13.9377 15.1652 13.9377L11.1719 13.9377L7.1516 13.9377ZM7.1516 27.2397L7.1516 19.8737L16.7571 19.8737C17.8364 19.8737 18.7807 20.2784 19.4822 20.926C20.1838 21.5735 20.6155 22.4909 20.6155 23.5432C20.6155 24.5955 20.1838 25.5128 19.4822 26.1874C18.7807 26.8619 17.8364 27.2667 16.7571 27.2667L11.9543 27.2667L7.1516 27.2667L7.1516 27.2397Z" fill="#6C6F93"/>
<path d="M99.747 29.3166C99.7739 29.3705 99.7739 29.4515 99.7739 29.5324C99.7739 29.6134 99.8009 29.7213 99.8009 29.8022C99.8009 30.8275 99.4502 31.7179 98.8296 32.3655C98.209 33.0131 97.3186 33.3908 96.2933 33.3908C95.268 33.3908 94.3236 32.9861 93.6491 32.2846C92.9746 31.61 92.5698 30.6657 92.5698 29.6134C92.5698 28.5611 93.0015 27.6167 93.6761 26.9422C94.3506 26.2676 95.295 25.8359 96.3473 25.8359C96.779 25.8359 97.1837 25.8899 97.5614 25.9978C97.9392 26.1057 98.29 26.2676 98.6137 26.5105L98.3169 26.9692L98.0201 27.4279C97.7773 27.239 97.5075 27.1041 97.2377 27.0231C96.9678 26.9422 96.671 26.8882 96.3473 26.8882C95.6188 26.8882 94.9712 27.185 94.5125 27.6437C94.0538 28.1024 93.757 28.7769 93.757 29.5594C93.757 30.3149 94.0268 30.9894 94.4855 31.4751C94.9442 31.9608 95.5648 32.2576 96.2933 32.2576C96.9678 32.2576 97.5075 32.0417 97.9122 31.691C98.3169 31.3402 98.5598 30.8275 98.6677 30.2609L96.2124 30.2609L96.5361 29.7483L96.8599 29.2356L99.747 29.3166ZM111.943 33.4448C112.995 33.4448 113.939 33.0131 114.641 32.3385C115.315 31.664 115.747 30.7196 115.747 29.6943C115.747 28.669 115.315 27.7247 114.641 27.0501C113.966 26.3756 112.995 25.9439 111.943 25.9439C110.89 25.9439 109.946 26.3756 109.272 27.0501C108.597 27.7247 108.165 28.669 108.165 29.6943C108.165 30.7196 108.597 31.664 109.272 32.3385C109.946 33.0131 110.89 33.4448 111.943 33.4448ZM118.472 26.0788L118.472 30.5038C118.472 31.0164 118.661 31.5021 118.985 31.8259C119.309 32.1496 119.767 32.3655 120.307 32.3655C120.847 32.3655 121.305 32.1496 121.629 31.8259C121.953 31.5021 122.142 31.0164 122.142 30.5038L122.142 26.0788L123.275 26.0788L123.275 30.5038C123.275 31.3402 122.951 32.0687 122.439 32.6083C121.899 33.121 121.17 33.4448 120.307 33.4448C119.444 33.4448 118.715 33.121 118.175 32.6083C117.636 32.0957 117.312 31.3672 117.312 30.5038L117.312 26.0788L118.472 26.0788ZM104.334 26.0788C105.089 26.0788 105.71 26.3216 106.142 26.7533C106.573 27.158 106.816 27.7516 106.816 28.3992C106.816 28.9388 106.654 29.3975 106.384 29.7753C106.115 30.153 105.71 30.4228 105.197 30.5307L106.061 31.9068L106.924 33.2829L105.575 33.2829L104.766 31.9878L103.956 30.6926L102.58 30.6926L102.58 33.2829L101.42 33.2829L101.42 26.0788L104.334 26.0788ZM128.186 26.0788C128.941 26.0788 129.562 26.3486 130.02 26.7533C130.452 27.185 130.695 27.7516 130.695 28.4262C130.695 29.0737 130.452 29.6673 130.02 30.099C129.589 30.5307 128.941 30.7736 128.186 30.7736L126.54 30.7736L126.54 33.2829L125.38 33.2829L125.38 26.0788L128.186 26.0788ZM111.943 32.3655C111.214 32.3655 110.567 32.0687 110.108 31.583C109.649 31.0974 109.352 30.4228 109.352 29.6943C109.352 28.9658 109.649 28.2913 110.108 27.8056C110.567 27.3199 111.241 27.0231 111.943 27.0231C112.671 27.0231 113.319 27.3199 113.804 27.8056C114.263 28.2913 114.56 28.9658 114.56 29.6943C114.56 30.4498 114.263 31.1243 113.804 31.583C113.346 32.0687 112.698 32.3655 111.943 32.3655ZM128.186 29.7483C128.563 29.7483 128.887 29.6134 129.13 29.3975C129.373 29.1817 129.508 28.8579 129.508 28.4532C129.508 28.0484 129.373 27.7516 129.13 27.5088C128.887 27.2929 128.563 27.158 128.186 27.158L126.54 27.158L126.54 29.7483L128.186 29.7483ZM104.334 29.6404C104.712 29.6404 105.008 29.5324 105.251 29.3166C105.467 29.1007 105.602 28.8039 105.602 28.3992C105.602 28.0215 105.467 27.6977 105.251 27.4818C105.035 27.266 104.712 27.1311 104.334 27.1311L102.58 27.1311L102.58 29.6404L104.334 29.6404ZM161.94 16.6891C161.967 16.7431 161.967 16.824 161.967 16.905C161.967 16.9859 161.994 17.0939 161.994 17.1748C161.994 18.2001 161.643 19.0905 161.022 19.7381C160.402 20.3856 159.511 20.7903 158.486 20.7903C157.434 20.7903 156.516 20.3856 155.842 19.6841C155.167 19.0096 154.763 18.0652 154.763 17.0129C154.763 15.9606 155.167 15.0163 155.869 14.3417C156.543 13.6672 157.488 13.2355 158.54 13.2355C158.972 13.2355 159.377 13.2894 159.754 13.3974C160.132 13.5053 160.483 13.6672 160.807 13.91L160.51 14.3687L160.213 14.8274C159.97 14.6385 159.7 14.5036 159.43 14.4227C159.161 14.3417 158.864 14.2878 158.54 14.2878C157.812 14.2878 157.164 14.5846 156.705 15.0432C156.247 15.5289 155.95 16.2035 155.95 16.9589C155.95 17.7144 156.22 18.389 156.678 18.8746C157.137 19.3603 157.758 19.6571 158.486 19.6571C159.161 19.6571 159.7 19.4413 160.105 19.0905C160.51 18.7397 160.753 18.2271 160.861 17.6605L158.405 17.6605L158.729 17.1478L159.053 16.6352L161.94 16.6891ZM124.678 13.4513L124.678 17.8763C124.678 18.389 124.867 18.8746 125.191 19.1984C125.514 19.5222 125.973 19.7381 126.513 19.7381C127.052 19.7381 127.511 19.5222 127.835 19.1984C128.159 18.8746 128.348 18.389 128.348 17.8763L128.348 13.4513L129.481 13.4513L129.481 17.8763C129.481 18.7128 129.157 19.4413 128.644 19.9809C128.105 20.4935 127.376 20.8173 126.513 20.8173C125.649 20.8173 124.921 20.4935 124.381 19.9809C123.842 19.4682 123.518 18.7397 123.518 17.8763L123.518 13.4513L124.678 13.4513ZM119.309 20.8173C120.118 20.8173 120.739 20.5745 121.17 20.1968C121.602 19.792 121.845 19.2524 121.845 18.6318C121.845 17.9573 121.575 17.4986 121.17 17.2018C120.766 16.878 120.226 16.7161 119.659 16.5272C119.201 16.3923 118.796 16.2844 118.526 16.0955C118.256 15.9336 118.095 15.7178 118.095 15.367C118.095 15.0702 118.202 14.8274 118.391 14.6385C118.607 14.4496 118.904 14.3417 119.336 14.3417C119.605 14.3417 119.875 14.3957 120.145 14.4766C120.415 14.5576 120.685 14.6925 120.955 14.8814L121.251 14.4227L121.548 13.964C121.251 13.7481 120.928 13.5862 120.577 13.4783C120.199 13.3704 119.821 13.2894 119.39 13.2894C118.634 13.2894 118.014 13.5053 117.609 13.883C117.204 14.2608 116.961 14.8004 116.961 15.421C116.961 16.1225 117.231 16.5542 117.636 16.851C118.041 17.1478 118.58 17.3367 119.147 17.4986C119.606 17.6335 120.01 17.7684 120.28 17.9303C120.55 18.0922 120.712 18.308 120.712 18.6588C120.712 18.9556 120.604 19.2254 120.361 19.4143C120.145 19.6032 119.794 19.7111 119.336 19.7111C118.958 19.7111 118.634 19.6301 118.31 19.5222C117.987 19.3873 117.663 19.2254 117.366 19.0365L117.069 19.4952L116.772 19.9539C117.069 20.1698 117.42 20.3856 117.852 20.5475C118.256 20.7094 118.742 20.8173 119.309 20.8173ZM103.578 20.8173C104.631 20.8173 105.575 20.3856 106.277 19.7111C106.951 19.0365 107.383 18.0922 107.383 17.0669C107.383 16.0416 106.951 15.0972 106.277 14.3957C105.575 13.7211 104.631 13.2894 103.578 13.2894C102.526 13.2894 101.582 13.7211 100.907 14.3957C100.233 15.0702 99.8009 16.0146 99.8009 17.0669C99.8009 18.0922 100.233 19.0365 100.907 19.7111C101.582 20.3856 102.526 20.8173 103.578 20.8173ZM92.5428 17.0669C92.5428 18.1192 92.9746 19.0635 93.6491 19.7381C94.3506 20.4126 95.295 20.8443 96.3742 20.8443C96.8869 20.8443 97.3186 20.7634 97.7233 20.6285C98.1281 20.4935 98.4518 20.3047 98.8026 20.0349L98.5058 19.5762L98.209 19.1175C97.9392 19.3333 97.6424 19.4952 97.3456 19.6032C97.0488 19.7111 96.698 19.765 96.3473 19.765C95.6457 19.765 94.9982 19.4682 94.5395 18.9826C94.0808 18.4969 93.784 17.8224 93.784 17.0669C93.784 16.3114 94.0538 15.6368 94.5395 15.1512C94.9982 14.6655 95.6457 14.3687 96.3473 14.3687C96.725 14.3687 97.0488 14.4227 97.3456 14.5306C97.6424 14.6385 97.9392 14.8004 98.209 15.0163L98.5058 14.5576L98.8026 14.0989C98.4788 13.856 98.1281 13.6402 97.7233 13.5053C97.3186 13.3704 96.8869 13.2894 96.3742 13.2894C95.295 13.2894 94.3506 13.6942 93.6491 14.3957C92.9746 15.0702 92.5428 16.0146 92.5428 17.0669ZM144.645 20.6554L143.484 20.6554L143.484 13.4513L144.645 13.4513L144.645 20.6554ZM148.314 20.6554L147.208 20.6554L147.208 13.4513L148.638 13.4513L150.311 16.1765L151.984 18.9016L151.984 13.4513L153.09 13.4513L153.09 20.6554L151.741 20.6554L150.014 17.8763L148.287 15.0972L148.287 20.6554L148.314 20.6554ZM141.731 14.5306L139.464 14.5306L139.464 20.6554L138.277 20.6554L138.277 14.5306L136.037 14.5306L136.037 13.4513L141.731 13.4513L141.731 14.5306ZM132.692 19.5762L136.253 19.5762L136.253 20.6554L131.531 20.6554L131.531 13.4513L132.692 13.4513L132.692 19.5762ZM110.135 20.6554L109.029 20.6554L109.029 13.4513L110.459 13.4513L112.132 16.1765L113.804 18.9016L113.804 13.4513L114.911 13.4513L114.911 20.6554L113.562 20.6554L111.835 17.8763L110.108 15.0972L110.108 20.6554L110.135 20.6554ZM103.578 19.7381C102.85 19.7381 102.202 19.4413 101.744 18.9556C101.285 18.4699 100.988 17.7954 100.988 17.0669C100.988 16.3114 101.285 15.6368 101.744 15.1782C102.202 14.6925 102.877 14.3957 103.578 14.3957C104.307 14.3957 104.954 14.6925 105.44 15.1782C105.899 15.6638 106.196 16.3384 106.196 17.0669C106.196 17.8224 105.899 18.4969 105.44 18.9556C104.954 19.4413 104.307 19.7381 103.578 19.7381ZM124.705 8.16291C125.757 8.16291 126.702 7.7312 127.403 7.05666C128.078 6.38211 128.509 5.43776 128.509 4.41245C128.509 3.38714 128.078 2.44278 127.403 1.74125C126.729 1.06671 125.784 0.63501 124.705 0.63501C123.653 0.63501 122.708 1.06671 122.034 1.74125C121.359 2.4158 120.928 3.36016 120.928 4.41245C120.928 5.43776 121.359 6.38211 122.034 7.05666C122.708 7.75818 123.653 8.16291 124.705 8.16291ZM110.836 8.16291C111.646 8.16291 112.266 7.94705 112.698 7.54232C113.13 7.1376 113.373 6.59797 113.373 5.97739C113.373 5.30284 113.103 4.84416 112.698 4.54736C112.293 4.25056 111.754 4.06169 111.187 3.87282C110.729 3.73791 110.324 3.62998 110.054 3.44111C109.784 3.27922 109.622 3.06336 109.622 2.7126C109.622 2.4158 109.73 2.17297 109.919 1.9841C110.135 1.79522 110.432 1.6873 110.863 1.6873C111.133 1.6873 111.403 1.74126 111.673 1.8222C111.943 1.90315 112.213 2.03806 112.482 2.22693L112.779 1.76824L113.076 1.30955C112.779 1.0937 112.455 0.931804 112.105 0.823877C111.727 0.71595 111.349 0.63501 110.917 0.63501C110.162 0.63501 109.541 0.850859 109.137 1.2286C108.732 1.60635 108.489 2.14598 108.489 2.76656C108.489 3.46809 108.759 3.89979 109.164 4.19659C109.568 4.49339 110.108 4.68226 110.675 4.84415C111.133 4.97906 111.538 5.11397 111.808 5.27586C112.078 5.43775 112.239 5.65361 112.239 6.00437C112.239 6.30117 112.132 6.57098 111.889 6.75985C111.673 6.94873 111.322 7.05666 110.863 7.05666C110.486 7.05666 110.162 6.97571 109.838 6.86778C109.514 6.73287 109.191 6.57098 108.894 6.38211L108.597 6.8408L108.3 7.29949C108.597 7.51534 108.948 7.7312 109.379 7.89309C109.784 8.08196 110.27 8.16291 110.836 8.16291ZM103.363 8.16291C104.415 8.16291 105.359 7.7312 106.061 7.05666C106.735 6.38211 107.167 5.43776 107.167 4.41245C107.167 3.38714 106.735 2.44278 106.061 1.74125C105.386 1.06671 104.442 0.63501 103.363 0.63501C102.31 0.63501 101.366 1.06671 100.691 1.74125C100.017 2.4158 99.5851 3.36016 99.5851 4.41245C99.5851 5.43776 100.017 6.38211 100.691 7.05666C101.366 7.75818 102.31 8.16291 103.363 8.16291ZM131.585 0.823877L133.258 3.54903L134.931 6.27419L134.931 0.823877L136.037 0.823877L136.037 8.028L134.688 8.028L132.961 5.24888L131.235 2.46976L131.235 8.05498L130.155 8.05498L130.155 0.85086L131.585 0.823877ZM120.199 0.823877L120.199 1.90315L117.933 1.90315L117.933 8.028L116.745 8.028L116.745 1.90315L114.506 1.90315L114.506 0.823877L120.199 0.823877ZM95.7537 0.823877C96.4012 0.823877 96.9409 1.03973 97.3456 1.36351C97.7503 1.71427 97.9931 2.19995 97.9931 2.73958C97.9931 3.06336 97.9122 3.33318 97.7773 3.57602C97.6154 3.81885 97.4265 4.0347 97.1567 4.16961C97.5075 4.3315 97.8043 4.57434 97.9931 4.87113C98.182 5.16793 98.2899 5.5187 98.2899 5.89644C98.2899 6.49004 98.0471 7.00269 97.6424 7.38044C97.2377 7.75818 96.671 7.97403 95.9965 7.97403L92.9206 7.97403L92.9206 0.769918L95.7537 0.823877ZM124.705 7.08364C123.977 7.08364 123.329 6.78684 122.87 6.30117C122.412 5.8155 122.115 5.14096 122.115 4.41245C122.115 3.68394 122.412 2.98242 122.87 2.52373C123.329 2.03806 124.004 1.74125 124.705 1.74125C125.434 1.74125 126.081 2.03806 126.567 2.52373C127.025 3.0094 127.322 3.68394 127.322 4.41245C127.322 5.16794 127.025 5.84248 126.567 6.30117C126.081 6.81382 125.434 7.08364 124.705 7.08364ZM103.363 7.08364C102.634 7.08364 101.986 6.78684 101.528 6.30117C101.069 5.8155 100.772 5.14096 100.772 4.41245C100.772 3.68394 101.069 2.98242 101.528 2.52373C101.986 2.03806 102.661 1.74125 103.363 1.74125C104.091 1.74125 104.739 2.03806 105.224 2.52373C105.683 3.0094 105.98 3.68394 105.98 4.41245C105.98 5.16794 105.683 5.84248 105.224 6.30117C104.739 6.81382 104.091 7.08364 103.363 7.08364ZM95.9425 6.97571C96.2663 6.97571 96.5361 6.86778 96.752 6.65193C96.9409 6.46306 97.0758 6.19324 97.0758 5.89644C97.0758 5.59965 96.9678 5.32982 96.752 5.14095C96.5361 4.95208 96.2663 4.84415 95.9425 4.84415L94.0808 4.84415L94.0808 6.94873L95.9425 6.97571ZM95.7537 3.87282C96.0505 3.87282 96.3203 3.76489 96.5092 3.57602C96.698 3.38714 96.806 3.1443 96.806 2.84751C96.806 2.55071 96.698 2.30788 96.5092 2.119C96.3203 1.93013 96.0505 1.8222 95.7537 1.8222L94.0808 1.8222L94.0808 3.84583L95.7537 3.87282Z" fill="#6C6F93"/>
</svg>
