<svg width="140" height="32" viewBox="0 0 140 32" fill="none" xmlns="http://www.w3.org/2000/svg">
<path fill-rule="evenodd" clip-rule="evenodd" d="M40.2739 1.70138C42.179 2.20208 43.6761 3.67199 44.1861 5.54246C45.1077 8.92934 45.1077 15.9999 45.1077 15.9999C45.1077 15.9999 45.1077 23.0705 44.1825 26.4574C43.6725 28.3279 42.1754 29.7978 40.2703 30.2985C36.8207 31.2069 22.9822 31.2069 22.9822 31.2069C22.9822 31.2069 9.14374 31.2069 5.69414 30.2985C3.78903 29.7978 2.2919 28.3279 1.78192 26.4574C0.856689 23.0705 0.856689 15.9999 0.856689 15.9999C0.856689 15.9999 0.856689 8.92934 1.78192 5.54246C2.2919 3.67199 3.78903 2.20208 5.69414 1.70138C9.14374 0.792969 22.9822 0.792969 22.9822 0.792969C22.9822 0.792969 36.8207 0.792969 40.2739 1.70138ZM30.0585 15.9984L18.5586 22.5146L18.5586 9.48215L30.0585 15.9984Z" fill="#6C6F93"/>
<path d="M65.0895 28.4583C64.2152 27.879 63.5924 26.9777 63.2208 25.7546C62.8529 24.5314 62.6671 22.9077 62.6671 20.8763L62.6671 18.1117C62.6671 16.0625 62.8784 14.4137 63.3009 13.1727C63.7235 11.9317 64.3828 11.0233 65.2789 10.4546C66.175 9.88597 67.3516 9.59985 68.8086 9.59985C70.2438 9.59985 71.3913 9.88954 72.2582 10.4689C73.1215 11.0483 73.7554 11.9567 74.156 13.187C74.5567 14.4209 74.7571 16.0625 74.7571 18.1117L74.7571 20.8763C74.7571 22.9077 74.5604 24.5386 74.1706 25.7689C73.7809 27.0027 73.147 27.904 72.2728 28.4727C71.3986 29.0413 70.2111 29.3274 68.7139 29.3274C67.1694 29.331 65.9637 29.0377 65.0895 28.4583ZM69.9925 25.4756C70.2329 24.8533 70.3568 23.8412 70.3568 22.4321L70.3568 16.4988C70.3568 15.1326 70.2366 14.1312 69.9925 13.5017C69.7484 12.8687 69.3222 12.554 68.7103 12.554C68.1202 12.554 67.7013 12.8687 67.4609 13.5017C67.2168 14.1348 67.0966 15.1326 67.0966 16.4988L67.0966 22.4321C67.0966 23.8412 67.2131 24.8569 67.4463 25.4756C67.6794 26.0979 68.0983 26.4091 68.7103 26.4091C69.3222 26.4091 69.7484 26.0979 69.9925 25.4756Z" fill="#6C6F93"/>
<path d="M132.305 20.9247L132.305 21.8868C132.305 23.1099 132.341 24.0255 132.414 24.637C132.487 25.2486 132.64 25.6921 132.873 25.9746C133.106 26.2536 133.463 26.393 133.947 26.393C134.599 26.393 135.051 26.1427 135.292 25.6456C135.536 25.1484 135.667 24.3187 135.689 23.16L139.455 23.3781C139.477 23.5426 139.488 23.7715 139.488 24.0612C139.488 25.8208 138.996 27.1369 138.016 28.006C137.036 28.8751 135.649 29.3114 133.856 29.3114C131.704 29.3114 130.195 28.6498 129.332 27.3229C128.465 25.9961 128.035 23.9468 128.035 21.1715L128.035 17.8454C128.035 14.9878 128.483 12.8992 129.38 11.5831C130.276 10.2669 131.809 9.60889 133.984 9.60889C135.481 9.60889 136.632 9.87712 137.433 10.4172C138.235 10.9572 138.799 11.7941 139.127 12.935C139.455 14.0758 139.619 15.6495 139.619 17.6594L139.619 20.9211L132.305 20.9211L132.305 20.9247ZM132.858 12.9099C132.636 13.1782 132.49 13.6181 132.414 14.2296C132.341 14.8412 132.305 15.7675 132.305 17.0121L132.305 18.3783L135.499 18.3783L135.499 17.0121C135.499 15.7889 135.456 14.8627 135.372 14.2296C135.288 13.5966 135.135 13.1531 134.913 12.892C134.691 12.6345 134.348 12.5022 133.886 12.5022C133.423 12.5058 133.077 12.6417 132.858 12.9099Z" fill="#6C6F93"/>
<path d="M54.4559 20.5689L49.4873 2.95142L53.8221 2.95142L55.5633 10.9376C56.0077 12.9046 56.3319 14.582 56.5431 15.9696L56.6706 15.9696C56.8163 14.9754 57.1442 13.3087 57.6505 10.9662L59.4536 2.95142L63.7884 2.95142L58.7615 20.5689L58.7615 29.02L54.4559 29.02L54.4559 20.5689Z" fill="#6C6F93"/>
<path d="M88.8605 9.97095L88.8605 29.019L85.4437 29.019L85.0648 26.6872L84.9701 26.6872C84.0413 28.4468 82.6498 29.3266 80.792 29.3266C79.5062 29.3266 78.5554 28.9117 77.9435 28.0855C77.3315 27.2558 77.0255 25.9611 77.0255 24.2015L77.0255 9.97095L81.3931 9.97095L81.3931 23.9512C81.3931 24.8024 81.4878 25.4068 81.6772 25.768C81.8666 26.1292 82.1835 26.3116 82.6279 26.3116C83.0067 26.3116 83.371 26.1972 83.7207 25.9683C84.0704 25.7394 84.3254 25.4497 84.4966 25.0992L84.4966 9.97095L88.8605 9.97095Z" fill="#6C6F93"/>
<path d="M111.262 9.97095L111.262 29.019L107.845 29.019L107.466 26.6872L107.372 26.6872C106.443 28.4468 105.051 29.3266 103.193 29.3266C101.908 29.3266 100.957 28.9117 100.345 28.0855C99.7329 27.2558 99.4269 25.9611 99.4269 24.2015L99.4269 9.97095L103.794 9.97095L103.794 23.9512C103.794 24.8024 103.889 25.4068 104.079 25.768C104.268 26.1292 104.585 26.3116 105.029 26.3116C105.408 26.3116 105.772 26.1972 106.122 25.9683C106.472 25.7394 106.727 25.4497 106.898 25.0992L106.898 9.97095L111.262 9.97095Z" fill="#6C6F93"/>
<path d="M100.726 6.39909L96.3909 6.39909L96.3909 29.02L92.1181 29.02L92.1181 6.39909L87.7833 6.39909L87.7833 2.95142L100.726 2.95142L100.726 6.39909Z" fill="#6C6F93"/>
<path d="M125.716 13.0153C125.45 11.8136 125.024 10.9445 124.434 10.4045C123.843 9.86446 123.031 9.59623 121.997 9.59623C121.195 9.59623 120.445 9.81797 119.749 10.265C119.053 10.7121 118.514 11.295 118.135 12.021L118.103 12.021L118.103 1.9856L113.895 1.9856L113.895 29.0162L117.502 29.0162L117.946 27.2137L118.041 27.2137C118.38 27.8575 118.886 28.3617 119.56 28.7373C120.234 29.1092 120.984 29.2952 121.807 29.2952C123.283 29.2952 124.372 28.6264 125.067 27.2924C125.763 25.9548 126.113 23.8697 126.113 21.0301L126.113 18.0151C126.113 15.8872 125.978 14.2205 125.716 13.0153ZM121.713 20.7869C121.713 22.1745 121.654 23.2617 121.538 24.0486C121.421 24.8354 121.228 25.3969 120.951 25.7259C120.678 26.0585 120.306 26.223 119.844 26.223C119.483 26.223 119.152 26.1408 118.846 25.9727C118.54 25.8082 118.292 25.5578 118.103 25.2288L118.103 14.4172C118.248 13.8987 118.503 13.4766 118.864 13.144C119.221 12.8114 119.614 12.6469 120.033 12.6469C120.478 12.6469 120.82 12.8186 121.061 13.1583C121.305 13.5017 121.472 14.0739 121.567 14.8822C121.662 15.6905 121.709 16.8385 121.709 18.3299L121.709 20.7869L121.713 20.7869Z" fill="#6C6F93"/>
</svg>
