<svg width="96" height="48" viewBox="0 0 96 48" fill="none" xmlns="http://www.w3.org/2000/svg">
<path fill-rule="evenodd" clip-rule="evenodd" d="M2.34412 46.6134L2.34412 1.37988L93.7901 1.37988L48.5565 46.6134L2.34412 46.6134ZM55.1604 23.0202L57.1425 23.0202C59.7887 23.0202 61.895 22.1443 61.895 19.3494C61.895 16.6431 59.7887 15.7713 57.1425 15.7713L55.1604 15.7713L55.1604 23.0202ZM32.9256 27.6913C33.7761 28.0111 34.76 28.2026 35.8091 28.2026L35.8122 28.2026C36.8368 28.2026 37.7953 28.0172 38.6376 27.7157L35.8417 18.6874L35.7806 18.6874L32.9256 27.6913ZM47.6161 9.88204L56.6169 9.88204L56.6159 9.8912C65.2206 9.8912 69.2622 12.956 69.2622 19.6377C69.2622 25.641 65.1004 29.2181 58.0724 29.2181L55.1625 29.2181L55.1625 37.8655L41.8256 37.8655L40.5056 33.7302C39.0949 34.1947 37.5009 34.4493 35.8111 34.4493C34.0796 34.4493 32.4438 34.1764 31.0077 33.6905L29.6347 37.8655L21.4609 37.8655L22.3613 35.4455L22.0313 35.7337C19.9932 37.3715 17.4427 38.273 14.2852 38.3341L13.8157 38.3341C10.1866 38.3341 6.63088 37.3339 3.62719 35.6237L6.4068 30.1001C9.41965 31.8806 11.3111 32.2778 13.8615 32.2269C15.1846 32.1973 16.141 31.958 16.7634 31.3112C17.1412 30.9242 17.3358 30.4342 17.3561 29.9117C17.3796 28.4766 15.3384 27.8033 12.8379 27.0323C10.811 26.3967 8.5162 25.5483 6.71745 24.2303C4.59175 22.6648 3.57626 20.7071 3.62719 17.9489C3.6608 15.9352 4.40536 14.1263 5.78141 12.6963C7.76146 10.6521 10.9536 9.40332 14.7843 9.40332L14.8047 9.40332C18.0885 9.41045 22.1026 10.3394 24.9993 11.8193L21.8724 17.2665C18.6976 15.7315 17.0985 15.5849 15.2854 15.4932C12.5955 15.3496 11.2316 16.3111 11.2113 17.348C11.1878 18.6161 13.7648 19.7609 16.1858 20.5401C19.8587 21.7043 24.5308 23.2657 25.2407 27.7758L31.959 9.88204L39.7529 9.88204L47.6161 31.2847L47.6161 9.88204Z" fill="#6C6F93"/>
<path d="M60.8788 41.9887L60.8788 45.3626L61.3881 45.3626L61.3881 43.8985L61.9609 43.8985L62.884 45.3626L63.4569 45.3626L62.4702 43.8985C62.9633 43.8374 63.3614 43.5507 63.3614 42.9436C63.3614 42.2785 62.9544 41.9887 62.152 41.9887L60.8788 41.9887ZM61.3881 42.4343L62.0882 42.4343C62.4326 42.4343 62.8204 42.4903 62.8204 42.9117C62.8204 43.4384 62.4277 43.4848 61.9928 43.4848L61.3881 43.4848L61.3881 42.4343ZM62.0247 40.7473C60.4093 40.7473 59.0326 41.9921 59.0326 43.6756C59.0326 45.3715 60.4092 46.6358 62.0247 46.6358C63.6177 46.6358 64.953 45.3717 64.953 43.6756C64.953 41.9921 63.6177 40.7473 62.0247 40.7473ZM62.0247 41.2248C63.3426 41.2248 64.3799 42.2895 64.3799 43.6756C64.3799 45.0855 63.3426 46.1266 62.0247 46.1266C60.6842 46.1266 59.6056 45.0855 59.6056 43.6756C59.6056 42.2895 60.6842 41.2248 62.0247 41.2248Z" fill="#6C6F93"/>
</svg>
