<svg width="93" height="33" viewBox="0 0 93 33" fill="none" xmlns="http://www.w3.org/2000/svg">
<g clip-path="url(#clip0_11_463)">
<path d="M0.354862 21.5517C5.32353 13.9542 27.8716 5.80135 43.2409 5.7501C59.8521 5.65749 69.0605 8.59799 87.1976 19.938C87.0974 18.6331 86.9018 17.5751 86.8908 16.6043C86.8313 15.4983 86.7796 14.3287 86.9766 13.2542C87.0156 12.9359 87.6632 12.4337 88.0558 12.4173C88.4484 12.4009 89.035 12.9254 89.1241 13.2594C89.9033 16.4573 90.5543 19.6393 91.2615 22.893C91.4571 23.951 90.9786 24.6678 89.8493 24.8522C85.5557 25.359 81.2544 25.9294 76.9045 26.3645C75.9191 26.4374 74.796 26.041 73.5134 25.8834C74.8756 23.2717 77.1452 23.8736 78.8986 23.3781C80.7239 22.8267 82.6384 22.6094 84.9767 22.1211C80.0916 17.902 74.9781 15.012 69.4425 12.9103C49.1768 5.12194 29.4061 7.08849 10.2195 16.4943C7.72325 17.7388 5.3881 19.2616 2.94815 20.5776C2.20364 20.8093 1.52324 21.0489 0.354862 21.5517Z" fill="#0E0B3D"/>
</g>
<defs>
<clipPath id="clip0_11_463">
<rect width="90.503" height="21.7137" fill="white" transform="matrix(0.992542 0.121899 -0.12184 0.99255 3 0)"/>
</clipPath>
</defs>
</svg>
