<svg width="82" height="84" viewBox="0 0 82 84" fill="none" xmlns="http://www.w3.org/2000/svg">
<g clip-path="url(#clip0_11_438)">
<path fill-rule="evenodd" clip-rule="evenodd" d="M34.6494 71.7032C34.4889 70.836 33.6929 70.2332 32.8097 70.2942C22.8353 70.9827 14.1366 70.1098 8.3261 68.9092C7.5385 68.7464 6.98936 68.0456 6.99592 67.2443L7.13512 50.2314C7.14221 49.3649 6.49859 48.6317 5.63854 48.5019C4.65138 48.353 3.66792 48.1836 2.68876 47.9936C1.75823 47.8131 1.17196 46.9003 1.37258 45.9774L6.77466 21.1253C6.97625 20.1979 7.89459 19.6135 8.83273 19.778C23.7035 22.3854 42.1286 17.2752 56.5466 3.97214C57.17 3.39692 58.1202 3.33706 58.7968 3.84898L79.3643 19.4074C80.0423 19.9201 80.2441 20.8508 79.8161 21.5838C77.4676 25.6053 73.8929 30.6326 69.13 35.9245C68.4904 36.6351 68.5377 37.7296 69.2482 38.3699L81.2688 49.2001C81.8794 49.7502 82.0165 50.6539 81.5722 51.3443C78.4328 56.221 73.2446 62.5899 66.4687 68.3649C59.474 74.3265 49.9572 80.3587 38.4429 82.7969C37.5171 82.993 36.6241 82.3753 36.4525 81.448L34.6494 71.7032Z" fill="#A663CC"/>
<g filter="url(#filter0_dd_11_438)">
<path d="M42.1665 25.7965C45.8193 25.7965 49.3226 27.2476 51.9056 29.8306C54.4886 32.4136 55.9396 35.9169 55.9396 39.5697C55.9396 50.1021 47.0277 59.0141 42.1665 59.0141C37.3054 59.0141 28.3933 50.1021 28.3933 39.5697C28.3933 35.9169 29.8444 32.4136 32.4274 29.8306C35.0104 27.2476 38.5137 25.7965 42.1665 25.7965ZM51.0786 42.0002C50.0561 42.0002 49.0449 42.2152 48.1109 42.6314C47.177 43.0474 46.341 43.6554 45.6571 44.4156C44.9733 45.1758 44.457 46.0713 44.1418 47.044C43.8266 48.0167 43.7195 49.0448 43.8274 50.0615C44.9089 50.1765 46.0023 50.0479 47.0277 49.6854C48.053 49.3229 48.9843 48.7356 49.7533 47.9667C50.5223 47.1976 51.1096 46.2664 51.4721 45.241C51.8346 44.2156 51.963 43.1222 51.8482 42.0407C51.5926 42.0139 51.3356 42.0003 51.0786 42.0002ZM33.2545 42.0002C32.9952 42.0002 32.7375 42.0132 32.4848 42.0407C32.37 43.1222 32.4985 44.2156 32.8609 45.241C33.2234 46.2664 33.8107 47.1976 34.5797 47.9667C35.3487 48.7356 36.28 49.3229 37.3054 49.6854C38.3307 50.0479 39.4241 50.1765 40.5056 50.0615C40.6136 49.0448 40.5065 48.0167 40.1912 47.044C39.876 46.0713 39.3597 45.1758 38.6758 44.4156C37.9921 43.6554 37.156 43.0474 36.222 42.6314C35.2881 42.2152 34.2769 42.0002 33.2545 42.0002Z" fill="url(#paint0_linear_11_438)"/>
</g>
</g>
<defs>
<filter id="filter0_dd_11_438" x="18.1425" y="24.2328" width="48.0478" height="53.7191" filterUnits="userSpaceOnUse" color-interpolation-filters="sRGB">
<feFlood flood-opacity="0" result="BackgroundImageFix"/>
<feColorMatrix in="SourceAlpha" type="matrix" values="0 0 0 0 0 0 0 0 0 0 0 0 0 0 0 0 0 0 127 0" result="hardAlpha"/>
<feOffset dy="3.43489"/>
<feGaussianBlur stdDeviation="2.02659"/>
<feColorMatrix type="matrix" values="0 0 0 0 0.254902 0 0 0 0 0 0 0 0 0 0.639216 0 0 0 0.0899053 0"/>
<feBlend mode="normal" in2="BackgroundImageFix" result="effect1_dropShadow_11_438"/>
<feColorMatrix in="SourceAlpha" type="matrix" values="0 0 0 0 0 0 0 0 0 0 0 0 0 0 0 0 0 0 127 0" result="hardAlpha"/>
<feOffset dy="8.6871"/>
<feGaussianBlur stdDeviation="5.12539"/>
<feColorMatrix type="matrix" values="0 0 0 0 0.254902 0 0 0 0 0 0 0 0 0 0.639216 0 0 0 0.128676 0"/>
<feBlend mode="normal" in2="effect1_dropShadow_11_438" result="effect2_dropShadow_11_438"/>
<feBlend mode="normal" in="SourceGraphic" in2="effect2_dropShadow_11_438" result="shape"/>
</filter>
<linearGradient id="paint0_linear_11_438" x1="42.1665" y1="25.7965" x2="42.1665" y2="59.0141" gradientUnits="userSpaceOnUse">
<stop stop-color="white"/>
<stop offset="1" stop-color="#EEE3FF"/>
</linearGradient>
<clipPath id="clip0_11_438">
<rect width="81.6667" height="84" fill="white" transform="translate(0.166626)"/>
</clipPath>
</defs>
</svg>
