<svg width="82" height="84" viewBox="0 0 82 84" fill="none" xmlns="http://www.w3.org/2000/svg">
<g clip-path="url(#clip0_11_413)">
<path fill-rule="evenodd" clip-rule="evenodd" d="M34.6494 71.7032C34.4889 70.836 33.6929 70.2332 32.8097 70.2942C22.8353 70.9827 14.1366 70.1098 8.3261 68.9092C7.5385 68.7464 6.98936 68.0456 6.99592 67.2443L7.13512 50.2314C7.14221 49.3649 6.49859 48.6317 5.63854 48.5019C4.65138 48.353 3.66792 48.1836 2.68876 47.9936C1.75823 47.8131 1.17196 46.9003 1.37258 45.9774L6.77466 21.1253C6.97625 20.1979 7.89459 19.6135 8.83273 19.778C23.7035 22.3854 42.1286 17.2752 56.5466 3.97214C57.17 3.39692 58.1202 3.33706 58.7968 3.84898L79.3643 19.4074C80.0423 19.9201 80.2441 20.8508 79.8161 21.5838C77.4676 25.6053 73.8929 30.6326 69.13 35.9245C68.4904 36.6351 68.5377 37.7296 69.2482 38.3699L81.2688 49.2001C81.8794 49.7502 82.0165 50.6539 81.5722 51.3443C78.4328 56.221 73.2446 62.5899 66.4687 68.3649C59.474 74.3265 49.9572 80.3587 38.4429 82.7969C37.5171 82.993 36.6241 82.3753 36.4525 81.448L34.6494 71.7032Z" fill="#FFC857"/>
<g filter="url(#filter0_dd_11_413)">
<path d="M29.8512 39.6221C30.6138 38.2188 31.5327 36.9063 32.5905 35.7097C38.0455 29.528 46.2342 27.3578 53.0838 29.6289C56.1896 36.1428 55.055 44.5379 49.5999 50.7196C48.5171 51.9467 47.3268 53.0164 46.0587 53.9244L46.5873 58.2722C46.6101 58.4593 46.5669 58.6486 46.4651 58.8072C46.3633 58.9659 46.2093 59.0842 46.0298 59.1416L38.652 61.4828C38.5347 61.5199 38.4104 61.5298 38.2887 61.5117C38.167 61.4937 38.051 61.4481 37.9495 61.3786C37.848 61.309 37.7637 61.2172 37.7029 61.1102C37.6422 61.0033 37.6067 60.8838 37.599 60.7609L37.277 55.6059C37.2503 55.1769 37.0543 54.7763 36.7322 54.4919L30.4484 48.9468C30.1261 48.6625 29.7042 48.5179 29.2753 48.5448L24.1201 48.8668C23.9974 48.8744 23.8744 48.8539 23.7607 48.8069C23.6469 48.76 23.5454 48.6878 23.4638 48.5958C23.3821 48.5037 23.3225 48.3943 23.2895 48.2757C23.2563 48.1572 23.2507 48.0327 23.273 47.9116L24.677 40.3011C24.7114 40.1154 24.8096 39.9475 24.9547 39.8265C25.0997 39.7055 25.2825 39.639 25.4714 39.6384L29.8512 39.6221ZM41.0953 43.2146C41.7397 43.7834 42.5837 44.0727 43.4414 44.0192C44.2993 43.9656 45.1007 43.5734 45.6694 42.929C46.2382 42.2846 46.5275 41.4406 46.4739 40.5827C46.4204 39.7249 46.0282 38.9235 45.3838 38.3548C44.7393 37.7861 43.8954 37.4967 43.0375 37.5502C42.1797 37.6039 41.3783 37.996 40.8095 38.6405C40.2409 39.2849 39.9515 40.1289 40.005 40.9866C40.0587 41.8445 40.4508 42.6459 41.0953 43.2146Z" fill="url(#paint0_linear_11_413)"/>
</g>
</g>
<defs>
<filter id="filter0_dd_11_413" x="15.2868" y="27.5344" width="47.472" height="48.7156" filterUnits="userSpaceOnUse" color-interpolation-filters="sRGB">
<feFlood flood-opacity="0" result="BackgroundImageFix"/>
<feColorMatrix in="SourceAlpha" type="matrix" values="0 0 0 0 0 0 0 0 0 0 0 0 0 0 0 0 0 0 127 0" result="hardAlpha"/>
<feOffset dy="2.67158"/>
<feGaussianBlur stdDeviation="1.57623"/>
<feColorMatrix type="matrix" values="0 0 0 0 0.301961 0 0 0 0 0.2 0 0 0 0 0.0980392 0 0 0 0.0899053 0"/>
<feBlend mode="normal" in2="BackgroundImageFix" result="effect1_dropShadow_11_413"/>
<feColorMatrix in="SourceAlpha" type="matrix" values="0 0 0 0 0 0 0 0 0 0 0 0 0 0 0 0 0 0 127 0" result="hardAlpha"/>
<feOffset dy="6.75663"/>
<feGaussianBlur stdDeviation="3.98641"/>
<feColorMatrix type="matrix" values="0 0 0 0 0.301961 0 0 0 0 0.2 0 0 0 0 0.0980392 0 0 0 0.128676 0"/>
<feBlend mode="normal" in2="effect1_dropShadow_11_413" result="effect2_dropShadow_11_413"/>
<feBlend mode="normal" in="SourceGraphic" in2="effect2_dropShadow_11_413" result="shape"/>
</filter>
<linearGradient id="paint0_linear_11_413" x1="53.0836" y1="29.6287" x2="30.7024" y2="54.9914" gradientUnits="userSpaceOnUse">
<stop stop-color="white"/>
<stop offset="1" stop-color="#FFFCF5"/>
</linearGradient>
<clipPath id="clip0_11_413">
<rect width="81.6667" height="84" fill="white" transform="translate(0.166626)"/>
</clipPath>
</defs>
</svg>
