<svg width="82" height="84" viewBox="0 0 82 84" fill="none" xmlns="http://www.w3.org/2000/svg">
<g clip-path="url(#clip0_11_429)">
<path fill-rule="evenodd" clip-rule="evenodd" d="M34.6494 71.7032C34.4889 70.836 33.6929 70.2332 32.8097 70.2942C22.8353 70.9827 14.1366 70.1098 8.3261 68.9092C7.5385 68.7464 6.98936 68.0456 6.99592 67.2443L7.13512 50.2314C7.14221 49.3649 6.49859 48.6317 5.63854 48.5019C4.65138 48.353 3.66792 48.1836 2.68876 47.9936C1.75823 47.8131 1.17196 46.9003 1.37258 45.9774L6.77466 21.1253C6.97625 20.1979 7.89459 19.6135 8.83273 19.778C23.7035 22.3854 42.1286 17.2752 56.5466 3.97214C57.17 3.39692 58.1202 3.33706 58.7968 3.84898L79.3643 19.4074C80.0423 19.9201 80.2441 20.8508 79.8161 21.5838C77.4676 25.6053 73.8929 30.6326 69.13 35.9245C68.4904 36.6351 68.5377 37.7296 69.2482 38.3699L81.2688 49.2001C81.8794 49.7502 82.0165 50.6539 81.5722 51.3443C78.4328 56.221 73.2446 62.5899 66.4687 68.3649C59.474 74.3265 49.9572 80.3587 38.4429 82.7969C37.5171 82.993 36.6241 82.3753 36.4525 81.448L34.6494 71.7032Z" fill="#48ACF0"/>
<g filter="url(#filter0_dd_11_429)">
<path d="M42.1664 23.3675L49.0141 33.3862L60.6597 36.8036L53.2466 46.4124L53.5949 58.5425L42.1664 54.4624L30.738 58.5425L31.0863 46.4124L23.6731 36.8036L35.3188 33.3862L42.1664 23.3675ZM38.9257 42.0017H35.685C35.6849 43.6927 36.3457 45.3167 37.5263 46.5272C38.707 47.7378 40.314 48.439 42.0043 48.4813C43.6947 48.5236 45.3347 47.9035 46.5744 46.7536C47.8141 45.6036 48.5553 44.0147 48.6398 42.3258L48.6479 42.0017H45.4072C45.4109 42.8427 45.0876 43.6522 44.5057 44.2592C43.9236 44.8661 43.1284 45.2231 42.2881 45.2547C41.4477 45.2862 40.628 44.9899 40.0021 44.4283C39.3762 43.8666 38.9931 43.0837 38.9338 42.2449L38.9257 42.0017Z" fill="url(#paint0_linear_11_429)"/>
</g>
</g>
<defs>
<filter id="filter0_dd_11_429" x="13.4223" y="21.8038" width="57.4881" height="55.6765" filterUnits="userSpaceOnUse" color-interpolation-filters="sRGB">
<feFlood flood-opacity="0" result="BackgroundImageFix"/>
<feColorMatrix in="SourceAlpha" type="matrix" values="0 0 0 0 0 0 0 0 0 0 0 0 0 0 0 0 0 0 127 0" result="hardAlpha"/>
<feOffset dy="3.43489"/>
<feGaussianBlur stdDeviation="2.02659"/>
<feColorMatrix type="matrix" values="0 0 0 0 0.00392157 0 0 0 0 0.192157 0 0 0 0 0.513726 0 0 0 0.0899053 0"/>
<feBlend mode="normal" in2="BackgroundImageFix" result="effect1_dropShadow_11_429"/>
<feColorMatrix in="SourceAlpha" type="matrix" values="0 0 0 0 0 0 0 0 0 0 0 0 0 0 0 0 0 0 127 0" result="hardAlpha"/>
<feOffset dy="8.6871"/>
<feGaussianBlur stdDeviation="5.12539"/>
<feColorMatrix type="matrix" values="0 0 0 0 0.00392157 0 0 0 0 0.192157 0 0 0 0 0.513726 0 0 0 0.128676 0"/>
<feBlend mode="normal" in2="effect1_dropShadow_11_429" result="effect2_dropShadow_11_429"/>
<feBlend mode="normal" in="SourceGraphic" in2="effect2_dropShadow_11_429" result="shape"/>
</filter>
<linearGradient id="paint0_linear_11_429" x1="42.1664" y1="23.3675" x2="42.1664" y2="58.5425" gradientUnits="userSpaceOnUse">
<stop stop-color="white"/>
<stop offset="1" stop-color="#D0E1FF"/>
</linearGradient>
<clipPath id="clip0_11_429">
<rect width="81.6667" height="84" fill="white" transform="translate(0.166626)"/>
</clipPath>
</defs>
</svg>
