<svg width="56" height="20" viewBox="0 0 56 20" fill="none" xmlns="http://www.w3.org/2000/svg">
<path d="M50.3175 8.11404C50.9812 8.11404 51.5192 7.57601 51.5192 6.91231C51.5192 6.24861 50.9812 5.71057 50.3175 5.71057C49.6538 5.71057 49.1157 6.24861 49.1157 6.91231C49.1157 7.57601 49.6538 8.11404 50.3175 8.11404Z" fill="#FF4500"/>
<path d="M33.1541 12.0354C33.7436 12.0354 34.0836 11.5933 34.061 11.1625C34.0498 10.9357 34.027 10.7882 34.0044 10.675C33.6416 9.11061 32.372 7.9541 30.8641 7.9541C29.073 7.9541 27.6219 9.57529 27.6219 11.5705C27.6219 13.5657 29.073 15.1869 30.8641 15.1869C31.9866 15.1869 32.7915 14.7789 33.3696 14.1327C33.653 13.8153 33.5964 13.3278 33.2561 13.0896C32.9728 12.8969 32.6214 12.965 32.3606 13.1803C32.1113 13.3958 31.6352 13.8265 30.8641 13.8265C29.9573 13.8265 29.1865 13.0442 29.0164 12.0126H33.1541V12.0354ZM30.8529 9.32594C31.669 9.32594 32.372 9.96072 32.6328 10.8337H29.073C29.3338 9.94952 30.0366 9.32594 30.8529 9.32594ZM27.69 8.66833C27.69 8.32833 27.4406 8.05616 27.1232 7.99953C26.1368 7.85224 25.2072 8.21486 24.6745 8.88387V8.79301C24.6745 8.37355 24.3343 8.113 23.9943 8.113C23.6201 8.113 23.3141 8.41899 23.3141 8.79301V14.348C23.3141 14.7108 23.586 15.0282 23.9489 15.0508C24.3457 15.0734 24.6745 14.7675 24.6745 14.3706V11.5025C24.6745 10.2329 25.6267 9.18986 26.9417 9.33735H27.0778C27.4178 9.31453 27.69 9.01975 27.69 8.66833ZM50.9978 9.39398C50.9978 9.01975 50.6918 8.71377 50.3178 8.71377C49.9435 8.71377 49.6375 9.01975 49.6375 9.39398V14.3706C49.6375 14.7448 49.9435 15.0508 50.3178 15.0508C50.6918 15.0508 50.9978 14.7448 50.9978 14.3706V9.39398ZM40.8856 5.63029C40.8856 5.25605 40.5796 4.95007 40.2054 4.95007C39.8314 4.95007 39.5254 5.25605 39.5254 5.63029V8.65713C39.0605 8.19225 38.4823 7.96551 37.7907 7.96551C35.9996 7.96551 34.5485 9.5867 34.5485 11.5819C34.5485 13.5771 35.9996 15.1983 37.7907 15.1983C38.4823 15.1983 39.0719 14.9602 39.5366 14.4953C39.5932 14.8129 39.8768 15.0508 40.2054 15.0508C40.5796 15.0508 40.8856 14.7448 40.8856 14.3706V5.63029ZM37.8021 13.8491C36.7591 13.8491 35.9202 12.8403 35.9202 11.5819C35.9202 10.335 36.7591 9.31453 37.8021 9.31453C38.8452 9.31453 39.6841 10.3235 39.6841 11.5819C39.6841 12.8403 38.8338 13.8491 37.8021 13.8491ZM47.9823 5.63029C47.9823 5.25605 47.6764 4.95007 47.3021 4.95007C46.9281 4.95007 46.6219 5.25605 46.6219 5.63029V8.65713C46.1572 8.19225 45.5791 7.96551 44.8874 7.96551C43.0964 7.96551 41.6453 9.5867 41.6453 11.5819C41.6453 13.5771 43.0964 15.1983 44.8874 15.1983C45.5791 15.1983 46.1684 14.9602 46.6333 14.4953C46.6899 14.8129 46.9733 15.0508 47.3021 15.0508C47.6764 15.0508 47.9823 14.7448 47.9823 14.3706V5.63029ZM44.8874 13.8491C43.8444 13.8491 43.0057 12.8403 43.0057 11.5819C43.0057 10.335 43.8444 9.31453 44.8874 9.31453C45.9305 9.31453 46.7694 10.3235 46.7694 11.5819C46.7694 12.8403 45.9305 13.8491 44.8874 13.8491ZM54.4441 14.382V9.32594H55.045C55.3624 9.32594 55.6458 9.08779 55.6684 8.75899C55.6912 8.40757 55.4079 8.113 55.0677 8.113H54.4441V7.16062C54.4441 6.79779 54.1721 6.4804 53.8093 6.45779C53.4124 6.43518 53.0838 6.74116 53.0838 7.13801V8.1242H52.5169C52.1995 8.1242 51.9161 8.36235 51.8935 8.69116C51.8707 9.04257 52.1543 9.33735 52.4943 9.33735H53.0724V14.3934C53.0724 14.7675 53.3786 15.0734 53.7527 15.0734C54.1495 15.0508 54.4441 14.756 54.4441 14.382Z" fill="#222222"/>
<path d="M10.0046 19.3706C15.2513 19.3706 19.5046 15.1173 19.5046 9.87061C19.5046 4.6239 15.2513 0.370605 10.0046 0.370605C4.75793 0.370605 0.504639 4.6239 0.504639 9.87061C0.504639 15.1173 4.75793 19.3706 10.0046 19.3706Z" fill="#FF4500"/>
<path d="M16.3417 9.87021C16.3417 9.09934 15.7183 8.48717 14.9587 8.48717C14.5846 8.48717 14.2444 8.63445 13.9951 8.8726C13.0429 8.19239 11.7391 7.75032 10.288 7.69369L10.9228 4.72347L12.9861 5.16554C13.0089 5.68706 13.4395 6.10652 13.9725 6.10652C14.5166 6.10652 14.9587 5.66445 14.9587 5.12011C14.9587 4.57598 14.5166 4.13391 13.9725 4.13391C13.587 4.13391 13.2468 4.36065 13.0881 4.68945L10.7869 4.20195C10.7189 4.19054 10.6508 4.20195 10.6054 4.23598C10.5488 4.27 10.5147 4.32663 10.5035 4.39467L9.80051 7.70489C8.32681 7.75032 7.0004 8.19239 6.03682 8.88401C5.7773 8.63615 5.4321 8.49806 5.07323 8.49858C4.30236 8.49858 3.69019 9.12195 3.69019 9.88162C3.69019 10.4484 4.03019 10.9245 4.50649 11.14C4.48367 11.2759 4.47247 11.412 4.47247 11.5594C4.47247 13.6905 6.95518 15.4252 10.016 15.4252C13.0769 15.4252 15.5596 13.702 15.5596 11.5594C15.5596 11.4234 15.5482 11.2759 15.5256 11.14C16.0017 10.9245 16.3417 10.437 16.3417 9.87021ZM6.84171 10.8564C6.84171 10.3123 7.28377 9.87021 7.82812 9.87021C8.37225 9.87021 8.81431 10.3123 8.81431 10.8564C8.81431 11.4005 8.37225 11.8428 7.82812 11.8428C7.28377 11.854 6.84171 11.4005 6.84171 10.8564ZM12.3627 13.4752C11.6825 14.1554 10.3901 14.2009 10.016 14.2009C9.63061 14.2009 8.33822 14.144 7.66921 13.4752C7.56736 13.3731 7.56736 13.2145 7.66921 13.1124C7.77127 13.0105 7.92997 13.0105 8.03203 13.1124C8.4629 13.5433 9.36985 13.6905 10.016 13.6905C10.6622 13.6905 11.5804 13.5433 11.9999 13.1124C12.1019 13.0105 12.2606 13.0105 12.3627 13.1124C12.4533 13.2145 12.4533 13.3731 12.3627 13.4752ZM12.1812 11.854C11.637 11.854 11.195 11.412 11.195 10.8678C11.195 10.3237 11.637 9.88162 12.1812 9.88162C12.7255 9.88162 13.1676 10.3237 13.1676 10.8678C13.1676 11.4005 12.7255 11.854 12.1812 11.854Z" fill="white"/>
</svg>
