<svg width="81" height="25" viewBox="0 0 81 25" fill="none" xmlns="http://www.w3.org/2000/svg">
<g clip-path="url(#clip0_14_1371)">
<path d="M50.1241 19.4952C45.4807 22.8971 38.7504 24.7121 32.9557 24.7121C24.8307 24.7121 17.516 21.7251 11.9822 16.7571C11.5474 16.3664 11.937 15.834 12.4587 16.1383C18.4308 19.592 25.815 21.6698 33.4427 21.6698C38.5869 21.6698 44.2459 20.6119 49.4493 18.4166C50.2354 18.0847 50.8927 18.9282 50.1241 19.4952Z" fill="#FF9900"/>
<path d="M52.0545 17.2999C51.4632 16.5463 48.1311 16.9438 46.6355 17.1202C46.1798 17.1755 46.1103 16.7814 46.5207 16.4979C49.1745 14.6414 53.5292 15.1772 54.037 15.7995C54.5449 16.4253 53.9049 20.764 51.411 22.8349C51.0284 23.1529 50.6632 22.9835 50.8336 22.5617C51.3936 21.172 52.6492 18.0571 52.0545 17.2999Z" fill="#FF9900"/>
<path d="M46.7398 3.39173V1.58708C46.7398 1.31397 46.9485 1.13074 47.1989 1.13074H55.3275C55.5883 1.13074 55.797 1.31742 55.797 1.58708V3.13244C55.7936 3.39173 55.5744 3.73053 55.1849 4.26639L50.9728 10.2438C52.538 10.2058 54.1901 10.4374 55.6092 11.2326C55.9292 11.4124 56.0162 11.6751 56.0405 11.9344V13.86C56.0405 14.1228 55.7483 14.4305 55.4423 14.2714C52.9414 12.9681 49.6198 12.8263 46.8546 14.2853C46.5729 14.4374 46.2772 14.1332 46.2772 13.8704V12.0416C46.2772 11.7477 46.2807 11.2464 46.5763 10.8004L51.4562 3.84462H47.2094C46.9485 3.84462 46.7398 3.66139 46.7398 3.39173Z" fill="#221F1F"/>
<path d="M17.0882 14.6517H14.6152C14.3787 14.6344 14.1909 14.4581 14.1735 14.2333V1.61814C14.1735 1.36577 14.3856 1.16525 14.65 1.16525H16.956C17.196 1.17561 17.3873 1.35885 17.4047 1.58702V3.23609H17.4499C18.0516 1.64234 19.182 0.899048 20.7055 0.899048C22.2533 0.899048 23.2202 1.64234 23.9159 3.23609C24.5141 1.64234 25.8741 0.899048 27.3314 0.899048C28.3679 0.899048 29.5018 1.32428 30.194 2.27846C30.9766 3.33981 30.8166 4.8817 30.8166 6.23346L30.8131 14.1953C30.8131 14.4477 30.6009 14.6517 30.3366 14.6517H27.8671C27.6201 14.6344 27.4219 14.4373 27.4219 14.1953V7.50915C27.4219 6.97675 27.4706 5.6492 27.3523 5.14445C27.168 4.29745 26.6149 4.0589 25.8984 4.0589C25.3002 4.0589 24.6741 4.45647 24.4202 5.09259C24.1663 5.72871 24.1906 6.79352 24.1906 7.50915V14.1953C24.1906 14.4477 23.9785 14.6517 23.7141 14.6517H21.2446C20.9942 14.6344 20.7994 14.4373 20.7994 14.1953L20.7959 7.50915C20.7959 6.10209 21.029 4.03124 19.2725 4.03124C17.4951 4.03124 17.5647 6.05023 17.5647 7.50915V14.1953C17.5647 14.4477 17.3525 14.6517 17.0882 14.6517Z" fill="#221F1F"/>
<path d="M62.7951 0.899048C66.4646 0.899048 68.4506 4.03124 68.4506 8.0139C68.4506 11.8617 66.2559 14.9144 62.7951 14.9144C59.1917 14.9144 57.23 11.7822 57.23 7.87907C57.23 3.95173 59.216 0.899048 62.7951 0.899048ZM62.816 3.47464C60.9934 3.47464 60.8786 5.94306 60.8786 7.4815C60.8786 9.0234 60.8543 12.3146 62.7951 12.3146C64.7116 12.3146 64.802 9.65952 64.802 8.04156C64.802 6.97675 64.7568 5.70451 64.4333 4.69502C64.1551 3.8169 63.602 3.47464 62.816 3.47464Z" fill="#221F1F"/>
<path d="M73.2087 14.6517H70.7462C70.4992 14.6344 70.301 14.4373 70.301 14.1953L70.2975 1.57665C70.3184 1.34502 70.5236 1.16525 70.774 1.16525H73.0661C73.2818 1.17561 73.4592 1.32082 73.5079 1.51788V3.44698H73.5531C74.2452 1.72185 75.2156 0.899048 76.9234 0.899048C78.033 0.899048 79.1147 1.29662 79.8103 2.38563C80.4573 3.39512 80.4573 5.09259 80.4573 6.31297V14.2541C80.4295 14.4753 80.2242 14.6517 79.9808 14.6517H77.5008C77.2747 14.6344 77.0869 14.4684 77.0626 14.2541V7.40198C77.0626 6.02257 77.2226 4.00358 75.5148 4.00358C74.913 4.00358 74.36 4.40462 74.0852 5.01308C73.7374 5.78403 73.6922 6.55152 73.6922 7.40198V14.1953C73.6887 14.4477 73.4731 14.6517 73.2087 14.6517Z" fill="#221F1F"/>
<path d="M40.26 8.62585V8.09344C38.4722 8.09344 36.5835 8.47373 36.5835 10.5688C36.5835 11.6301 37.1365 12.3492 38.0861 12.3492C38.7817 12.3492 39.4043 11.924 39.7974 11.2326C40.2843 10.3821 40.26 9.58348 40.26 8.62585ZM42.7538 14.6171C42.5903 14.7623 42.3538 14.7727 42.1695 14.6759C41.3486 13.9983 41.2025 13.6837 40.7504 13.0372C39.3939 14.4131 38.4339 14.8245 36.6739 14.8245C34.594 14.8245 32.9731 13.5489 32.9731 10.994C32.9731 8.99922 34.0618 7.64055 35.6096 6.97678C36.9522 6.38906 38.8269 6.28535 40.26 6.12286V5.8048C40.26 5.22054 40.3052 4.5291 39.9608 4.02436C39.6582 3.57147 39.0808 3.38478 38.573 3.38478C37.6304 3.38478 36.7887 3.86533 36.5835 4.86099C36.5418 5.08225 36.3783 5.30005 36.1557 5.31042L33.7557 5.05459C33.554 5.00965 33.3314 4.84716 33.387 4.53948C33.9401 1.64928 36.5661 0.778076 38.9174 0.778076C40.1208 0.778076 41.693 1.09614 42.6425 2.00191C43.846 3.11858 43.7312 4.60862 43.7312 6.23003V10.0606C43.7312 11.2118 44.2112 11.7166 44.6633 12.3388C44.8233 12.5601 44.8581 12.8263 44.6564 12.9922C44.152 13.4106 43.2547 14.1884 42.7608 14.624L42.7538 14.6171" fill="#221F1F"/>
<path d="M7.83978 8.62585V8.09344C6.05199 8.09344 4.16334 8.47373 4.16334 10.5688C4.16334 11.6301 4.71637 12.3492 5.66591 12.3492C6.36155 12.3492 6.98415 11.924 7.37718 11.2326C7.86413 10.3821 7.83978 9.58348 7.83978 8.62585ZM10.3336 14.6171C10.1702 14.7623 9.93365 14.7727 9.74931 14.6759C8.92846 13.9983 8.78237 13.6837 8.33021 13.0372C6.97371 14.4131 6.01374 14.8245 4.25377 14.8245C2.17381 14.8245 0.552979 13.5489 0.552979 10.994C0.552979 8.99922 1.64165 7.64055 3.18944 6.97678C4.53203 6.38906 6.40677 6.28535 7.83978 6.12286V5.8048C7.83978 5.22054 7.885 4.5291 7.54066 4.02436C7.23806 3.57147 6.66068 3.38478 6.15286 3.38478C5.21027 3.38478 4.36855 3.86533 4.16334 4.86099C4.1216 5.08225 3.95812 5.30005 3.73552 5.31042L1.33557 5.05459C1.13384 5.00965 0.911231 4.84716 0.966882 4.53948C1.51991 1.64928 4.14595 0.778076 6.4972 0.778076C7.70065 0.778076 9.2728 1.09614 10.2223 2.00191C11.4258 3.11858 11.311 4.60862 11.311 6.23003V10.0606C11.311 11.2118 11.791 11.7166 12.2432 12.3388C12.4032 12.5601 12.4379 12.8263 12.2362 12.9922C11.7319 13.4106 10.8345 14.1884 10.3406 14.624L10.3336 14.6171" fill="#221F1F"/>
</g>
<defs>
<clipPath id="clip0_14_1371">
<rect width="80" height="24" fill="white" transform="translate(0.504639 0.745605)"/>
</clipPath>
</defs>
</svg>
